<svg width="236" height="81" viewBox="0 0 236 81" fill="none" xmlns="http://www.w3.org/2000/svg">
<path d="M7.90045 50.9689V51.3818H1.10111V50.9689C1.83518 50.9689 2.20222 50.3725 2.20222 49.1796V35.4158C2.20222 34.2229 1.83518 33.6265 1.10111 33.6265V33.2135H7.90045V33.6265C7.16638 33.6265 6.79934 34.2229 6.79934 35.4158V49.1796C6.79934 50.3725 7.16638 50.9689 7.90045 50.9689ZM15.5587 51.3818V50.9689C16.2927 50.9689 16.6598 50.3725 16.6598 49.1796V34.3697H14.1548C13.4941 34.3697 12.8426 34.5441 12.2003 34.8927C11.5763 35.2414 11.0625 35.7002 10.6587 36.2691L10.4385 36.5995H10.1082C10.1449 36.1774 10.1908 35.7094 10.2458 35.1955C10.2825 34.6817 10.3192 34.2137 10.3559 33.7916L10.411 33.2135H27.4782L27.5332 33.7916C27.5699 34.2137 27.6066 34.6817 27.6433 35.1955C27.6984 35.7094 27.7443 36.1774 27.781 36.5995H27.4506L27.2304 36.2691C26.8267 35.7002 26.3036 35.2414 25.6613 34.8927C25.0374 34.5441 24.3951 34.3697 23.7344 34.3697H21.2294V49.1796C21.2294 50.3725 21.5964 50.9689 22.3305 50.9689V51.3818H15.5587ZM28.8601 51.3818L28.8325 50.9139C29.5115 50.9139 30.0805 50.4275 30.5392 49.4549L36.9257 32.7731H38.0818L45.8722 49.1521C46.4594 50.345 47.1018 50.9414 47.7991 50.9414V51.3543H40.5043V50.9414H40.697C40.9906 50.9414 41.1649 50.8129 41.22 50.556C41.2751 50.2807 41.2108 49.9137 41.0273 49.4549L38.9627 45.0505L33.6223 45.078L32.1634 49.097C31.9982 49.6659 31.9615 50.1247 32.0533 50.4734C32.145 50.8038 32.3744 50.9689 32.7415 50.9689H32.9617V51.3818H28.8601ZM38.4122 43.8668L35.9071 38.5814L34.0077 43.8392L38.4122 43.8668ZM57.3567 33.2135V33.6265C56.6227 33.6265 56.2556 34.2229 56.2556 35.4158V50.2257H60.7427C61.4951 50.2257 62.2016 50.0513 62.8623 49.7026C63.523 49.354 64.0276 48.8952 64.3763 48.3263L64.5965 47.9959C64.6332 48.0143 64.6699 48.0235 64.7066 48.0235C64.8168 48.0602 64.9177 48.0877 65.0094 48.106C65.0462 48.1427 65.0829 48.1427 65.1196 48.106C65.0278 48.5098 64.936 48.9594 64.8443 49.4549C64.7709 49.9504 64.6975 50.4 64.6241 50.8038L64.5415 51.3818H50.5574V50.9689C51.2915 50.9689 51.6585 50.3725 51.6585 49.1796V35.4158C51.6585 34.2229 51.2915 33.6265 50.5574 33.6265V33.2135H57.3567ZM73.9064 42.2977C73.9064 43.3804 73.9982 44.4173 74.1817 45.4083C74.3652 46.381 74.6313 47.2343 74.98 47.9684C75.347 48.7025 75.7966 49.2897 76.3288 49.7302C76.861 50.1523 77.4758 50.3633 78.1732 50.3633C78.8889 50.3633 79.5129 50.1523 80.0451 49.7302C80.5773 49.2897 81.0177 48.7025 81.3664 47.9684C81.7334 47.2343 82.0087 46.381 82.1922 45.4083C82.3758 44.4173 82.4675 43.3804 82.4675 42.2977C82.4675 41.2149 82.3758 40.1872 82.1922 39.2146C82.0087 38.2236 81.7334 37.3611 81.3664 36.627C81.0177 35.8929 80.5773 35.3148 80.0451 34.8927C79.5129 34.4523 78.8889 34.2321 78.1732 34.2321C77.4758 34.2321 76.861 34.4523 76.3288 34.8927C75.7966 35.3148 75.347 35.8929 74.98 36.627C74.6313 37.3611 74.3652 38.2236 74.1817 39.2146C73.9982 40.1872 73.9064 41.2149 73.9064 42.2977ZM68.8413 42.2977C68.8413 41.0498 69.034 39.8661 69.4194 38.7466C69.8231 37.6272 70.4104 36.6545 71.1812 35.8287C71.9703 34.9845 72.9429 34.3147 74.0991 33.8192C75.2736 33.3237 76.6316 33.0759 78.1732 33.0759C79.7148 33.0759 81.0636 33.3237 82.2198 33.8192C83.3943 34.3147 84.3669 34.9845 85.1377 35.8287C85.9268 36.6545 86.5141 37.6272 86.8995 38.7466C87.3032 39.8661 87.5051 41.0498 87.5051 42.2977C87.5051 43.5456 87.3032 44.7293 86.8995 45.8488C86.5141 46.9682 85.9268 47.95 85.1377 48.7942C84.3669 49.6201 83.3943 50.2807 82.2198 50.7762C81.0636 51.2717 79.7148 51.5195 78.1732 51.5195C76.6316 51.5195 75.2736 51.2717 74.0991 50.7762C72.9429 50.2807 71.9703 49.6201 71.1812 48.7942C70.4104 47.95 69.8231 46.9682 69.4194 45.8488C69.034 44.7293 68.8413 43.5456 68.8413 42.2977ZM115.264 51.3818L115.347 51.024C116.062 51.024 116.411 50.4275 116.393 49.2347L116.145 36.8472L109.869 51.5745H108.74C107.657 49.4457 106.584 47.3261 105.519 45.2156C104.473 43.0868 103.418 40.958 102.354 38.8292L101.968 48.7942C101.931 49.4549 102.032 49.9871 102.271 50.3908C102.51 50.7946 102.831 50.9964 103.234 50.9964H103.482V51.4094H99.3805V50.9964C100.151 50.9964 100.546 50.4 100.564 49.2071L101.087 35.3882C101.106 34.2137 100.766 33.6265 100.069 33.6265V33.2135H104.693L110.86 46.1791L116.035 33.2135H121.265V33.6265C120.549 33.6265 120.219 34.2229 120.274 35.4158C120.366 37.7648 120.467 40.1046 120.577 42.4353C120.687 44.766 120.788 47.1059 120.88 49.4549C120.99 50.4642 121.384 50.9689 122.063 50.9689V51.3818H115.264ZM110.915 46.2617V46.2342V46.2617ZM123.583 51.3818L123.555 50.9139C124.234 50.9139 124.803 50.4275 125.262 49.4549L131.649 32.7731H132.805L140.595 49.1521C141.182 50.345 141.825 50.9414 142.522 50.9414V51.3543H135.227V50.9414H135.42C135.713 50.9414 135.888 50.8129 135.943 50.556C135.998 50.2807 135.934 49.9137 135.75 49.4549L133.686 45.0505L128.345 45.078L126.886 49.097C126.721 49.6659 126.684 50.1247 126.776 50.4734C126.868 50.8038 127.097 50.9689 127.464 50.9689H127.685V51.3818H123.583ZM133.135 43.8668L130.63 38.5814L128.731 43.8392L133.135 43.8668ZM144.84 33.6265L144.867 33.186H153.594C154.786 33.186 155.86 33.2961 156.814 33.5164C157.787 33.7366 158.613 34.0577 159.292 34.4798C159.989 34.8836 160.521 35.3791 160.888 35.9663C161.274 36.5352 161.467 37.1684 161.467 37.8657C161.467 38.8934 161.09 39.7835 160.338 40.5359C159.585 41.2883 158.549 41.8664 157.227 42.2702C157.613 42.8024 158.237 43.6741 159.099 44.8853C159.962 46.0965 160.999 47.583 162.21 49.3448C162.412 49.6201 162.577 49.8403 162.705 50.0055C162.834 50.1523 162.981 50.2624 163.146 50.3358C163.311 50.3908 163.513 50.4275 163.751 50.4459C163.99 50.4642 164.311 50.4734 164.715 50.4734V51.3818H163.201C161.935 51.3818 160.934 51.3635 160.2 51.3268C159.466 51.2901 158.861 51.18 158.383 50.9964C157.925 50.7946 157.521 50.5009 157.172 50.1156C156.824 49.7118 156.411 49.1613 155.933 48.4639C155.071 47.216 154.309 46.1149 153.649 45.1606C153.006 44.2063 152.483 43.4355 152.08 42.8482H150.511V49.1796C150.511 50.3725 150.878 50.9689 151.612 50.9689V51.3818H144.84V50.9689C145.574 50.9689 145.941 50.3725 145.941 49.1796V35.4158C145.941 34.2229 145.574 33.6265 144.84 33.6265ZM152.988 41.6921C154.089 41.6921 154.97 41.3434 155.631 40.646C156.31 39.9487 156.649 39.0219 156.649 37.8657C156.649 36.8013 156.374 35.948 155.823 35.3057C155.273 34.6633 154.53 34.3422 153.594 34.3422H150.538V41.6646L152.988 41.6921ZM177.824 37.4803H177.466C177.374 37.3519 177.282 37.2142 177.19 37.0674C177.117 36.9023 177.034 36.7554 176.943 36.627C176.631 36.0948 176.218 35.6176 175.704 35.1955C175.19 34.7734 174.667 34.489 174.135 34.3422C174.135 34.3238 174.098 34.3147 174.025 34.3147C173.951 34.2963 173.869 34.278 173.777 34.2596C173.667 34.2412 173.538 34.2229 173.392 34.2045C172.419 34.2045 171.639 34.4798 171.052 35.0304C170.483 35.5809 170.198 36.3058 170.198 37.2051C170.198 37.7373 170.62 38.3062 171.465 38.9118C172.309 39.499 173.419 40.0312 174.795 40.5084C175.456 40.7286 176.053 41.0222 176.585 41.3893C177.135 41.7563 177.603 42.1784 177.989 42.6556C178.374 43.1143 178.668 43.619 178.87 44.1696C179.09 44.7201 179.2 45.289 179.2 45.8763C179.2 46.7205 179.035 47.4913 178.704 48.1886C178.392 48.886 177.943 49.4824 177.356 49.9779C176.768 50.4734 176.062 50.8588 175.236 51.1341C174.428 51.391 173.52 51.5195 172.511 51.5195C171.501 51.5195 170.51 51.4185 169.538 51.2167C168.565 50.9964 167.776 50.712 167.17 50.3633V47.115H167.528C167.583 47.2068 167.638 47.3077 167.693 47.4178C167.767 47.5096 167.831 47.6014 167.886 47.6931C168.29 48.3354 168.813 48.8952 169.455 49.3723C170.116 49.8311 170.813 50.1339 171.547 50.2807C172.134 50.3725 172.694 50.3817 173.226 50.3083C173.759 50.2348 174.227 50.088 174.63 49.8678C175.034 49.6476 175.346 49.354 175.566 48.9869C175.805 48.6199 175.924 48.207 175.924 47.7482C175.924 47.1242 175.493 46.4819 174.63 45.8212C173.786 45.1422 172.648 44.5641 171.217 44.087C169.951 43.6649 168.932 42.9951 168.161 42.0775C167.391 41.1599 167.005 40.1505 167.005 39.0494C167.005 38.1502 167.161 37.3335 167.473 36.5995C167.785 35.8654 168.226 35.2414 168.794 34.7276C169.382 34.1954 170.079 33.7916 170.887 33.5164C171.694 33.2227 172.593 33.0759 173.584 33.0759C174.263 33.0759 174.988 33.186 175.759 33.4062C176.53 33.6081 177.218 33.8834 177.824 34.2321L177.438 34.9203L177.824 34.2321V37.4803ZM189.749 50.9689V51.3818H182.949V50.9689C183.683 50.9689 184.05 50.3725 184.05 49.1796V35.4158C184.05 34.2229 183.683 33.6265 182.949 33.6265V33.2135H189.749V33.6265C189.014 33.6265 188.647 34.2229 188.647 35.4158V49.1796C188.647 50.3725 189.014 50.9689 189.749 50.9689ZM200.16 33.2135V33.6265C199.425 33.6265 199.058 34.2229 199.058 35.4158V50.2257H203.545C204.298 50.2257 205.004 50.0513 205.665 49.7026C206.326 49.354 206.83 48.8952 207.179 48.3263L207.399 47.9959C207.436 48.0143 207.473 48.0235 207.509 48.0235C207.62 48.0602 207.72 48.0877 207.812 48.106C207.849 48.1427 207.886 48.1427 207.922 48.106C207.831 48.5098 207.739 48.9594 207.647 49.4549C207.574 49.9504 207.5 50.4 207.427 50.8038L207.344 51.3818H193.36V50.9689C194.094 50.9689 194.461 50.3725 194.461 49.1796V35.4158C194.461 34.2229 194.094 33.6265 193.36 33.6265V33.2135H200.16ZM218.691 50.9689V51.3818H211.892V50.9689C212.626 50.9689 212.993 50.3725 212.993 49.1796V35.4158C212.993 34.2229 212.626 33.6265 211.892 33.6265V33.2135H218.691V33.6265C217.957 33.6265 217.59 34.2229 217.59 35.4158V49.1796C217.59 50.3725 217.957 50.9689 218.691 50.9689ZM227.747 41.6186C224.669 41.6186 222.064 40.1303 222.064 36.105C222.064 32.0628 224.669 30.5744 227.747 30.5744C230.859 30.5744 233.464 32.0628 233.464 36.105C233.464 40.1303 230.859 41.6186 227.747 41.6186ZM228.035 37.2889H227.51V39.2677H225.024V32.9253H228.897C230.741 32.9253 231.299 33.8555 231.299 35.1578C231.299 35.8682 230.994 36.5954 230.385 36.9337L231.282 38.8956C231.806 38.236 232.111 37.3227 232.111 36.105C232.111 33.0268 230.132 31.8767 227.781 31.8767C225.396 31.8767 223.417 33.0268 223.417 36.105C223.417 39.1662 225.396 40.3163 227.781 40.3163C228.999 40.3163 230.132 40.0119 230.927 39.2677H228.643L228.035 37.2889ZM228.813 35.1578C228.813 34.9041 228.711 34.7688 228.457 34.7519H227.51V35.5807H228.491C228.711 35.5807 228.813 35.4285 228.813 35.1578Z" fill="url(#paint0_linear_46_357)"/>
<path d="M34.6456 22.7623L34.3787 22.3012L34.6456 22.7623ZM34.3059 20.2384H34.6214V22.7623C34.2654 22.9726 33.8529 23.1587 33.3837 23.3205C32.9145 23.4823 32.4049 23.6279 31.8548 23.7573C31.3209 23.8706 30.7627 23.9596 30.1802 24.0243C29.5978 24.089 29.0154 24.1213 28.4329 24.1213C26.9121 24.1213 25.5207 23.9272 24.2587 23.5389C23.013 23.1506 21.9451 22.6005 21.0553 21.8886C20.1655 21.1768 19.4779 20.3193 18.9925 19.3162C18.5071 18.3131 18.2644 17.2048 18.2644 15.9914C18.2644 14.778 18.5071 13.6697 18.9925 12.6666C19.4779 11.6635 20.1655 10.806 21.0553 10.0942C21.9451 9.3823 23.013 8.83221 24.2587 8.44392C25.5207 8.05562 26.9121 7.86147 28.4329 7.86147C29.0154 7.86147 29.5978 7.89383 30.1802 7.95855C30.7627 8.02326 31.3209 8.12034 31.8548 8.24977C32.4049 8.36302 32.9145 8.50054 33.3837 8.66233C33.8529 8.82412 34.2654 9.01018 34.6214 9.22051V11.7444H34.3059C34.2573 11.6635 34.2007 11.5745 34.136 11.4775C34.0875 11.3804 34.0389 11.2914 33.9904 11.2105C33.6506 10.6443 33.141 10.1589 32.4615 9.75441C31.782 9.34994 31.0539 9.09917 30.2773 9.00209C30.2773 8.98591 30.1883 8.96973 30.0104 8.95356C29.8324 8.93738 29.6302 8.92929 29.4037 8.92929C29.1933 8.91311 28.983 8.90502 28.7727 8.90502C28.5785 8.88884 28.4653 8.88075 28.4329 8.88075C27.5754 8.88075 26.7907 9.05063 26.0789 9.39039C25.3832 9.73015 24.7846 10.2155 24.283 10.8465C23.7976 11.4613 23.4174 12.2055 23.1424 13.0792C22.8673 13.9529 22.7298 14.9236 22.7298 15.9914C22.7298 17.0592 22.8673 18.03 23.1424 18.9036C23.4174 19.7773 23.7976 20.5296 24.283 21.1606C24.7846 21.7754 25.3832 22.2527 26.0789 22.5924C26.7907 22.9322 27.5754 23.1021 28.4329 23.1021C29.6949 23.1021 30.8274 22.8998 31.8305 22.4954C32.8336 22.0909 33.5536 21.5165 33.9904 20.7723C34.0389 20.6914 34.0875 20.6024 34.136 20.5053C34.2007 20.4083 34.2573 20.3193 34.3059 20.2384ZM48.9204 17.0835H48.6291L48.5321 16.9136C48.3864 16.6386 48.079 16.4121 47.6099 16.2341C47.1568 16.0561 46.6229 15.9671 46.0081 15.9671H43.3386V22.9807H47.0517C47.7797 22.9807 48.4673 22.8432 49.1145 22.5682C49.7617 22.2931 50.2713 21.9291 50.6434 21.4761L50.8618 21.2091H51.1288C51.0641 21.5489 50.9913 21.9291 50.9104 22.3497C50.8456 22.7704 50.7809 23.1506 50.7162 23.4904L50.6434 24H38.315V23.636C38.9622 23.636 39.2858 23.1102 39.2858 22.0585V9.92429C39.2858 8.87266 38.9622 8.34684 38.315 8.34684V7.98282H50.7405V10.7737H50.4735L50.3037 10.5067C50.0286 10.0537 49.5837 9.6897 48.9689 9.41466C48.3703 9.13961 47.7069 9.00209 46.9789 9.00209H43.3386V14.9479H46.0081C46.6229 14.9479 47.1649 14.8751 47.6341 14.7294C48.1033 14.5677 48.4026 14.3654 48.5321 14.1227L48.6291 13.9771H48.9204V17.0835ZM54.2643 8.34684L54.2885 7.95855H61.9816C63.0333 7.95855 63.9797 8.05562 64.821 8.24977C65.6785 8.44392 66.4066 8.72705 67.0052 9.09917C67.62 9.4551 68.0892 9.89194 68.4128 10.4097C68.7525 10.9112 68.9224 11.4694 68.9224 12.0842C68.9224 12.9902 68.5907 13.7749 67.9274 14.4382C67.2641 15.1016 66.35 15.6112 65.1851 15.9671C65.5248 16.4363 66.0749 17.2048 66.8353 18.2726C67.5957 19.3405 68.5099 20.651 69.5777 22.2041C69.7556 22.4468 69.9012 22.641 70.0145 22.7866C70.1277 22.916 70.2572 23.0131 70.4028 23.0778C70.5484 23.1263 70.7264 23.1587 70.9367 23.1749C71.147 23.1911 71.4302 23.1991 71.7861 23.1991V24H70.4513C69.335 24 68.4532 23.9838 67.8061 23.9515C67.1589 23.9191 66.625 23.822 66.2043 23.6602C65.7999 23.4823 65.4439 23.2234 65.1365 22.8837C64.8291 22.5277 64.4651 22.0423 64.0445 21.4275C63.284 20.3274 62.6126 19.3566 62.0302 18.5153C61.4639 17.674 61.0028 16.9945 60.6469 16.4768H59.2636V22.0585C59.2636 23.1102 59.5871 23.636 60.2343 23.636V24H54.2643V23.636C54.9114 23.636 55.235 23.1102 55.235 22.0585V9.92429C55.235 8.87266 54.9114 8.34684 54.2643 8.34684ZM61.4477 15.4575C62.4185 15.4575 63.1951 15.1501 63.7775 14.5353C64.3761 13.9205 64.6754 13.1035 64.6754 12.0842C64.6754 11.1458 64.4328 10.3935 63.9474 9.82722C63.462 9.26096 62.8068 8.97782 61.9816 8.97782H59.2878V15.4332L61.4477 15.4575ZM77.5668 24V23.636C78.214 23.636 78.5376 23.1102 78.5376 22.0585V9.00209H76.3291C75.7467 9.00209 75.1724 9.15579 74.6061 9.46319C74.056 9.77059 73.603 10.1751 73.2471 10.6766L73.0529 10.9678H72.7617C72.794 10.5957 72.8345 10.1832 72.883 9.73015C72.9154 9.27713 72.9477 8.86457 72.9801 8.49245L73.0286 7.98282H88.0751L88.1236 8.49245C88.156 8.86457 88.1883 9.27713 88.2207 9.73015C88.2692 10.1832 88.3097 10.5957 88.342 10.9678H88.0508L87.8567 10.6766C87.5007 10.1751 87.0396 9.77059 86.4734 9.46319C85.9233 9.15579 85.357 9.00209 84.7746 9.00209H82.5661V22.0585C82.5661 23.1102 82.8897 23.636 83.5369 23.636V24H77.5668ZM96.2827 23.636V24H90.2884V23.636C90.9355 23.636 91.2591 23.1102 91.2591 22.0585V9.92429C91.2591 8.87266 90.9355 8.34684 90.2884 8.34684V7.98282H96.2827V8.34684C95.6355 8.34684 95.3119 8.87266 95.3119 9.92429V22.0585C95.3119 23.1102 95.6355 23.636 96.2827 23.636ZM99.4667 8.34684V7.98282H112.62V10.7737H112.353L112.183 10.5067C111.908 10.0537 111.463 9.6897 110.849 9.41466C110.25 9.13961 109.587 9.00209 108.859 9.00209H104.49V15.0692H106.917C107.532 15.0692 108.074 14.9964 108.543 14.8508C109.012 14.689 109.312 14.4868 109.441 14.2441L109.538 14.0985H109.829V17.2048H109.538L109.441 17.035C109.295 16.7599 108.988 16.5334 108.519 16.3554C108.066 16.1775 107.532 16.0885 106.917 16.0885H104.49V22.0585C104.49 23.1102 104.895 23.636 105.704 23.636V24H99.4667V23.636C100.114 23.636 100.437 23.1102 100.437 22.0585V9.92429C100.437 8.87266 100.114 8.34684 99.4667 8.34684ZM120.585 23.636V24H114.591V23.636C115.238 23.636 115.562 23.1102 115.562 22.0585V9.92429C115.562 8.87266 115.238 8.34684 114.591 8.34684V7.98282H120.585V8.34684C119.938 8.34684 119.614 8.87266 119.614 9.92429V22.0585C119.614 23.1102 119.938 23.636 120.585 23.636ZM139.908 22.7623L139.641 22.3012L139.908 22.7623ZM139.568 20.2384H139.883V22.7623C139.527 22.9726 139.115 23.1587 138.646 23.3205C138.177 23.4823 137.667 23.6279 137.117 23.7573C136.583 23.8706 136.025 23.9596 135.442 24.0243C134.86 24.089 134.277 24.1213 133.695 24.1213C132.174 24.1213 130.783 23.9272 129.521 23.5389C128.275 23.1506 127.207 22.6005 126.317 21.8886C125.427 21.1768 124.74 20.3193 124.255 19.3162C123.769 18.3131 123.526 17.2048 123.526 15.9914C123.526 14.778 123.769 13.6697 124.255 12.6666C124.74 11.6635 125.427 10.806 126.317 10.0942C127.207 9.3823 128.275 8.83221 129.521 8.44392C130.783 8.05562 132.174 7.86147 133.695 7.86147C134.277 7.86147 134.86 7.89383 135.442 7.95855C136.025 8.02326 136.583 8.12034 137.117 8.24977C137.667 8.36302 138.177 8.50054 138.646 8.66233C139.115 8.82412 139.527 9.01018 139.883 9.22051V11.7444H139.568C139.519 11.6635 139.463 11.5745 139.398 11.4775C139.349 11.3804 139.301 11.2914 139.252 11.2105C138.913 10.6443 138.403 10.1589 137.723 9.75441C137.044 9.34994 136.316 9.09917 135.539 9.00209C135.539 8.98591 135.45 8.96973 135.272 8.95356C135.094 8.93738 134.892 8.92929 134.666 8.92929C134.455 8.91311 134.245 8.90502 134.035 8.90502C133.841 8.88884 133.727 8.88075 133.695 8.88075C132.837 8.88075 132.053 9.05063 131.341 9.39039C130.645 9.73015 130.047 10.2155 129.545 10.8465C129.06 11.4613 128.679 12.2055 128.404 13.0792C128.129 13.9529 127.992 14.9236 127.992 15.9914C127.992 17.0592 128.129 18.03 128.404 18.9036C128.679 19.7773 129.06 20.5296 129.545 21.1606C130.047 21.7754 130.645 22.2527 131.341 22.5924C132.053 22.9322 132.837 23.1021 133.695 23.1021C134.957 23.1021 136.089 22.8998 137.093 22.4954C138.096 22.0909 138.816 21.5165 139.252 20.7723C139.301 20.6914 139.349 20.6024 139.398 20.5053C139.463 20.4083 139.519 20.3193 139.568 20.2384ZM142.582 24L142.558 23.5874C143.156 23.5874 143.658 23.1587 144.062 22.3012L149.693 7.59452H150.712L157.58 22.0343C158.098 23.0859 158.664 23.6117 159.279 23.6117V23.9757H152.848V23.6117H153.017C153.276 23.6117 153.43 23.4985 153.479 23.2719C153.527 23.0293 153.47 22.7057 153.309 22.3012L151.489 18.4183L146.78 18.4425L145.494 21.9857C145.349 22.4873 145.316 22.8917 145.397 23.1991C145.478 23.4904 145.68 23.636 146.004 23.636H146.198V24H142.582ZM151.003 17.3747L148.795 12.7152L147.12 17.3504L151.003 17.3747ZM170.035 26.2327H170.059L169.986 26.3055L170.035 26.2327ZM177.558 20.2384H177.8V22.7623L177.558 22.3012L177.825 22.7623C177.178 23.1344 176.344 23.4418 175.325 23.6845C174.306 23.9272 173.262 24.0647 172.194 24.0971C172.016 24.1941 171.782 24.3559 171.491 24.5824C171.216 24.8089 170.892 25.1406 170.52 25.5774C170.73 25.448 170.957 25.3509 171.199 25.2862C171.442 25.2215 171.652 25.1892 171.83 25.1892C172.542 25.1892 173.109 25.3752 173.529 25.7473C173.966 26.1356 174.184 26.6372 174.184 27.252C174.184 27.8668 173.893 28.3602 173.311 28.7323C172.728 29.1206 171.952 29.3148 170.981 29.3148C170.625 29.3148 170.261 29.2096 169.889 28.9993C169.533 28.8052 169.217 28.5463 168.942 28.2227L169.209 27.8587C169.306 27.9881 169.444 28.0852 169.622 28.1499C169.816 28.2146 170.018 28.247 170.229 28.247C170.746 28.247 171.159 28.158 171.466 27.98C171.79 27.8021 171.952 27.5594 171.952 27.252C171.952 26.8475 171.863 26.5239 171.685 26.2812C171.507 26.0386 171.272 25.9172 170.981 25.9172C170.69 25.9172 170.358 26.0386 169.986 26.2812L169.743 26.1114C170.115 25.626 170.431 25.2053 170.69 24.8494C170.949 24.5096 171.143 24.2589 171.272 24.0971C169.8 24.0647 168.465 23.8463 167.268 23.4418C166.071 23.0374 165.043 22.4873 164.186 21.7916C163.345 21.0797 162.689 20.2303 162.22 19.2434C161.751 18.2565 161.516 17.1725 161.516 15.9914C161.516 14.778 161.759 13.6697 162.244 12.6666C162.73 11.6635 163.417 10.806 164.307 10.0942C165.197 9.3823 166.265 8.83221 167.511 8.44392C168.773 8.05562 170.164 7.86147 171.685 7.86147C172.267 7.86147 172.85 7.89383 173.432 7.95855C174.015 8.02326 174.573 8.12034 175.107 8.24977C175.657 8.36302 176.166 8.50054 176.636 8.66233C177.105 8.82412 177.517 9.01018 177.873 9.22051V11.7444H177.558C177.509 11.6635 177.453 11.5745 177.388 11.4775C177.339 11.3804 177.291 11.2914 177.242 11.2105C176.902 10.6443 176.393 10.1589 175.713 9.75441C175.034 9.34994 174.306 9.09917 173.529 9.00209C173.529 8.98591 173.44 8.96973 173.262 8.95356C173.084 8.93738 172.882 8.92929 172.656 8.92929C172.445 8.91311 172.235 8.90502 172.025 8.90502C171.83 8.88884 171.717 8.88075 171.685 8.88075C170.827 8.88075 170.043 9.05063 169.331 9.39039C168.635 9.73015 168.036 10.2155 167.535 10.8465C167.049 11.4613 166.669 12.2055 166.394 13.0792C166.119 13.9529 165.982 14.9236 165.982 15.9914C165.982 17.0592 166.119 18.03 166.394 18.9036C166.669 19.7773 167.049 20.5296 167.535 21.1606C168.036 21.7754 168.635 22.2527 169.331 22.5924C170.043 22.9322 170.827 23.1021 171.685 23.1021C172.947 23.1021 174.079 22.8998 175.082 22.4954C176.085 22.0909 176.805 21.5165 177.242 20.7723C177.291 20.6914 177.339 20.6024 177.388 20.5053C177.453 20.4083 177.509 20.3193 177.558 20.2384ZM184.795 5.67731H184.188C184.188 4.57714 184.39 3.69539 184.795 3.03205C185.215 2.36871 185.765 2.03704 186.445 2.03704C186.736 2.03704 187.052 2.11794 187.391 2.27973C187.731 2.44152 188.079 2.61949 188.435 2.81363C188.791 2.9916 189.139 3.16148 189.478 3.32327C189.818 3.48506 190.134 3.56596 190.425 3.56596C190.748 3.56596 191.007 3.43653 191.201 3.17766C191.396 2.90262 191.493 2.53859 191.493 2.08558H192.099C192.099 3.25047 191.873 4.18885 191.42 4.90072C190.983 5.6126 190.393 5.96853 189.648 5.96853C189.357 5.96853 189.042 5.89573 188.702 5.75012C188.362 5.58833 188.014 5.41036 187.658 5.21621C187.302 5.02206 186.954 4.85219 186.615 4.70657C186.275 4.54478 185.959 4.46389 185.668 4.46389C185.393 4.46389 185.175 4.57714 185.013 4.80365C184.867 5.01398 184.795 5.3052 184.795 5.67731ZM180.523 24L180.499 23.5874C181.098 23.5874 181.599 23.1587 182.004 22.3012L187.634 7.59452H188.653L195.521 22.0343C196.039 23.0859 196.605 23.6117 197.22 23.6117V23.9757H190.789V23.6117H190.959C191.218 23.6117 191.371 23.4985 191.42 23.2719C191.468 23.0293 191.412 22.7057 191.25 22.3012L189.43 18.4183L184.722 18.4425L183.436 21.9857C183.29 22.4873 183.258 22.8917 183.338 23.1991C183.419 23.4904 183.622 23.636 183.945 23.636H184.139V24H180.523ZM188.945 17.3747L186.736 12.7152L185.062 17.3504L188.945 17.3747ZM203.899 15.9914C203.899 16.946 203.98 17.8601 204.141 18.7337C204.303 19.5912 204.538 20.3436 204.845 20.9907C205.169 21.6379 205.565 22.1556 206.034 22.5439C206.504 22.916 207.046 23.1021 207.66 23.1021C208.291 23.1021 208.841 22.916 209.311 22.5439C209.78 22.1556 210.168 21.6379 210.475 20.9907C210.799 20.3436 211.042 19.5912 211.204 18.7337C211.365 17.8601 211.446 16.946 211.446 15.9914C211.446 15.0368 211.365 14.1308 211.204 13.2733C211.042 12.3997 210.799 11.6393 210.475 10.9921C210.168 10.3449 209.78 9.83531 209.311 9.46319C208.841 9.0749 208.291 8.88075 207.66 8.88075C207.046 8.88075 206.504 9.0749 206.034 9.46319C205.565 9.83531 205.169 10.3449 204.845 10.9921C204.538 11.6393 204.303 12.3997 204.141 13.2733C203.98 14.1308 203.899 15.0368 203.899 15.9914ZM199.433 15.9914C199.433 14.8912 199.603 13.8477 199.943 12.8608C200.299 11.8739 200.817 11.0164 201.496 10.2883C202.192 9.54409 203.049 8.95356 204.069 8.51672C205.104 8.07989 206.301 7.86147 207.66 7.86147C209.019 7.86147 210.209 8.07989 211.228 8.51672C212.263 8.95356 213.121 9.54409 213.8 10.2883C214.496 11.0164 215.014 11.8739 215.353 12.8608C215.709 13.8477 215.887 14.8912 215.887 15.9914C215.887 17.0916 215.709 18.1351 215.353 19.122C215.014 20.109 214.496 20.9745 213.8 21.7188C213.121 22.4468 212.263 23.0293 211.228 23.4661C210.209 23.9029 209.019 24.1213 207.66 24.1213C206.301 24.1213 205.104 23.9029 204.069 23.4661C203.049 23.0293 202.192 22.4468 201.496 21.7188C200.817 20.9745 200.299 20.109 199.943 19.122C199.603 18.1351 199.433 17.0916 199.433 15.9914Z" fill="url(#paint1_linear_46_357)"/>
<path d="M11.7564 76.5576L11.2774 74.9037H9.10834L8.62934 76.5576H7.52673L9.67772 69.6979H10.708L12.859 76.5576H11.7564ZM11.0605 74.0722L10.1929 71.0717L9.32524 74.0722H11.0605ZM22.9257 76.5576H21.9135V73.5119H19.166V76.5576H18.1537V69.7793H19.166V72.581H21.9135V69.7793H22.9257V76.5576ZM26.5443 76.5576H25.5321V69.7793H26.5443V76.5576ZM31.349 72.6171C32.7589 72.8069 33.5814 73.1233 33.5814 74.506C33.5814 75.7894 32.8222 76.6661 31.0056 76.6661C30.3278 76.6661 29.4601 76.5124 28.9992 76.2774V75.2652C29.3698 75.4279 30.0205 75.7081 30.9423 75.7081C32.1624 75.7081 32.524 75.211 32.524 74.5693C32.524 73.8192 32.2076 73.6384 31.2948 73.5209C29.6409 73.3131 28.9992 72.8702 28.9992 71.632C28.9992 70.6379 29.5596 69.6708 31.4033 69.6708C32.2799 69.6708 32.8945 69.8245 33.2379 69.9962V70.9813C32.7409 70.7644 32.1263 70.6288 31.4575 70.6288C30.4001 70.6288 30.0386 71.0626 30.0386 71.6411C30.0386 72.3731 30.4543 72.4997 31.349 72.6171ZM39.8306 70.7102H38.0682V76.5576H37.056V70.7102H35.2936V69.7793H39.8306V70.7102ZM44.2265 76.6661C42.0484 76.6661 41.6146 75.0845 41.6146 73.1684C41.6146 71.2524 42.0484 69.6708 44.2265 69.6708C46.4046 69.6708 46.8384 71.2524 46.8384 73.1684C46.8384 75.0845 46.4046 76.6661 44.2265 76.6661ZM44.2265 70.5927C42.9431 70.5927 42.6539 71.5597 42.6539 73.1684C42.6539 74.7772 42.9431 75.7442 44.2265 75.7442C45.5098 75.7442 45.799 74.7772 45.799 73.1684C45.799 71.5597 45.5098 70.5927 44.2265 70.5927ZM44.6512 69.3726H43.8017L44.3259 68.3784H45.546L44.6512 69.3726ZM50.2157 73.8011V76.5576H49.2035V69.7793H51.4087C53.162 69.7793 53.7224 70.5656 53.7224 71.7947C53.7224 72.6714 53.4512 73.3131 52.6197 73.6023L54.0387 76.5576H52.8547L51.6256 73.8011H50.2157ZM50.2157 70.7102V72.8792H51.5533C52.4932 72.8792 52.6197 72.346 52.6197 71.7947C52.6197 71.2344 52.4932 70.7102 51.5533 70.7102H50.2157ZM57.3293 76.5576H56.317V69.7793H57.3293V76.5576ZM63.8331 76.5576L63.3541 74.9037H61.185L60.706 76.5576H59.6034L61.7544 69.6979H62.7847L64.9357 76.5576H63.8331ZM63.1372 74.0722L62.2696 71.0717L61.4019 74.0722H63.1372ZM66.8485 76.0063C66.8485 75.6448 67.1468 75.3466 67.5083 75.3466C67.8698 75.3466 68.168 75.6448 68.168 76.0063C68.168 76.3678 67.8698 76.6661 67.5083 76.6661C67.1468 76.6661 66.8485 76.3678 66.8485 76.0063ZM76.0935 76.6661C73.9154 76.6661 73.4816 75.0845 73.4816 73.1684C73.4816 71.2524 73.9154 69.6708 76.0935 69.6708C78.2716 69.6708 78.7054 71.2524 78.7054 73.1684C78.7054 75.0845 78.2716 76.6661 76.0935 76.6661ZM76.0935 70.5927C74.8101 70.5927 74.5209 71.5597 74.5209 73.1684C74.5209 74.7772 74.8101 75.7442 76.0935 75.7442C77.3768 75.7442 77.666 74.7772 77.666 73.1684C77.666 71.5597 77.3768 70.5927 76.0935 70.5927ZM89.5406 71.4603L87.8506 75.6267H86.8926L85.2025 71.4603L85.2477 76.5576H84.2355V69.7793H85.5369L87.3716 74.3976L89.2062 69.7793H90.5077V76.5576H89.4954L89.5406 71.4603ZM95.4912 76.6661C93.3131 76.6661 92.8792 75.0845 92.8792 73.1684C92.8792 71.2524 93.3131 69.6708 95.4912 69.6708C97.6693 69.6708 98.1031 71.2524 98.1031 73.1684C98.1031 75.0845 97.6693 76.6661 95.4912 76.6661ZM95.4912 70.5927C94.2078 70.5927 93.9186 71.5597 93.9186 73.1684C93.9186 74.7772 94.2078 75.7442 95.4912 75.7442C96.7745 75.7442 97.0637 74.7772 97.0637 73.1684C97.0637 71.5597 96.7745 70.5927 95.4912 70.5927ZM104.196 69.7793H105.299L103.148 76.639H102.117L99.9663 69.7793H101.069L102.632 75.2923L104.196 69.7793ZM108.585 76.5576H107.573V69.7793H108.585V76.5576ZM116.49 71.4603L114.8 75.6267H113.842L112.152 71.4603L112.197 76.5576H111.185V69.7793H112.486L114.321 74.3976L116.155 69.7793H117.457V76.5576H116.445L116.49 71.4603ZM123.751 72.581V73.5119H120.931V75.6267H124.04V76.5576H119.919V69.7793H124.04V70.7102H120.931V72.581H123.751ZM131.229 76.5576H130.307L127.361 71.7405L127.388 76.5576H126.385V69.7793H127.307L130.253 74.5964L130.226 69.7793H131.229V76.5576ZM137.919 70.7102H136.156V76.5576H135.144V70.7102H133.382V69.7793H137.919V70.7102ZM142.315 76.6661C140.137 76.6661 139.703 75.0845 139.703 73.1684C139.703 71.2524 140.137 69.6708 142.315 69.6708C144.493 69.6708 144.927 71.2524 144.927 73.1684C144.927 75.0845 144.493 76.6661 142.315 76.6661ZM142.315 70.5927C141.031 70.5927 140.742 71.5597 140.742 73.1684C140.742 74.7772 141.031 75.7442 142.315 75.7442C143.598 75.7442 143.887 74.7772 143.887 73.1684C143.887 71.5597 143.598 70.5927 142.315 70.5927ZM147.075 76.0063C147.075 75.6448 147.373 75.3466 147.734 75.3466C148.096 75.3466 148.394 75.6448 148.394 76.0063C148.394 76.3678 148.096 76.6661 147.734 76.6661C147.373 76.6661 147.075 76.3678 147.075 76.0063ZM157.702 76.5576L157.223 74.9037H155.054L154.575 76.5576H153.473L155.624 69.6979H156.654L158.805 76.5576H157.702ZM157.007 74.0722L156.139 71.0717L155.271 74.0722H157.007ZM165.112 73.8011V76.5576H164.1V69.7793H166.305C168.058 69.7793 168.619 70.5656 168.619 71.7947C168.619 72.6714 168.348 73.3131 167.516 73.6023L168.935 76.5576H167.751L166.522 73.8011H165.112ZM165.112 70.7102V72.8792H166.45C167.39 72.8792 167.516 72.346 167.516 71.7947C167.516 71.2344 167.39 70.7102 166.45 70.7102H165.112ZM174.901 72.581V73.5119H172.081V75.6267H175.19V76.5576H171.069V69.7793H175.19V70.7102H172.081V72.581H174.901ZM181.439 69.7793H182.542L180.391 76.639H179.36L177.209 69.7793H178.312L179.875 75.2923L181.439 69.7793ZM187.016 76.6661C184.838 76.6661 184.404 75.0845 184.404 73.1684C184.404 71.2524 184.838 69.6708 187.016 69.6708C189.194 69.6708 189.628 71.2524 189.628 73.1684C189.628 75.0845 189.194 76.6661 187.016 76.6661ZM187.016 70.5927C185.733 70.5927 185.444 71.5597 185.444 73.1684C185.444 74.7772 185.733 75.7442 187.016 75.7442C188.3 75.7442 188.589 74.7772 188.589 73.1684C188.589 71.5597 188.3 70.5927 187.016 70.5927ZM193.006 69.7793V75.6267H195.952V76.5576H191.993V69.7793H193.006ZM200.502 76.6661C199.58 76.6661 198.043 76.3226 198.043 74.4247V69.7793H199.056V74.3343C199.056 75.6087 199.941 75.7442 200.502 75.7442C201.062 75.7442 201.948 75.6087 201.948 74.3343V69.7793H202.96V74.4247C202.96 76.3226 201.423 76.6661 200.502 76.6661ZM207.49 77.4072L207.571 76.6299C205.936 76.4311 205.285 75.1929 205.285 73.1684C205.285 70.9452 206.071 69.6708 208.078 69.6708C208.882 69.6708 209.343 69.8245 209.668 69.96V70.9271C209.153 70.7192 208.755 70.6198 208.141 70.6198C206.848 70.6198 206.324 71.4965 206.324 73.1684C206.324 74.8404 206.848 75.7171 208.141 75.7171C208.755 75.7171 209.153 75.6177 209.668 75.4098V76.3769C209.343 76.5124 208.882 76.6661 208.078 76.6661L208.105 77.0999C208.566 77.2083 208.945 77.4433 208.945 77.9404C208.945 78.5188 208.502 78.8171 207.87 78.8171C207.427 78.8171 207.12 78.7086 206.993 78.6453V77.9585C207.083 77.9946 207.391 78.1212 207.734 78.1212C208.041 78.1212 208.222 78.0489 208.222 77.85C208.222 77.5698 207.987 77.4704 207.49 77.4072ZM215.851 76.5576L215.372 74.9037H213.203L212.724 76.5576H211.622L213.773 69.6979H214.803L216.954 76.5576H215.851ZM215.436 68.3784H216.077C216.077 69.1286 215.725 69.5353 215.002 69.5353C214.342 69.5353 213.999 68.9659 213.547 68.9659C213.203 68.9659 213.14 69.1918 213.14 69.3726H212.498C212.498 68.6224 212.851 68.2157 213.574 68.2157C214.234 68.2157 214.577 68.7851 215.029 68.7851C215.372 68.7851 215.436 68.5592 215.436 68.3784ZM215.155 74.0722L214.288 71.0717L213.42 74.0722H215.155ZM221.429 76.6661C219.251 76.6661 218.817 75.0845 218.817 73.1684C218.817 71.2524 219.251 69.6708 221.429 69.6708C223.607 69.6708 224.041 71.2524 224.041 73.1684C224.041 75.0845 223.607 76.6661 221.429 76.6661ZM221.429 70.5927C220.145 70.5927 219.856 71.5597 219.856 73.1684C219.856 74.7772 220.145 75.7442 221.429 75.7442C222.712 75.7442 223.001 74.7772 223.001 73.1684C223.001 71.5597 222.712 70.5927 221.429 70.5927ZM226.189 76.0063C226.189 75.6448 226.487 75.3466 226.849 75.3466C227.21 75.3466 227.508 75.6448 227.508 76.0063C227.508 76.3678 227.21 76.6661 226.849 76.6661C226.487 76.6661 226.189 76.3678 226.189 76.0063Z" fill="#515151"/>
<line x1="8.86523" y1="60.4541" x2="227.214" y2="60.4541" stroke="url(#paint2_linear_46_357)" stroke-width="0.521503"/>
<defs>
<linearGradient id="paint0_linear_46_357" x1="293.774" y1="42.3818" x2="-1.22554" y2="42.3818" gradientUnits="userSpaceOnUse">
<stop stop-color="#775E30"/>
<stop offset="1" stop-color="#DDAF59"/>
</linearGradient>
<linearGradient id="paint1_linear_46_357" x1="266.498" y1="16.5" x2="16.4978" y2="16.5" gradientUnits="userSpaceOnUse">
<stop stop-color="#775E30"/>
<stop offset="1" stop-color="#DDAF59"/>
</linearGradient>
<linearGradient id="paint2_linear_46_357" x1="8.86523" y1="61.2148" x2="227.214" y2="61.2148" gradientUnits="userSpaceOnUse">
<stop stop-color="#999999"/>
<stop offset="1"/>
</linearGradient>
</defs>
</svg>
