<svg width="277" height="66" viewBox="0 0 277 66" fill="none" xmlns="http://www.w3.org/2000/svg">
<path d="M0.83119 9.62735C7.59106 7.75722 16.9682 3.76971 21.6979 0.972813C22.4579 0.464442 23.3026 0.040474 23.6407 0.0399547C23.9789 0.0394354 23.9795 0.462105 23.9805 1.13838C23.9821 2.15278 23.5715 10.0151 23.5927 23.7942L23.6185 40.6164C23.6336 50.4224 23.9877 60.8196 24.4168 65.0456C22.4723 64.8795 20.9507 64.8819 18.4146 64.8858C14.6951 64.8915 11.8212 65.065 10.2154 65.2365C10.6321 61.3473 11.0393 51.2871 11.0229 40.6358L11.0016 26.7722C10.9838 15.191 10.8136 14.4305 10.4755 14.431C10.0528 14.4316 3.12594 17.6546 0 18.8429C0.3358 17.3207 0.917153 10.5571 0.83119 9.62735Z" fill="white"/>
<path d="M75.8322 53.47C74.2325 57.6992 73.311 63.1108 72.9756 64.8865C72.2996 65.0566 71.3698 65.1426 66.3823 65.1502C56.7454 65.165 47.2771 64.8414 35.7804 64.8591C32.23 64.8645 29.6096 64.9531 28.5109 65.1239C28.5103 64.7012 29.7733 61.4869 30.5315 59.7951C30.7841 59.1184 31.29 58.2723 31.5434 58.1029C45.9796 45.6541 58.5587 34.899 58.1158 21.7123C57.8479 12.414 52.1789 9.04129 46.0079 9.05077C39.4143 9.0609 34.4317 12.2808 32.0692 15.1586C31.8941 11.2703 31.3792 6.28361 31.1225 4.25518C34.6706 2.72811 40.2457 0.0144543 49.629 4.43967e-05C64.8451 -0.0233231 71.3684 9.18089 71.3848 19.8322C71.4073 34.5411 59.0812 44.8732 47.0933 55.2893C46.9245 55.4587 46.8403 55.6279 47.1784 55.6274L52.7576 55.6188C55.6318 55.6144 61.0419 55.5215 65.3527 55.2613C71.2694 54.8295 73.5509 54.2343 75.8322 53.47Z" fill="white"/>
<path d="M99.8025 36.8295C95.1328 36.8367 90.5005 35.8709 86.6819 32.6469C82.9021 29.345 81.8056 24.8715 81.7999 21.1357C81.7955 18.2949 82.6447 13.7795 86.4143 10.466C89.4844 7.77621 93.3348 6.33046 99.0163 6.32173C104.192 6.31379 107.423 7.39843 109.058 7.70723C108.749 8.83623 108.325 11.4052 108.328 13.4288C106.496 11.6026 103.069 10.0513 98.5161 10.0583C95.2862 10.0633 93.1086 11.0784 91.5929 12.3649C89.1834 14.47 88.3706 17.3509 88.3755 20.5419C88.385 26.7293 92.0909 32.5607 100.535 32.5478C103.648 32.543 106.8 31.9934 109.054 30.4722C108.667 31.6403 108.204 34.2871 108.05 35.5716C106.534 36.1965 103.149 36.8244 99.8025 36.8295Z" fill="white"/>
<path d="M126.482 28.5776L117.181 28.5918C117.065 28.592 117.026 28.631 116.987 28.7089C115.979 31.4344 114.933 34.4714 114.508 36.2232C113.885 36.1852 113.224 36.1473 111.862 36.1494C110.344 36.1518 108.982 36.2317 108.476 36.3103C109.563 34.2461 111.231 30.7413 113.441 25.8736L121.236 8.27225C121.973 6.71454 122.206 6.28612 122.517 6.28564C122.751 6.28528 123.063 6.63504 123.804 8.26831C124.39 9.51267 128.412 18.1455 131.809 25.8454C133.644 29.9675 135.83 34.5171 137.078 36.1885C135.833 36.1515 134.627 36.1145 134.121 36.1152C132.447 36.1178 130.541 36.1986 129.801 36.2775C129.098 34.4885 127.614 30.8329 126.638 28.6941C126.599 28.6163 126.599 28.5774 126.482 28.5776ZM118.421 24.8541L125.075 24.8439C125.192 24.8438 125.231 24.7659 125.192 24.6492L121.676 16.0156L118.343 24.6597C118.304 24.7765 118.304 24.8543 118.421 24.8541Z" fill="white"/>
<path d="M137.24 36.2661C137.859 33.5411 139.475 21.7865 140.59 12.8344C140.859 10.6937 141.128 8.70867 141.398 6.91819C141.475 6.37327 141.592 6.25635 141.708 6.25617C141.942 6.25581 142.059 6.52803 142.332 6.91676C143.268 8.27733 144.751 10.8434 146.116 12.9038L154.465 26.7056L161.141 15.4102C163.975 11.0085 164.945 9.33365 165.993 7.50306C166.653 6.45135 166.886 6.21751 167.081 6.21721C167.314 6.21685 167.392 6.37239 167.549 7.38392C167.786 9.3682 168.023 11.5081 168.259 13.5313C169.324 22.5189 170.664 33.5297 171.407 36.1358C171.018 36.0975 170.162 36.0599 168.605 36.0623C166.971 36.0648 165.414 36.1061 164.636 36.224C164.631 32.9941 163.801 24.6677 163.403 18.9479C160.338 24.6341 156.301 31.2947 153.896 36.2405C153.663 36.7079 153.507 36.6303 153.312 36.2803C150.735 30.8363 146.561 23.8381 144.141 19.0553C143.722 25.2434 143.151 33.105 143.116 36.1793C142.455 36.1024 141.171 36.1044 140.626 36.1053C139.03 36.1077 137.824 36.1874 137.24 36.2661Z" fill="white"/>
<path d="M189.174 28.4813L179.873 28.4956C179.756 28.4957 179.717 28.5347 179.679 28.6126C178.671 31.3382 177.625 34.3751 177.2 36.1269C176.577 36.089 175.915 36.0511 174.553 36.0532C173.036 36.0555 171.674 36.1354 171.168 36.214C172.254 34.1499 173.922 30.645 176.133 25.7773L183.928 8.17597C184.665 6.61826 184.898 6.18985 185.209 6.18937C185.442 6.18901 185.754 6.53876 186.496 8.17203C187.082 9.4164 191.103 18.0492 194.501 25.7491C196.336 29.8712 198.522 34.4208 199.77 36.0923C198.525 36.0553 197.318 36.0182 196.812 36.019C195.139 36.0215 193.232 36.1023 192.493 36.1813C191.79 34.3923 190.306 30.7366 189.329 28.5978C189.29 28.52 189.29 28.4811 189.174 28.4813ZM181.113 24.7579L187.767 24.7477C187.884 24.7475 187.922 24.6696 187.883 24.5529L184.368 15.9193L181.034 24.5634C180.996 24.6802 180.996 24.7581 181.113 24.7579Z" fill="white"/>
<path d="M201.06 24.9218L201.049 17.9561C201.039 11.652 200.761 8.03338 200.487 6.71071C200.954 6.7489 202.238 6.82476 203.406 6.82297C204.534 6.82123 206.908 6.70085 210.06 6.65709C216.364 6.68633 221.385 7.61256 224.971 11.2261C226.92 13.2077 228.676 16.4739 228.683 21.1047C228.691 25.8912 226.673 29.6301 224.458 31.8516C222.282 33.9952 218.784 36.4522 211.701 36.4631C210.067 36.4656 208.393 36.3903 207.109 36.2756C204.891 36.0844 203.373 35.8922 200.766 36.0518C200.841 34.2616 201.069 30.7979 201.06 24.9218ZM206.886 17.5191L206.894 22.8893C206.9 27.0142 206.942 28.6486 206.982 29.5046C207.062 30.9054 207.063 31.7226 207.336 31.9557C207.764 32.3442 209.789 32.8859 212.163 32.8822C214.887 32.8781 217.493 32.3682 219.552 30.3025C221.534 28.3538 222.424 25.3171 222.42 22.1261C222.415 19.3632 221.866 16.64 220.111 14.23C217.928 11.3537 214.19 10.0363 210.104 10.0426C208.781 10.0446 207.614 10.2021 207.147 10.3584C206.991 10.4365 206.953 10.5144 206.953 10.6311C206.876 11.4095 206.88 14.0168 206.886 17.5191Z" fill="white"/>
<path d="M245.671 28.3945L236.37 28.4088C236.254 28.409 236.215 28.448 236.176 28.5258C235.168 31.2514 234.122 34.2883 233.697 36.0402C233.074 36.0022 232.413 35.9643 231.051 35.9664C229.533 35.9687 228.171 36.0486 227.665 36.1272C228.752 34.0631 230.42 30.5582 232.63 25.6905L240.425 8.08921C241.162 6.5315 241.395 6.10308 241.706 6.1026C241.94 6.10225 242.252 6.452 242.993 8.08527C243.579 9.32963 247.601 17.9625 250.998 25.6623C252.833 29.7844 255.019 34.3341 256.267 36.0055C255.022 35.9685 253.816 35.9314 253.31 35.9322C251.636 35.9348 249.73 36.0155 248.99 36.0945C248.287 34.3055 246.803 30.6498 245.827 28.511C245.788 28.4333 245.788 28.3943 245.671 28.3945ZM237.61 24.6711L244.264 24.6609C244.381 24.6607 244.42 24.5828 244.381 24.4661L240.865 15.8325L237.532 24.4767C237.493 24.5935 237.493 24.6713 237.61 24.6711Z" fill="white"/>
<path d="M256.049 34.8773C256.204 34.1377 256.51 30.9073 256.468 28.8838C257.872 30.6328 260.677 32.6521 263.867 32.6472C266.747 32.6428 268.068 31.0452 268.065 28.9828C268.062 27.3094 267.477 26.1429 264.516 24.2017L262.529 22.9206C258.05 20.0867 257.034 17.2864 257.029 14.3679C257.022 9.85379 260.597 6.07359 266.512 6.06451C268.185 6.06194 269.508 6.21557 270.559 6.40853C272.077 6.63968 272.973 6.75505 273.284 6.75457C273.168 7.22172 272.9 10.1018 272.904 12.6312C272.124 11.6985 270.176 9.83359 266.518 9.83921C263.988 9.84309 262.59 11.4018 262.592 13.1919C262.595 14.7485 262.986 15.8375 265.751 17.6622L267.699 18.9434C272.568 22.088 273.972 24.304 273.978 27.6506C273.981 30.0244 272.857 33.1003 270.019 34.8948C267.92 36.1822 265.313 36.5753 263.523 36.5781C260.916 36.5821 257.607 35.9256 256.049 34.8773Z" fill="white"/>
<path d="M84.8149 54.6482L84.8095 51.136C84.8046 47.9574 84.6645 46.1328 84.5261 45.4659C84.7616 45.4852 85.4091 45.5234 85.9978 45.5225C86.5668 45.5216 87.7636 45.4609 89.3529 45.4389C92.5316 45.4536 95.0634 45.9206 96.8714 47.7426C97.854 48.7418 98.7395 50.3886 98.7431 52.7236C98.7468 55.137 97.7294 57.0222 96.6127 58.1423C95.5155 59.2232 93.7515 60.462 90.1804 60.4675C89.3563 60.4688 88.5126 60.4308 87.865 60.373C86.7464 60.2766 85.981 60.1796 84.6665 60.2601C84.7044 59.3575 84.8194 57.611 84.8149 54.6482ZM87.7524 50.9157L87.7565 53.6234C87.7597 55.7033 87.7806 56.5273 87.8009 56.9589C87.8412 57.6653 87.8418 58.0773 87.9794 58.1948C88.1955 58.3907 89.2162 58.6638 90.4131 58.662C91.7866 58.6599 93.1008 58.4028 94.1392 57.3613C95.1384 56.3787 95.5873 54.8475 95.5848 53.2386C95.5827 51.8455 95.3059 50.4724 94.4211 49.2572C93.32 47.8069 91.4354 47.1427 89.3751 47.1459C88.708 47.1469 88.1195 47.2263 87.8842 47.3051C87.8057 47.3445 87.7862 47.3838 87.7863 47.4426C87.7476 47.8351 87.7496 49.1497 87.7524 50.9157Z" fill="white"/>
<path d="M107.308 56.3992L102.619 56.4064C102.56 56.4065 102.541 56.4262 102.521 56.4654C102.013 57.8397 101.486 59.371 101.271 60.2543C100.957 60.2351 100.623 60.216 99.9367 60.2171C99.1715 60.2182 98.4848 60.2585 98.2298 60.2982C98.7776 59.2574 99.6186 57.4902 100.733 55.0358L104.664 46.161C105.035 45.3755 105.153 45.1595 105.309 45.1593C105.427 45.1591 105.584 45.3354 105.959 46.159C106.254 46.7864 108.281 51.1392 109.994 55.0216C110.92 57.1 112.022 59.394 112.651 60.2368C112.023 60.2181 111.415 60.1994 111.16 60.1998C110.316 60.2011 109.355 60.2418 108.982 60.2817C108.628 59.3796 107.879 57.5364 107.387 56.458C107.367 56.4187 107.367 56.3991 107.308 56.3992ZM103.244 54.5218L106.599 54.5167C106.658 54.5166 106.678 54.4773 106.658 54.4185L104.885 50.0653L103.205 54.4238C103.185 54.4827 103.185 54.5219 103.244 54.5218Z" fill="white"/>
<path d="M116.805 54.5599L116.799 51.1065C116.795 48.3007 116.694 46.2013 116.555 45.4363C116.869 45.4751 117.222 45.4745 117.772 45.4737C118.635 45.4724 119.538 45.3925 120.891 45.3904C123.462 45.3865 124.679 45.8751 125.661 46.737C126.231 47.2266 126.861 48.246 126.863 49.6195C126.867 52.6215 124.319 54.3325 121.396 54.2585C121.317 53.9054 121.08 53.0032 120.962 52.6894C122.511 52.589 124.002 52.0176 123.999 49.9574C123.997 48.8979 123.623 48.2117 123.034 47.7613C122.543 47.2912 121.679 46.9982 120.737 46.9996C120.443 47.0001 119.991 47.0204 119.834 47.0795C119.736 47.1189 119.736 47.1385 119.737 47.5309L119.748 54.6338C119.751 56.851 119.853 59.2839 119.953 60.2256C119.639 60.2064 118.972 60.1878 118.403 60.1887C117.834 60.1896 116.872 60.2303 116.598 60.27C116.714 59.3868 116.808 57.0321 116.805 54.5599Z" fill="white"/>
<path d="M128.204 54.5423L128.198 51.089C128.193 47.8515 128.073 46.0073 127.895 45.3993C128.288 45.4576 129.033 45.4564 129.7 45.4554L134.41 45.4482C135.077 45.4471 135.979 45.4457 136.352 45.3274C136.274 45.7592 136.158 46.7405 136.16 47.8785C135.826 47.6632 135.335 47.5462 134.177 47.4303C133.51 47.392 132.235 47.3548 131.195 47.3564C131.175 47.3564 131.116 47.3761 131.116 47.4153L131.122 51.3396C131.122 51.3788 131.162 51.4376 131.201 51.4376C131.672 51.4369 133.477 51.4341 134.164 51.4134C135.419 51.3722 135.753 51.2932 136.027 51.2143C135.891 51.9405 135.815 53.1768 135.835 53.785C135.462 53.5698 135.089 53.4526 134.226 53.3951C133.598 53.3372 131.734 53.3204 131.204 53.3212C131.165 53.3213 131.125 53.3606 131.125 53.3998L131.127 54.2632C131.132 57.5203 131.172 58.0108 131.27 58.1087C131.329 58.1675 131.545 58.226 131.741 58.2453C132.291 58.3034 132.801 58.3222 133.625 58.3209C135.195 58.3185 136.293 58.1795 137.019 57.8448C136.804 58.5515 136.59 59.631 136.512 60.2198C136.414 60.2788 136.139 60.2988 135.355 60.3C132.725 60.3041 131.175 60.1691 129.939 60.171C128.997 60.1724 128.31 60.1931 127.996 60.2328C128.054 59.5068 128.208 57.4659 128.204 54.5423Z" fill="white"/>
<path d="M138.356 54.5268L138.351 51.0734C138.346 48.2676 138.284 46.1878 138.028 45.3837C138.519 45.4222 138.95 45.4412 139.441 45.4404C139.774 45.4399 141.697 45.3585 142.561 45.3571C144.307 45.3545 145.563 45.588 146.388 46.0576C147.409 46.6447 148.313 47.7617 148.316 49.3707C148.318 50.9796 147.437 52.3937 145.908 53.3575C147.029 54.9843 148.367 56.8856 149.624 58.2964C150.529 59.3153 151.118 59.8834 151.55 60.0986C151.158 60.2365 150.236 60.2772 149.51 60.2783C148.156 60.2804 147.547 59.9281 146.899 59.3012C145.739 58.2042 144.165 55.4793 143.458 54.4993C143.399 54.4209 143.32 54.3622 143.222 54.3623C142.79 54.363 141.888 54.3644 141.279 54.3653C141.22 54.3654 141.221 54.385 141.221 54.4635L141.221 54.954C141.225 57.2301 141.326 59.2117 141.465 60.1925C141.171 60.1734 140.641 60.1546 140.072 60.1554C139.483 60.1563 138.424 60.1972 138.11 60.2369C138.246 59.3341 138.36 56.999 138.356 54.5268ZM141.21 47.3017L141.217 52.2463C141.217 52.4033 141.237 52.4425 141.276 52.462C141.649 52.5988 142.395 52.6762 143.278 52.6748C143.769 52.674 144.102 52.595 144.318 52.4574C144.886 52.0248 145.434 51.2784 145.432 50.0619C145.429 47.982 143.917 47.0621 142.387 47.0645C141.896 47.0652 141.445 47.0855 141.268 47.1447C141.209 47.184 141.21 47.2232 141.21 47.3017Z" fill="white"/>
<path d="M151.005 59.6089C151.083 59.2359 151.238 57.6071 151.216 56.5869C151.924 57.4687 153.338 58.4869 154.947 58.4844C156.399 58.4822 157.065 57.6767 157.064 56.6367C157.062 55.793 156.767 55.2048 155.274 54.2261L154.273 53.5801C152.014 52.1512 151.502 50.7393 151.499 49.2677C151.496 46.9916 153.298 45.0856 156.281 45.081C157.124 45.0797 157.792 45.1572 158.321 45.2545C159.087 45.371 159.538 45.4292 159.695 45.4289C159.637 45.6645 159.502 47.1167 159.504 48.3921C159.11 47.9217 158.128 46.9814 156.284 46.9843C155.008 46.9862 154.303 47.7722 154.304 48.6747C154.306 49.4596 154.503 50.0087 155.897 50.9287L156.879 51.5747C159.334 53.1603 160.042 54.2776 160.045 55.965C160.047 57.1619 159.48 58.7129 158.049 59.6177C156.991 60.2668 155.676 60.465 154.774 60.4664C153.459 60.4684 151.791 60.1374 151.005 59.6089Z" fill="white"/>
<path d="M168.631 60.4451C163.117 60.4536 160.815 56.3563 160.81 52.8637C160.804 49.0376 163.388 45.0701 168.862 45.0617C173.728 45.0542 176.637 48.405 176.643 52.3685C176.65 56.8617 173.732 60.4373 168.631 60.4451ZM169.197 58.6391C170.845 58.6366 173.335 57.5928 173.328 53.0603C173.324 49.9209 171.671 46.8233 168.296 46.8285C165.961 46.8321 164.119 48.6008 164.125 52.1915C164.13 55.6645 165.861 58.6442 169.197 58.6391Z" fill="white"/>
<path d="M181.261 60.1314C180.829 60.0928 180.339 60.0936 179.907 60.0943C179.632 60.0947 178.475 60.1357 178.279 60.1752C178.472 58.3109 178.616 49.5007 178.61 46.1259C178.609 45.1252 178.687 45.0466 178.805 45.0464C178.883 45.0463 179.06 45.1441 179.492 45.5359C181.831 47.6906 186.94 52.647 189.337 54.6447C189.315 53.0161 189.248 48.0324 189.008 45.3054C189.224 45.3443 189.872 45.363 190.245 45.3624C190.892 45.3614 191.736 45.3013 191.912 45.2814C191.738 46.4981 191.549 51.3449 191.576 56.5641C191.579 58.3889 191.58 58.644 191.58 59.1345C191.582 60.351 191.524 60.4885 191.386 60.4887C191.19 60.489 190.66 60.0189 189.147 58.6477C186.926 56.6498 183.644 53.2799 180.874 50.7727C180.919 54.5399 181.023 58.6013 181.261 60.1314Z" fill="white"/>
<path d="M201.29 56.2549L196.6 56.2621C196.541 56.2622 196.522 56.2818 196.502 56.3211C195.994 57.6954 195.467 59.2266 195.252 60.1099C194.938 60.0908 194.605 60.0717 193.918 60.0727C193.153 60.0739 192.466 60.1142 192.211 60.1539C192.759 59.1131 193.6 57.3459 194.714 54.8915L198.645 46.0166C199.016 45.2312 199.134 45.0152 199.291 45.015C199.408 45.0148 199.566 45.1911 199.94 46.0146C200.235 46.6421 202.263 50.9949 203.976 54.8773C204.901 56.9557 206.003 59.2497 206.633 60.0925C206.005 60.0738 205.396 60.0551 205.141 60.0555C204.298 60.0568 203.336 60.0975 202.963 60.1373C202.609 59.2353 201.86 57.3921 201.368 56.3136C201.349 56.2744 201.349 56.2548 201.29 56.2549ZM197.225 54.3775L200.58 54.3723C200.639 54.3722 200.659 54.333 200.639 54.2741L198.867 49.9209L197.186 54.2794C197.166 54.3383 197.166 54.3776 197.225 54.3775Z" fill="white"/>
<path d="M207.303 54.4209L207.297 50.9675C207.293 48.1617 207.152 45.9643 207.014 45.2778C207.269 45.3166 207.995 45.3351 208.466 45.3344C209.368 45.333 210.173 45.2926 210.447 45.2529C210.351 46.0183 210.236 48.1375 210.24 50.8453L210.245 54.1417C210.25 57.4184 210.271 57.8893 210.369 57.9676C210.448 58.0656 210.663 58.1241 210.899 58.1434C211.311 58.182 211.939 58.2007 212.743 58.1994C214.509 58.1967 215.686 58.0183 216.314 57.7034C216.079 58.2532 215.787 59.6075 215.65 60.0982C215.533 60.1573 215.179 60.1578 214.238 60.1593C211.314 60.1638 210.313 60.0476 208.665 60.0501C207.841 60.0514 207.409 60.0716 207.115 60.0917C207.173 59.3656 207.307 57.3444 207.303 54.4209Z" fill="white"/>
<path d="M217.013 54.406L217.008 50.9526C217.004 48.1468 216.942 45.9689 216.744 45.2825C216.999 45.3213 217.647 45.3203 218.137 45.3196C219.197 45.3179 219.903 45.258 220.139 45.2184C220.061 45.9837 219.947 48.1619 219.951 50.9481L219.957 54.4014C219.96 56.6775 220.043 59.4636 220.201 60.0716C219.965 60.0524 219.396 60.0336 218.768 60.0346C218.082 60.0356 217.12 60.0764 216.826 60.116C216.942 59.2722 217.017 56.8782 217.013 54.406Z" fill="white"/>
<path d="M223.334 54.4355L223.329 50.9233C223.324 47.7446 223.184 45.9201 223.045 45.2532C223.281 45.2724 223.928 45.3107 224.517 45.3098C225.086 45.3089 226.283 45.2482 227.872 45.2261C231.051 45.2409 233.583 45.7079 235.391 47.5299C236.373 48.5291 237.259 50.1759 237.262 52.5108C237.266 54.9243 236.249 56.8095 235.132 57.9296C234.035 59.0105 232.271 60.2493 228.7 60.2548C227.876 60.2561 227.032 60.2181 226.384 60.1602C225.266 60.0638 224.5 59.9669 223.186 60.0474C223.224 59.1448 223.339 57.3983 223.334 54.4355ZM226.272 50.7029L226.276 53.4107C226.279 55.4905 226.3 56.3146 226.32 56.7462C226.36 57.4525 226.361 57.8646 226.499 57.9821C226.715 58.178 227.735 58.4511 228.932 58.4493C230.306 58.4472 231.62 58.1901 232.658 57.1485C233.658 56.1659 234.106 54.6348 234.104 53.0258C234.102 51.6327 233.825 50.2597 232.94 49.0445C231.839 47.5942 229.955 46.93 227.894 46.9332C227.227 46.9342 226.639 47.0136 226.403 47.0924C226.325 47.1318 226.305 47.171 226.305 47.2299C226.267 47.6224 226.269 48.937 226.272 50.7029Z" fill="white"/>
<path d="M245.828 56.1865L241.138 56.1937C241.079 56.1938 241.06 56.2134 241.04 56.2527C240.532 57.627 240.005 59.1582 239.79 60.0415C239.476 60.0224 239.143 60.0033 238.456 60.0043C237.691 60.0055 237.004 60.0458 236.749 60.0855C237.297 59.0447 238.138 57.2775 239.252 54.8231L243.183 45.9482C243.554 45.1628 243.672 44.9468 243.829 44.9466C243.946 44.9464 244.104 45.1227 244.478 45.9462C244.773 46.5737 246.801 50.9265 248.514 54.8089C249.439 56.8873 250.541 59.1813 251.171 60.0241C250.543 60.0054 249.934 59.9867 249.679 59.9871C248.836 59.9884 247.874 60.0291 247.501 60.0689C247.147 59.1669 246.398 57.3237 245.906 56.2452C245.887 56.206 245.887 56.1864 245.828 56.1865ZM241.763 54.3091L245.118 54.3039C245.177 54.3038 245.197 54.2646 245.177 54.2057L243.405 49.8525L241.724 54.211C241.704 54.2699 241.704 54.3092 241.763 54.3091Z" fill="white"/>
<path d="M251.821 54.3917L251.816 50.8795C251.811 47.7009 251.67 45.8763 251.532 45.2094C251.768 45.2287 252.415 45.2669 253.004 45.266C253.573 45.2652 254.77 45.2044 256.359 45.1824C259.538 45.1971 262.069 45.6642 263.877 47.4862C264.86 48.4853 265.746 50.1322 265.749 52.4671C265.753 54.8805 264.735 56.7657 263.619 57.8858C262.522 58.9667 260.758 60.2056 257.186 60.211C256.362 60.2123 255.519 60.1744 254.871 60.1165C253.752 60.0201 252.987 59.9232 251.673 60.0037C251.71 59.101 251.825 57.3546 251.821 54.3917ZM254.758 50.6592L254.763 53.3669C254.766 55.4468 254.787 56.2708 254.807 56.7025C254.847 57.4088 254.848 57.8208 254.985 57.9383C255.202 58.1342 256.222 58.4074 257.419 58.4055C258.793 58.4034 260.107 58.1463 261.145 57.1048C262.144 56.1222 262.593 54.591 262.591 52.9821C262.589 51.589 262.312 50.2159 261.427 49.0008C260.326 47.5505 258.441 46.8862 256.381 46.8894C255.714 46.8904 255.126 46.9698 254.89 47.0487C254.812 47.088 254.792 47.1273 254.792 47.1862C254.754 47.5787 254.756 48.8933 254.758 50.6592Z" fill="white"/>
<path d="M267.646 54.3282L267.64 50.8749C267.635 47.6374 267.515 45.7931 267.337 45.1852C267.73 45.2434 268.475 45.2423 269.142 45.2412L273.852 45.234C274.519 45.233 275.421 45.2316 275.794 45.1133C275.716 45.5451 275.6 46.5263 275.602 47.6644C275.268 47.449 274.777 47.3321 273.619 47.2161C272.952 47.1779 271.677 47.1406 270.637 47.1422C270.617 47.1422 270.558 47.162 270.558 47.2012L270.564 51.1254C270.564 51.1647 270.604 51.2235 270.643 51.2234C271.114 51.2227 272.919 51.2199 273.606 51.1993C274.861 51.1581 275.195 51.0791 275.469 51.0002C275.333 51.7264 275.257 52.9626 275.277 53.5709C274.904 53.3556 274.531 53.2385 273.668 53.1809C273.04 53.123 271.176 53.1063 270.646 53.1071C270.607 53.1071 270.567 53.1464 270.567 53.1857L270.569 54.049C270.574 57.3061 270.614 57.7966 270.712 57.8946C270.771 57.9534 270.987 58.0119 271.183 58.0312C271.733 58.0892 272.243 58.1081 273.067 58.1068C274.637 58.1044 275.735 57.9653 276.461 57.6307C276.246 58.3374 276.032 59.4169 275.954 60.0056C275.856 60.0646 275.581 60.0847 274.797 60.0859C272.167 60.0899 270.617 59.955 269.381 59.9569C268.439 59.9583 267.752 59.979 267.438 60.0187C267.496 59.2926 267.65 57.2518 267.646 54.3282Z" fill="white"/>
</svg>
