<svg width="366" height="84" viewBox="0 0 366 84" fill="none" xmlns="http://www.w3.org/2000/svg">
<path d="M114.582 34.8443L107.935 34.8546L107.933 33.7792L109.936 32.9696L108.194 28.6463L101.839 28.6561L100.111 32.9847L102.067 33.7882L102.069 34.8636L95.6655 34.8734L95.6638 33.798L97.6667 32.9884L103.655 17.6062L106.173 17.6024L112.453 32.9657L114.581 33.769L114.582 34.8443ZM107.556 26.9853L104.955 20.1216L102.472 26.9931L107.556 26.9853ZM115.751 30.1989L117.218 30.1966L117.905 32.4685C118.542 32.9726 119.577 33.2236 121.01 33.2214C121.939 33.22 122.68 32.9744 123.233 32.4848C123.803 31.9951 124.087 31.3837 124.086 30.6504C124.085 29.9009 123.774 29.2008 123.154 28.55C122.55 27.8829 121.506 27.2735 120.023 26.7218C117.219 25.667 115.815 24.1864 115.812 22.2801C115.81 20.6833 116.313 19.4687 117.322 18.6362C118.331 17.7874 119.569 17.3618 121.035 17.3596C122.827 17.3568 124.359 17.6559 125.631 18.2568C125.778 18.3218 125.917 18.3949 126.047 18.4761L126.052 21.8245L124.61 21.8755L124.045 19.8967C123.377 19.5556 122.505 19.3859 121.429 19.3875C119.23 19.3909 118.131 20.0932 118.133 21.4944C118.134 22.2765 118.428 22.9278 119.016 23.4483C119.619 23.9525 120.549 24.4317 121.804 24.886C124.869 26.0056 126.403 27.7955 126.407 30.2558C126.409 31.6897 125.931 32.8554 124.971 33.753C124.011 34.6506 122.618 35.1008 120.793 35.1036C119.962 35.1049 119.139 35.0003 118.324 34.7897C117.135 34.4657 116.279 34.1004 115.757 33.6938L115.751 30.1989ZM143.469 34.8L135.941 34.8115L135.939 33.7362L138.162 32.9262L138.141 19.4352L135.916 18.6321L135.915 17.5567L143.467 17.5451C146.106 17.541 148.25 18.3198 149.898 19.8815C151.546 21.4431 152.372 23.5274 152.376 26.1344C152.38 28.7414 151.552 30.8364 149.893 32.4194C148.25 34.0024 146.108 34.7959 143.469 34.8ZM140.631 32.9958L143.759 32.9909C145.519 32.9882 146.96 32.3913 148.082 31.2002C149.221 29.9927 149.789 28.3217 149.785 26.1873C149.782 24.0528 149.209 22.3836 148.067 21.1796C146.925 19.9594 145.482 19.3506 143.738 19.3533L140.61 19.3581L140.631 32.9958ZM167.153 28.1892L167.14 19.3906L164.914 18.5875L164.913 17.5121L171.829 17.5015L171.831 18.5769L169.608 19.3868L169.621 27.8921C169.624 30.0917 169.073 31.836 167.967 33.1249C166.861 34.3975 165.216 35.0354 163.033 35.0388C160.85 35.0421 159.203 34.4092 158.093 33.14C157 31.8708 156.451 30.1282 156.448 27.9123L156.435 19.4071L154.209 18.604L154.208 17.5286L161.124 17.518L161.126 18.5933L158.903 19.4033L158.917 28.2018C158.919 29.7334 159.279 30.9304 159.998 31.7929C160.732 32.6553 161.743 33.0855 163.03 33.0836C164.334 33.0816 165.343 32.6564 166.059 31.808C166.791 30.9433 167.155 29.737 167.153 28.1892ZM190.171 34.7283L183.523 34.7385L183.521 33.6631L185.524 32.8535L183.782 28.5302L177.428 28.54L175.699 32.8686L177.656 33.6721L177.657 34.7475L171.254 34.7573L171.252 33.6819L173.255 32.8723L179.244 17.4901L181.761 17.4863L188.041 32.8496L190.169 33.6529L190.171 34.7283ZM183.144 26.8693L180.543 20.0055L178.061 26.8771L183.144 26.8693ZM191.34 30.0828L192.806 30.0805L193.494 32.3524C194.13 32.8566 195.165 33.1075 196.599 33.1053C197.528 33.1039 198.269 32.8584 198.822 32.3687C199.391 31.879 199.675 31.2676 199.674 30.5344C199.673 29.7849 199.363 29.0847 198.742 28.4339C198.139 27.7668 197.095 27.1574 195.611 26.6057C192.807 25.5509 191.404 24.0704 191.401 22.164C191.398 20.5673 191.901 19.3526 192.91 18.5201C193.919 17.6713 195.157 17.2457 196.623 17.2435C198.416 17.2407 199.948 17.5398 201.22 18.1407C201.366 18.2057 201.505 18.2788 201.635 18.36L201.64 21.7084L200.199 21.7595L199.633 19.7807C198.965 19.4395 198.093 19.2698 197.018 19.2714C194.818 19.2748 193.719 19.9771 193.721 21.3784C193.722 22.1605 194.017 22.8117 194.604 23.3322C195.208 23.8364 196.137 24.3156 197.393 24.7699C200.457 25.8895 201.992 27.6794 201.996 30.1398C201.998 31.5736 201.519 32.7393 200.559 33.6369C199.599 34.5346 198.207 34.9848 196.382 34.9876C195.551 34.9888 194.728 34.8842 193.913 34.6736C192.723 34.3496 191.867 33.9843 191.345 33.5778L191.34 30.0828ZM209.939 17.443L217.686 17.4311L217.688 18.6287L215.465 19.5608L219.834 31.6032L219.957 31.8719L224.508 19.5469L222.185 18.6218L222.183 17.4242L229.589 17.4128L229.591 18.6837L227.001 19.6164L221.257 34.6805L218.324 34.685L212.533 19.6387L209.941 18.7139L209.939 17.443ZM244.202 32.4701C242.558 34.0857 240.596 34.8952 238.315 34.8987C236.034 34.9022 234.069 34.0987 232.421 32.4882C230.79 30.8613 229.972 28.7363 229.968 26.113C229.963 23.4735 230.783 21.3296 232.426 19.6814C234.069 18.017 236.023 17.183 238.288 17.1795C240.553 17.176 242.517 18.004 244.182 19.6634C245.846 21.3065 246.681 23.4478 246.685 26.0873C246.689 28.7106 245.861 30.8382 244.202 32.4701ZM232.632 26.1089C232.634 28.0316 233.142 29.652 234.154 30.9702C235.183 32.2884 236.569 32.9462 238.312 32.9435C240.072 32.9408 241.456 32.2788 242.464 30.9575C243.472 29.6361 243.975 28.0141 243.972 26.0915C243.969 24.1526 243.461 22.5159 242.449 21.1813C241.437 19.8305 240.043 19.1565 238.267 19.1592C236.507 19.1619 235.123 19.8402 234.115 21.1941C233.123 22.5317 232.629 24.17 232.632 26.1089ZM264.148 34.6147L261.9 34.6181L253.936 21.0171L253.954 32.7484L255.641 33.5523L255.643 34.6277L249.264 34.6375L249.262 33.5621L251.485 32.7522L251.464 19.2611L249.239 18.458L249.237 17.3827L254.248 17.375L261.673 30.1214L261.656 19.2455L259.968 18.4415L259.967 17.3662L266.346 17.3564L266.347 18.4318L264.124 19.2417L264.148 34.6147ZM279.203 34.5915L272.286 34.6022L272.285 33.5268L274.508 32.7168L274.487 19.2013L270.185 19.2079L269.382 21.3111L267.867 21.3134L267.861 17.3541L283.747 17.3297L283.753 21.289L282.238 21.2913L281.428 19.1907L276.955 19.1976L276.976 32.713L279.201 33.5162L279.203 34.5915ZM301.369 34.5575L294.722 34.5677L294.72 33.4923L296.723 32.6827L294.981 28.3595L288.626 28.3692L286.898 32.6978L288.854 33.5013L288.856 34.5767L282.452 34.5865L282.451 33.5112L284.454 32.7016L290.442 17.3194L292.96 17.3155L299.24 32.6789L301.368 33.4821L301.369 34.5575ZM294.343 26.6985L291.742 19.8347L289.259 26.7063L294.343 26.6985ZM309.682 34.5447L302.154 34.5563L302.153 33.4809L304.375 32.671L304.355 19.1799L302.129 18.3768L302.128 17.3014L309.68 17.2898C312.319 17.2858 314.463 18.0646 316.111 19.6262C317.759 21.1879 318.585 23.2722 318.589 25.8792C318.593 28.4861 317.766 30.5811 316.106 32.1641C314.463 33.7471 312.321 34.5407 309.682 34.5447ZM306.844 32.7405L309.972 32.7357C311.732 32.733 313.173 32.1361 314.296 30.9449C315.434 29.7374 316.002 28.0665 315.999 25.932C315.995 23.7976 315.423 22.1284 314.28 20.9244C313.138 19.7041 311.695 19.0953 309.951 19.098L306.823 19.1028L306.844 32.7405ZM335.034 34.5058L321.2 34.527L321.199 33.4517L323.422 32.6417L323.401 19.1507L321.176 18.3476L321.174 17.2722L335.007 17.2509L335.013 21.2103L333.742 21.2122L332.933 19.1116L325.869 19.1224L325.878 24.9392L331.5 24.9306L331.962 23.5123L333.086 23.5106L333.093 28.3254L331.969 28.3271L331.502 26.6903L325.881 26.6989L325.89 32.6624L332.953 32.6515L333.757 30.5484L335.028 30.5465L335.034 34.5058ZM338.125 29.8574L339.591 29.8551L340.279 32.127C340.915 32.6311 341.95 32.8821 343.384 32.8799C344.313 32.8785 345.054 32.6329 345.607 32.1433C346.176 31.6536 346.461 31.0422 346.459 30.3089C346.458 29.5594 346.148 28.8593 345.527 28.2085C344.924 27.5414 343.88 26.932 342.396 26.3803C339.592 25.3255 338.189 23.8449 338.186 21.9386C338.183 20.3418 338.687 19.1272 339.695 18.2947C340.704 17.4459 341.942 17.0203 343.408 17.0181C345.201 17.0153 346.733 17.3144 348.005 17.9153C348.151 17.9803 348.29 18.0534 348.42 18.1346L348.426 21.483L346.984 21.534L346.418 19.5552C345.75 19.2141 344.878 19.0444 343.803 19.046C341.603 19.0494 340.504 19.7517 340.506 21.1529C340.508 21.935 340.802 22.5863 341.389 23.1068C341.993 23.611 342.922 24.0902 344.178 24.5445C347.243 25.6641 348.777 27.454 348.781 29.9143C348.783 31.3482 348.304 32.5139 347.344 33.4115C346.384 34.3091 344.992 34.7593 343.167 34.7621C342.336 34.7634 341.513 34.6588 340.698 34.4482C339.508 34.1242 338.652 33.7589 338.13 33.3523L338.125 29.8574ZM104.732 65.8595L97.204 65.8711L97.2023 64.7957L99.4251 63.9857L99.4044 50.4947L97.1791 49.6916L97.1775 48.6162L104.73 48.6046C107.369 48.6006 109.513 49.3794 111.161 50.941C112.809 52.5027 113.635 54.587 113.639 57.1939C113.643 59.8009 112.815 61.8959 111.156 63.4789C109.513 65.0619 107.371 65.8555 104.732 65.8595ZM101.894 64.0553L105.022 64.0505C106.782 64.0478 108.223 63.4508 109.345 62.2597C110.484 61.0522 111.052 59.3812 111.048 57.2468C111.045 55.1123 110.472 53.4431 109.33 52.2392C108.187 51.0189 106.745 50.4101 105.001 50.4128L101.873 50.4176L101.894 64.0553ZM133.032 65.816L126.384 65.8263L126.382 64.7509L128.385 63.9413L126.643 59.618L120.289 59.6278L118.56 63.9564L120.517 64.7599L120.518 65.8353L114.115 65.8451L114.113 64.7697L116.116 63.9601L122.105 48.5779L124.622 48.5741L130.903 63.9374L133.03 64.7407L133.032 65.816ZM126.005 57.957L123.404 51.0933L120.922 57.9648L126.005 57.957ZM157.973 65.7777L151.326 65.788L151.324 64.7126L153.327 63.903L151.585 59.5797L145.23 59.5895L143.502 63.9181L145.458 64.7216L145.46 65.797L139.056 65.8068L139.055 64.7314L141.058 63.9218L147.046 48.5396L149.564 48.5358L155.844 63.8991L157.972 64.7024L157.973 65.7777ZM150.947 57.9187L148.346 51.055L145.863 57.9265L150.947 57.9187ZM172.591 65.7553L158.758 65.7765L158.757 64.7012L160.979 63.8912L160.959 50.4002L158.733 49.5971L158.732 48.5217L165.648 48.5111L165.65 49.5864L163.427 50.3964L163.448 63.9119L170.511 63.901L171.314 61.7979L172.585 61.796L172.591 65.7553ZM195.412 65.7202L188.226 65.7313L188.224 64.4115L190.447 63.4794L189.45 51.1874L185.758 65.7351L183.216 65.739L179.479 51.2027L178.52 63.4977L180.746 64.423L180.748 65.7428L173.562 65.7538L173.56 64.3607L176.149 63.428L177.596 50.8145L175.029 49.8898L175.027 48.4967L180.77 48.4878L184.311 62.5845L184.483 62.9753L184.653 62.584L188.151 48.4765L193.846 48.4678L193.848 49.8609L191.307 50.769L192.818 63.4024L195.41 64.3272L195.412 65.7202ZM214.539 65.6909L207.891 65.7011L207.89 64.6257L209.893 63.8161L208.151 59.4928L201.796 59.5026L200.068 63.8312L202.024 64.6347L202.026 65.7101L195.622 65.7199L195.621 64.6446L197.624 63.8349L203.612 48.4528L206.13 48.4489L212.41 63.8122L214.538 64.6155L214.539 65.6909ZM207.513 57.8319L204.912 50.9681L202.429 57.8397L207.513 57.8319ZM239.847 65.652L232.931 65.6626L232.929 64.5873L235.152 63.7773L235.143 57.6917L226.735 57.7046L226.744 63.7902L228.97 64.5933L228.971 65.6687L222.055 65.6793L222.053 64.604L224.276 63.794L224.255 50.303L222.03 49.4998L222.028 48.4245L228.945 48.4139L228.947 49.4892L226.724 50.2992L226.732 55.8227L235.14 55.8098L235.131 50.2863L232.906 49.4831L232.904 48.4078L239.821 48.3971L239.823 49.4725L237.6 50.2825L237.62 63.7735L239.846 64.5766L239.847 65.652ZM254.699 59.0547L254.685 50.2562L252.46 49.4531L252.458 48.3777L259.375 48.3671L259.377 49.4425L257.154 50.2524L257.167 58.7577C257.17 60.9573 256.619 62.7016 255.513 63.9904C254.407 65.263 252.762 65.901 250.579 65.9044C248.396 65.9077 246.749 65.2748 245.639 64.0056C244.545 62.7364 243.997 60.9938 243.994 58.7779L243.981 50.2727L241.755 49.4696L241.754 48.3942L248.67 48.3836L248.672 49.4589L246.449 50.2689L246.462 59.0674C246.465 60.599 246.825 61.796 247.543 62.6585C248.278 63.5209 249.289 63.9511 250.576 63.9491C251.879 63.9471 252.889 63.522 253.605 62.6736C254.337 61.8089 254.701 60.6026 254.699 59.0547ZM282.433 65.5866L275.247 65.5976L275.245 64.2779L277.468 63.3457L276.471 51.0537L272.779 65.6014L270.237 65.6053L266.5 51.0691L265.541 63.364L267.766 64.2894L267.769 65.6091L260.583 65.6202L260.581 64.2271L263.17 63.2944L264.617 50.6809L262.05 49.7561L262.047 48.363L267.791 48.3542L271.332 62.4509L271.504 62.8416L271.674 62.4503L275.172 48.3429L280.866 48.3341L280.869 49.7272L278.328 50.6354L279.838 63.2688L282.431 64.1935L282.433 65.5866ZM301.56 65.5572L294.912 65.5674L294.911 64.4921L296.914 63.6825L295.172 59.3592L288.817 59.369L287.089 63.6976L289.045 64.5011L289.047 65.5765L282.643 65.5863L282.642 64.5109L284.645 63.7013L290.633 48.3191L293.151 48.3153L299.431 63.6786L301.558 64.4819L301.56 65.5572ZM294.534 57.6982L291.932 50.8345L289.45 57.706L294.534 57.6982ZM317.229 65.5332L314.981 65.5366L307.017 51.9356L307.035 63.6669L308.722 64.4709L308.724 65.5462L302.345 65.556L302.343 64.4807L304.566 63.6707L304.546 50.1797L302.32 49.3765L302.319 48.3012L307.329 48.2935L314.754 61.0399L314.737 50.164L313.049 49.3601L313.048 48.2847L319.427 48.2749L319.428 49.3503L317.206 50.1602L317.229 65.5332ZM338.817 65.5L332.169 65.5102L332.168 64.4349L334.171 63.6252L332.429 59.302L326.074 59.3117L324.346 63.6403L326.302 64.4439L326.304 65.5192L319.9 65.5291L319.899 64.4537L321.902 63.6441L327.89 48.2619L330.408 48.258L336.688 63.6214L338.816 64.4246L338.817 65.5ZM331.791 57.641L329.19 50.7773L326.707 57.6488L331.791 57.641Z" fill="white"/>
<path d="M72.5069 15.2465C72.6655 14.8185 72.7579 14.3618 72.7579 13.872C72.7579 11.273 69.9602 9.1812 67.9076 8.23903C61.3726 5.24169 50.993 4.57145 44.4885 8.23903C43.8121 8.62078 43.1428 9.0156 42.4804 9.42001C38.4912 10.6934 34.8262 12.7442 31.9544 15.6378C26.4801 21.1549 21.9766 27.9932 20.04 35.5715C19.7663 36.6436 19.599 37.6659 19.5206 38.6464C17.9543 44.2855 17.0496 50.5556 21.7893 55.0032C29.5506 62.2869 43.6335 62.1257 53.2608 59.2975C60.3729 57.2074 66.67 53.4161 71.0383 47.3465C75.1844 41.5862 74.868 35.1383 74.8924 28.4142C74.9046 24.8372 75.3282 21.4207 74.0287 17.9745C73.6504 16.9713 73.1283 16.0684 72.5069 15.2465ZM53.1859 42.8361C53.165 42.8108 53.1441 42.7847 53.1231 42.7568C53.3515 42.8945 53.5188 43.0104 53.6347 43.1019C53.4866 43.0121 53.3367 42.9232 53.1859 42.8361Z" fill="white" fill-opacity="0.22"/>
<path d="M25.0644 38.3482C23.9322 38.5844 22.8689 38.9748 21.7873 39.3784C20.8416 39.7322 19.7696 40.1584 18.7394 39.9893C18.0874 39.883 17.4216 40.1593 17.2333 40.8444C17.0729 41.4292 17.432 42.2432 18.0883 42.3504C20.2402 42.7026 22.027 41.8188 24.015 41.159C24.9929 40.8339 26.0048 40.6361 27.0202 40.4713C27.2416 40.4356 29.0431 40.0111 29.173 40.3554C29.4057 40.9742 29.9992 41.3969 30.679 41.2104C31.2726 41.0474 31.7685 40.3266 31.5341 39.7043C30.5213 37.0112 27.2285 37.8958 25.0644 38.3482Z" fill="white"/>
<path d="M25.3714 45.8534C24.919 45.9789 24.4658 46.1035 24.0039 46.1889C23.9472 46.1994 23.8906 46.209 23.8331 46.2185C23.7285 46.2429 23.5986 46.2421 23.4958 46.2464C23.297 46.256 23.1018 46.2464 22.9048 46.2368C22.8918 46.2342 22.8787 46.2325 22.8656 46.2299C22.7933 46.2159 22.7218 46.2002 22.6503 46.1819C22.5553 46.1575 22.4612 46.1296 22.3688 46.0974C22.3549 46.0922 22.3409 46.0869 22.327 46.0817C22.3252 46.0808 22.327 46.0817 22.3244 46.0808C22.2607 46.046 22.1962 46.0146 22.1335 45.978C22.0943 45.9553 22.0559 45.9309 22.0184 45.9056C21.9679 45.8612 21.9147 45.8167 21.8711 45.7732C21.804 45.7043 21.743 45.6302 21.6838 45.5535C21.5051 45.3234 21.0928 45.1953 20.8183 45.1953C20.5176 45.1953 20.1585 45.3287 19.9519 45.5535C19.7375 45.7871 19.5789 46.093 19.5937 46.419C19.6094 46.7659 19.741 47.0134 19.9519 47.2845C20.6213 48.1473 21.7073 48.5465 22.7575 48.6685C23.8557 48.7966 24.9696 48.5047 26.0216 48.2136C26.6386 48.0427 27.0805 47.3376 26.8766 46.7075C26.6735 46.0782 26.0329 45.6703 25.3714 45.8534Z" fill="white"/>
<path d="M74.4248 35.8734C74.9704 31.6541 74.5093 27.5664 73.3301 23.457C72.4541 20.4004 71.4022 17.3002 69.8255 14.526C66.6704 8.97754 60.9503 5.90089 54.9042 4.39743C46.5571 2.32309 38.3983 3.95031 30.7913 7.62748C28.805 8.58795 26.7114 9.30351 24.8062 10.474C21.7539 12.3497 19.5462 15.1282 17.6698 18.1386C15.4045 21.7722 13.8148 25.7666 11.981 29.6233C11.2776 31.1024 10.6344 32.639 10.1185 34.1939C9.44995 36.2115 10.3852 38.5691 11.1591 40.4674C11.1591 42.0502 10.3982 43.8151 9.92932 45.2829C9.37674 47.0086 8.77884 48.7195 8.16962 50.4251C7.63534 51.9216 7.1002 53.4181 6.56592 54.9155C6.22078 55.8794 6.30445 56.439 6.74372 57.3367C7.29717 58.4654 8.64462 58.407 9.76982 58.4384C10.8096 58.468 11.8511 58.4009 12.8883 58.2989C12.972 59.5357 13.0565 60.7724 13.1402 62.0083C12.4429 62.9897 11.8511 63.999 11.3822 65.1329C11.2097 65.5504 11.4398 66.0115 11.6969 66.3243C12.3227 67.0852 13.135 67.6117 14.058 67.8914C13.8383 68.3211 13.895 68.8014 13.9525 69.333C14.0876 70.5907 14.2541 71.8641 14.6079 73.0816C15.2084 75.1438 16.284 77.0508 18.1613 78.1882C19.0024 78.6981 19.9515 79.0031 20.858 79.3683C21.6607 79.6917 22.2969 80.0586 23.1537 80.1396C24.9761 80.3122 26.5519 79.9479 28.343 79.5383C30.7163 78.9953 33.0704 78.373 35.408 77.6992C38.713 76.7466 41.9944 75.699 45.2323 74.5354C48.3848 73.4033 51.5251 72.4341 54.3403 70.548C57.5259 68.4144 59.7606 65.4807 61.1368 62.0048C62.6472 63.1483 64.6797 63.5867 66.4978 62.9941C67.6988 62.6027 68.7351 61.8706 69.2067 60.6661C69.6215 59.6063 69.4638 58.4375 69.2999 57.3445C69.2938 57.3018 69.2607 57.2705 69.2476 57.2295C71.2984 53.6761 74.4675 50.8487 76.2045 47.0905C77.9198 43.3811 77.9006 38.5744 74.4248 35.8734ZM60.8866 46.5292C60.6147 50.2656 60.7097 53.9672 59.9297 57.6574C58.8951 62.5496 56.4373 66.4943 52.0925 69.0724C49.4629 70.6334 46.5563 71.4858 43.6931 72.4898C39.9158 73.8129 36.0895 75.0043 32.2259 76.0441C30.8104 76.425 29.3898 76.7841 27.9621 77.1153C26.8613 77.3706 25.6586 77.782 24.5334 77.8091C24.1717 77.8178 23.7891 77.7463 23.4282 77.7158C23.2713 77.7027 23.0735 77.7114 22.9245 77.6731C22.7554 77.6295 22.7972 77.5624 22.9053 77.6007C21.7583 77.1963 20.4291 76.7074 19.3955 76.0755C18.0698 75.2649 17.39 73.8774 16.9681 72.4323C16.7685 71.7481 16.6308 71.0422 16.5245 70.3388C16.4896 70.1078 16.5053 69.6773 16.4173 69.4271C17.2671 69.4699 18.4542 69.1735 19.0686 68.5512C19.0834 68.5381 19.1087 68.5286 19.1218 68.5155C19.1401 68.4981 19.1488 68.4684 19.1662 68.4484C19.2238 68.3795 19.2682 68.3063 19.31 68.2305C19.3467 68.166 19.3763 68.1093 19.4016 68.0387C19.4103 68.0126 19.4295 67.9908 19.4373 67.9638C19.4512 67.9124 19.4382 67.8705 19.446 67.8208C19.4547 67.7624 19.4826 67.7049 19.4809 67.6483C19.4791 67.6169 19.4652 67.5855 19.4617 67.5541C19.4556 67.4557 19.4356 67.3667 19.4068 67.2805C19.3876 67.2186 19.3641 67.1628 19.3362 67.1044C19.3013 67.0408 19.2639 66.9824 19.2185 66.9275C19.1828 66.8813 19.1662 66.8229 19.1227 66.7828C19.0399 66.7192 18.9579 66.6555 18.8743 66.5911C18.7958 66.5457 18.7034 66.5492 18.6198 66.5222C18.5771 66.5082 18.5361 66.4978 18.4916 66.4873C18.4141 66.4716 18.3443 66.4263 18.2633 66.4254C18.34 66.4359 18.4167 66.4464 18.4925 66.456C17.797 66.3592 17.1154 66.1544 16.4417 65.9653C16.1672 65.8877 15.8944 65.8075 15.6172 65.7378C15.5431 65.7186 15.469 65.7021 15.3932 65.6898C15.3522 65.6829 15.3235 65.682 15.2877 65.6759C14.8084 65.5905 14.4249 65.4092 14.0789 65.1643C14.3299 64.6509 14.5731 64.1323 14.8964 63.6626C15.2171 63.1963 15.5562 62.8773 15.6067 62.2959C15.6486 61.8061 15.5361 61.2596 15.503 60.7698C15.4159 59.5008 15.3305 58.2318 15.2442 56.9628C15.2041 56.3701 14.7125 55.6467 14.0196 55.7382C12.3593 55.9579 10.4915 56.174 8.7954 55.9073C8.76403 55.8271 8.73178 55.747 8.70127 55.6668C8.89302 55.9248 8.99499 55.8141 9.0072 55.3364C9.63734 54.2975 9.9145 52.7976 10.325 51.6497C10.7277 50.5219 11.1303 49.3932 11.5173 48.2602C12.0281 46.7637 12.5249 45.2602 12.9572 43.7384C13.23 42.7745 13.5559 41.7155 13.6021 40.6897C13.6727 40.4796 13.6919 40.2417 13.5777 39.961C12.9763 38.4855 12.0446 36.4312 12.4795 34.8449C12.85 33.4922 13.4906 32.1317 14.0954 30.8592C15.5457 27.8079 16.833 24.6658 18.4411 21.6938C20.0683 18.6851 22.0328 15.4402 24.8376 13.3894C26.6809 12.0429 28.7727 11.0693 30.8959 10.2553C31.7866 9.91361 32.6006 9.42291 33.46 9.00805C35.3025 8.12079 37.2383 7.43486 39.2167 6.92325C42.9863 5.9497 46.918 5.63942 50.7886 6.1092C56.5262 6.80646 63.056 9.1658 66.5893 14.0083C68.3334 16.3972 69.4071 19.2028 70.3197 21.9927C71.6854 26.1719 72.5762 30.4104 72.1378 34.7778C69.2433 34.0675 65.8938 35.3731 63.9162 37.5512C61.6998 39.9924 61.1185 43.3523 60.8866 46.5292ZM74.7194 44.0226C73.4164 49.3296 68.397 52.7575 66.2712 57.6914C65.9365 58.468 66.4072 59.174 67.0051 59.4424C66.9754 59.5862 66.9362 59.7257 66.9005 59.8686C66.8883 59.8922 66.877 59.9157 66.8639 59.9392C66.8508 59.9619 66.782 60.0569 66.7532 60.1013C66.7105 60.1432 66.6538 60.2007 66.6434 60.212C66.6111 60.2451 66.605 60.2547 66.5972 60.2661C66.5885 60.2678 66.5728 60.2722 66.5292 60.2966C66.3828 60.3785 66.2372 60.4578 66.0891 60.5354C66.0533 60.5519 65.9679 60.592 65.9374 60.6033C65.8476 60.6347 65.7579 60.6626 65.6672 60.6879C65.5068 60.7332 65.316 60.7899 65.1451 60.7995C65.1286 60.8003 65.1329 60.7986 65.1085 60.8003C65.0144 60.8082 64.9194 60.8125 64.8244 60.8143C64.6501 60.8178 64.4775 60.8038 64.3041 60.7968C64.2779 60.796 64.2849 60.7977 64.2701 60.7977C64.2596 60.796 64.2675 60.796 64.2527 60.7934C64.1603 60.7751 64.0661 60.7594 63.9738 60.7384C63.7881 60.6966 63.606 60.6434 63.4273 60.5807C63.3732 60.5615 63.1022 60.4299 63.3689 60.5633C63.2843 60.5206 63.1981 60.4831 63.1135 60.4395C62.9453 60.3515 62.7902 60.2469 62.6298 60.1449C62.6185 60.1379 62.6219 60.1405 62.6132 60.1353C62.5304 60.0612 62.4459 59.9915 62.3657 59.9157C62.2472 59.8041 62.106 59.7178 61.9534 59.6586C62.9026 56.0773 63.0882 52.3905 63.2251 48.7047C63.3401 45.6071 63.4299 41.9029 65.5365 39.4059C66.9275 37.7577 69.6207 36.466 71.7612 37.1528C74.5416 38.0445 75.3399 41.495 74.7194 44.0226Z" fill="white"/>
<path d="M69.0406 39.5631C68.5577 39.6755 68.0949 40.2307 68.1411 40.7432C68.2039 41.4335 68.5856 41.9355 69.1774 42.231C69.201 42.3303 69.2262 42.4306 69.2445 42.5308C69.2463 42.5413 69.255 42.5761 69.2628 42.6092C69.262 42.6206 69.2611 42.6336 69.2637 42.6737C69.2724 42.8158 69.2829 42.957 69.2846 43.0991C69.2864 43.2254 69.2846 43.3518 69.2777 43.4773C69.2742 43.5401 69.2689 43.6037 69.2637 43.6665C69.2611 43.6978 69.2585 43.7292 69.255 43.7606C69.2445 43.8538 69.2498 43.8233 69.2698 43.6699C69.3029 43.7092 69.2149 43.9889 69.2027 44.043C69.1765 44.1667 69.146 44.2896 69.112 44.4108C69.0728 44.5476 69.0292 44.6827 68.9796 44.8161C68.9778 44.8222 68.97 44.8431 68.9639 44.8596C68.9508 44.8919 68.9282 44.9468 68.9221 44.9616C68.8087 45.2048 68.6789 45.4401 68.5316 45.6641C68.4976 45.7173 68.4601 45.7678 68.4253 45.8201C68.4157 45.8358 68.4183 45.8323 68.4113 45.8428C68.3207 45.9482 68.2309 46.0546 68.1359 46.1565C67.6975 46.6237 67.6374 47.4308 68.1359 47.8884C68.6118 48.325 69.3997 48.3878 69.8668 47.8884C70.9885 46.6926 71.6204 45.1568 71.7233 43.5253C71.8235 41.9355 71.2413 39.0506 69.0406 39.5631Z" fill="white"/>
<path d="M42.9994 13.6694C42.9923 13.6703 42.9905 13.6667 42.9824 13.6685C42.9878 13.6712 42.9896 13.6712 42.9932 13.673C42.995 13.6721 42.9976 13.6703 42.9994 13.6694Z" fill="white"/>
<path d="M61.746 13.082C61.4008 12.159 60.0447 11.7912 59.5087 12.7891C58.9613 13.808 58.1455 14.6517 57.1415 15.2104C56.9401 14.1209 56.6569 13.0462 56.2873 12.0021C55.9378 11.0129 54.6305 10.7828 54.05 11.7093C53.2055 13.055 51.9478 14.0015 50.4809 14.5288C49.8142 13.2275 48.9104 12.0422 47.8157 11.0617C47.4139 10.7017 46.8133 10.578 46.3322 10.8699C45.214 11.5498 44.3198 12.4797 43.5772 13.5178C43.3689 13.5117 43.1745 13.5727 42.9993 13.6686C43.1423 13.6459 43.1615 13.7566 42.9941 13.672C42.8948 13.7278 42.7919 13.7792 42.7187 13.8725C42.8268 13.7365 42.9131 13.686 42.9828 13.6677C42.9627 13.6563 42.9593 13.6642 42.9331 13.6459C42.7649 13.5274 42.5435 13.4576 42.3614 13.3557C42.0058 13.1569 41.658 12.9338 41.3425 12.6758C40.6871 12.1433 40.1484 11.5062 39.7066 10.7897C39.181 9.93648 37.7046 10.0175 37.4692 11.0826C37.2165 12.2252 36.9829 13.3888 36.7903 14.561C35.6529 14.1558 34.6497 13.496 33.8069 12.5791C33.3179 12.0474 32.198 12.1119 31.8833 12.8266C31.2244 14.3266 31.2 15.9015 31.2401 17.5148C31.2828 19.224 31.7247 20.7248 32.3862 22.2884C32.9466 23.6141 33.6108 24.9789 34.729 25.929C34.9948 26.1547 35.2842 26.3456 35.5814 26.5207C33.3458 28.2212 31.7203 30.6947 31.1233 33.4558C30.8688 34.6307 32.2625 35.5276 33.1698 34.6473C35.3252 32.5538 38.8385 33.2353 41.5456 32.8937C43.2016 32.6845 44.9552 32.0692 46.2285 30.9693C46.2277 31.5872 46.2277 32.2051 46.2277 32.824C46.2277 33.4881 46.2268 34.1522 46.2268 34.8164C46.2259 35.6618 46.3096 36.7216 47.345 36.9282C47.9717 37.0528 48.6977 36.7495 48.8511 36.0732C48.9269 35.742 48.8546 35.3733 48.675 35.0761C48.675 34.9663 48.675 34.8556 48.675 34.7475C48.675 34.473 48.675 34.1984 48.675 33.923C48.6759 33.3504 48.6759 32.7786 48.6759 32.206C48.6759 32.0805 48.6759 31.9559 48.6759 31.8312C49.775 32.6828 51.0579 33.2911 52.4594 33.5404C54.7673 33.9518 57.8222 33.5569 59.5339 35.4927C60.2591 36.312 61.6118 35.6383 61.624 34.6272C61.6545 32.0744 60.1824 29.9696 58.6301 28.0765C58.2257 27.5823 57.7751 27.0707 57.2862 26.5983C59.581 26.1381 61.7791 25.0312 62.567 22.8018C63.0751 21.3619 63.0237 19.6702 62.8895 18.172C62.73 16.4279 62.3587 14.7223 61.746 13.082ZM51.3569 16.8053C52.5483 16.3704 53.6229 15.708 54.5424 14.8487C55.1892 17.6264 55.2842 20.5775 54.5355 23.316C54.4108 23.7692 54.2391 24.1597 53.9533 24.4682C53.6552 24.5205 53.4242 24.6573 53.2717 24.863C53.0024 24.8961 52.7304 24.9449 52.4489 25.0443C52.2511 25.114 52.0881 25.2326 51.9452 25.3703C51.5538 25.4696 51.1599 25.5577 50.7781 25.6361C50.2622 25.7424 49.7375 25.7651 49.2163 25.8217C50.4251 24.5161 51.2749 22.8706 51.5747 21.1083C51.8223 19.6571 51.7238 18.1972 51.3569 16.8053ZM39.344 14.1087C39.7658 14.5026 40.1929 14.8922 40.6853 15.2077C41.0993 15.4736 41.6528 15.7891 42.2271 15.9895C41.9456 16.7487 41.7338 17.5357 41.6205 18.3437C41.3713 20.1147 41.4933 21.8979 41.875 23.6428C42.0781 24.5684 42.3343 25.5306 42.7632 26.3839C41.8619 26.7273 40.857 26.3046 40.2312 25.5559C39.3204 24.4656 39.0407 22.8802 38.8942 21.5092C38.6302 19.0261 38.8942 16.55 39.344 14.1087ZM34.5625 21.2042C34.0745 20.0371 33.7276 18.898 33.6901 17.6281C33.6718 17.0128 33.6343 16.3338 33.67 15.6688C34.5242 16.265 35.4672 16.7173 36.4695 17.0102C36.249 19.3233 36.2839 21.6487 36.8408 23.9156C36.8922 24.1257 36.975 24.3305 37.0413 24.5388C36.7563 24.402 36.4835 24.2346 36.2386 24.0002C35.4481 23.2445 34.9791 22.1986 34.5625 21.2042ZM39.4224 30.5962C37.8501 30.6511 36.229 30.7278 34.7264 31.1331C35.6276 29.6523 36.8731 28.399 38.4619 27.5692C38.5421 27.5274 38.5848 27.4673 38.6485 27.4176C39.0058 27.7941 39.4015 28.1349 39.8687 28.3972C41.3242 29.2156 42.9253 29.0962 44.2936 28.3083C44.515 28.406 44.7678 28.4548 45.0667 28.3755C45.119 28.3615 45.1678 28.3362 45.2201 28.3214C45.2402 28.3232 45.2593 28.3205 45.2794 28.3223C44.2605 30.2615 41.4262 30.5265 39.4224 30.5962ZM45.1635 25.7503C44.8697 25.4339 44.739 24.8316 44.6266 24.4691C44.4348 23.8503 44.2736 23.2201 44.1516 22.583C43.891 21.2286 43.8212 19.7835 44.0705 18.4221C44.4183 16.5212 45.3578 14.7685 46.8491 13.5535C48.5364 15.4126 49.5954 17.9218 49.2154 20.4581C48.8668 22.7773 47.3206 24.8595 45.1635 25.7503ZM58.4462 32.016C57.0892 31.582 55.5997 31.4565 54.186 31.3179C52.9745 31.1993 51.7796 30.9736 50.7267 30.3347C49.91 29.8397 49.2869 29.1416 48.784 28.3458C49.761 28.2717 50.7363 28.1532 51.6959 27.9414C52.4376 27.7776 53.1619 27.5858 53.8312 27.3191C55.1778 27.4167 56.2664 29.0291 57.0317 29.973C57.545 30.6058 58.0514 31.2882 58.4462 32.016ZM60.3584 21.6094C60.09 22.773 59.3474 23.3395 58.2571 23.7509C57.7882 23.9278 57.3062 24.0281 56.8251 24.1344C57.4099 22.3442 57.5407 20.289 57.4866 18.4456C57.4796 18.2173 57.4282 17.9933 57.4134 17.7649C58.4114 17.3431 59.3047 16.7557 60.0682 16.0218C60.2007 16.5822 60.3227 17.1461 60.3907 17.7179C60.5432 18.9712 60.6452 20.3683 60.3584 21.6094Z" fill="white"/>
</svg>
