<svg width="312" height="151" viewBox="0 0 312 151" fill="none" xmlns="http://www.w3.org/2000/svg">
<path d="M2.59468 121.852C2.63228 114.032 4.11732 108.43 7.04983 105.047C9.98233 101.625 14.5879 99.9148 20.8664 99.9148C24.0997 99.9148 27.0322 100.441 29.6639 101.494V110.009C26.9194 108.919 24.2877 108.374 21.7687 108.374C18.1595 108.374 15.5842 109.333 14.0427 111.25C12.5013 113.13 11.7305 116.664 11.7305 121.852C11.7305 127.04 12.5013 130.593 14.0427 132.511C15.5842 134.39 18.1595 135.33 21.7687 135.33C24.2877 135.33 26.9194 134.785 29.6639 133.695V142.21C27.0322 143.263 24.0997 143.79 20.8664 143.79C14.5879 143.79 9.98233 142.098 7.04983 138.714C4.11732 135.293 2.63228 129.672 2.59468 121.852ZM44.1868 143H35.1637V100.704H44.1868V143ZM80.8664 117.115L74.3246 137.868H65.1888L58.647 117.115L58.929 143H50.0187V100.704H61.354L69.7567 127.04L78.1594 100.704H89.4947V143H80.5844L80.8664 117.115ZM112.401 143H102.814L119.733 100.479H130.109L136.651 143H127.064L126.105 134.315H115.39L112.401 143ZM123.624 111.137L118.041 127.153H125.259L123.624 111.137ZM164.121 142.267C161.753 143.282 158.952 143.79 155.719 143.79C152.485 143.79 149.797 143.263 147.654 142.21C145.511 141.12 143.97 139.616 143.03 137.699C142.09 135.744 141.489 133.432 141.225 130.762C140.962 128.056 141.075 125.085 141.564 121.852C141.977 118.431 142.598 115.461 143.425 112.942C144.252 110.385 145.399 108.092 146.865 106.062C148.369 104.032 150.305 102.509 152.673 101.494C155.042 100.441 157.843 99.9148 161.076 99.9148C164.309 99.9148 166.998 100.46 169.141 101.55C171.284 102.603 172.825 104.107 173.765 106.062C174.705 107.979 175.306 110.291 175.569 112.998C175.87 115.668 175.776 118.619 175.288 121.852C174.836 125.273 174.197 128.262 173.37 130.819C172.543 133.338 171.378 135.612 169.874 137.643C168.407 139.673 166.49 141.214 164.121 142.267ZM165.644 111.25C164.742 109.145 162.9 108.092 160.117 108.092C157.335 108.092 155.211 109.163 153.745 111.306C152.316 113.412 151.301 116.927 150.7 121.852C150.06 126.777 150.211 130.311 151.151 132.454C152.091 134.56 153.952 135.612 156.734 135.612C159.516 135.612 161.621 134.56 163.05 132.454C164.479 130.349 165.512 126.815 166.152 121.852C166.753 116.889 166.584 113.355 165.644 111.25ZM215.742 100.704H225.329L208.354 143.226H197.978L191.492 100.704H201.079L204.407 132.905L215.742 100.704ZM233.486 143H224.463L229.652 100.704H238.675L233.486 143ZM267.29 100.704H276.877L259.902 143.226H249.526L243.04 100.704H252.627L255.955 132.905L267.29 100.704ZM299.159 142.267C296.791 143.282 293.99 143.79 290.756 143.79C287.523 143.79 284.835 143.263 282.692 142.21C280.549 141.12 279.008 139.616 278.068 137.699C277.128 135.744 276.526 133.432 276.263 130.762C276 128.056 276.113 125.085 276.601 121.852C277.015 118.431 277.635 115.461 278.463 112.942C279.29 110.385 280.436 108.092 281.903 106.062C283.406 104.032 285.343 102.509 287.711 101.494C290.08 100.441 292.881 99.9148 296.114 99.9148C299.347 99.9148 302.035 100.46 304.178 101.55C306.321 102.603 307.863 104.107 308.803 106.062C309.743 107.979 310.344 110.291 310.607 112.998C310.908 115.668 310.814 118.619 310.325 121.852C309.874 125.273 309.235 128.262 308.408 130.819C307.581 133.338 306.415 135.612 304.911 137.643C303.445 139.673 301.528 141.214 299.159 142.267ZM300.682 111.25C299.78 109.145 297.937 108.092 295.155 108.092C292.373 108.092 290.249 109.163 288.783 111.306C287.354 113.412 286.339 116.927 285.737 121.852C285.098 126.777 285.249 130.311 286.189 132.454C287.128 134.56 288.989 135.612 291.772 135.612C294.554 135.612 296.659 134.56 298.088 132.454C299.516 130.349 300.55 126.815 301.189 121.852C301.791 116.889 301.622 113.355 300.682 111.25Z" fill="white"/>
<path d="M157.633 0C165.181 3.26822e-05 172.377 2.38046 178.394 6.87988C184.22 11.2146 188.608 17.4131 190.73 24.293L187.476 25.2832C183.417 12.1826 171.434 3.37116 157.633 3.37109C140.411 3.37109 126.398 17.2953 126.397 34.4238C126.397 51.5524 140.411 65.4775 157.633 65.4775C170.868 65.4775 182.709 57.1599 187.099 44.7676L190.307 45.8984C185.423 59.6579 172.307 68.8935 157.633 68.8936C138.523 68.8936 123 53.4364 123 34.4463C123 15.4563 138.548 0 157.633 0ZM166.715 16.7061H159.284V37.2041L174.665 14.373V13.9014H178.062V55.3457H174.665V20.4277L159.284 43.2832V52.5186H166.715V55.9121H148.598V52.5186H155.887V43.3301L141.212 20.6172V55.3457H137.815V13.9014H141.212V14.373L155.887 37.0869V16.7061H148.598V13.3379H166.715V16.7061Z" fill="white"/>
</svg>
