<svg width="319" height="104" viewBox="0 0 319 104" fill="none" xmlns="http://www.w3.org/2000/svg">
<path d="M16.8944 61.5581L19.5351 61.554L20.7737 65.6453C21.9194 66.5531 23.7833 67.005 26.3653 67.001C28.0378 66.9985 29.3722 66.5563 30.3684 65.6745C31.394 64.7927 31.9058 63.6916 31.9038 62.3713C31.9017 61.0216 31.3423 59.7607 30.2255 58.5888C29.138 57.3875 27.2585 56.2901 24.5869 55.2966C19.5372 53.3971 17.0098 50.7309 17.0045 47.298C17.0001 44.4225 17.9063 42.2352 19.7232 40.736C21.54 39.2075 23.7688 38.4412 26.4095 38.4371C29.637 38.4321 32.396 38.9707 34.6863 40.0528C34.9505 40.1698 35.2001 40.3015 35.4351 40.4478L35.4443 46.4775L32.8478 46.5695L31.83 43.006C30.6261 42.3917 29.0558 42.086 27.1193 42.089C23.1582 42.0951 21.1796 43.3598 21.1835 45.8832C21.1857 47.2916 21.7156 48.4644 22.7733 49.4017C23.8604 50.3096 25.5341 51.1726 27.7947 51.9907C33.314 54.0068 36.077 57.2301 36.0838 61.6607C36.0878 64.2427 35.2254 66.3419 33.4968 67.9584C31.7681 69.5748 29.2607 70.3855 25.9744 70.3906C24.478 70.3929 22.996 70.2044 21.5283 69.8253C19.3855 69.2417 17.8441 68.5839 16.904 67.8518L16.8944 61.5581ZM63.3836 58.0097L63.3593 42.1654L59.352 40.7192L59.349 38.7826L71.8044 38.7635L71.8074 40.7L67.8045 42.1586L67.828 57.4748C67.8341 61.4358 66.8413 64.5769 64.8497 66.8979C62.858 69.1896 59.8962 70.3385 55.9645 70.3445C52.0328 70.3506 49.0675 69.2108 47.0688 66.9252C45.0994 64.6396 44.1117 61.5016 44.1055 57.5112L44.082 42.195L40.0747 40.7488L40.0717 38.8122L52.5271 38.7931L52.5301 40.7296L48.5272 42.1882L48.5516 58.0325C48.5558 60.7906 49.2046 62.9462 50.498 64.4993C51.8208 66.0524 53.6411 66.8271 55.9591 66.8236C58.3064 66.82 60.1244 66.0543 61.4131 64.5266C62.731 62.9694 63.3879 60.7972 63.3836 58.0097ZM90.6164 69.8072L75.3442 69.8306L75.3412 67.8941L79.3441 66.4356L79.3068 42.1409L75.2994 40.6947L75.2965 38.7581L88.192 38.7383C92.1237 38.7323 95.0303 39.8721 96.9116 42.1579C97.9699 43.4473 98.5005 45.0309 98.5034 46.9088C98.5076 49.6668 97.5719 51.7662 95.6963 53.2068C99.1605 54.4632 100.896 57.0132 100.901 60.8569C100.904 62.4414 100.583 63.8356 99.9396 65.0395C99.2959 66.2435 98.4465 67.1838 97.3912 67.8602C95.3393 69.1544 93.081 69.8034 90.6164 69.8072ZM83.7894 66.5168L88.5427 66.5095C91.2421 66.5053 93.2514 66.0914 94.5705 65.2679C95.9189 64.4442 96.5916 63.0201 96.5885 60.9956C96.5854 58.971 96.011 57.5195 94.8653 56.641C93.7196 55.7625 92.2519 55.3247 90.4621 55.3274L83.7723 55.3377L83.7894 66.5168ZM83.8118 52.4328L88.081 52.4263C92.1594 52.42 94.1958 50.5977 94.1903 46.9594C94.1874 45.0815 93.5105 43.7916 92.1598 43.0894C90.809 42.3873 88.7986 42.0383 86.1285 42.0424L83.7959 42.046L83.8118 52.4328ZM106.079 61.4211L108.72 61.4171L109.958 65.5083C111.104 66.4161 112.968 66.8681 115.55 66.8641C117.222 66.8615 118.557 66.4193 119.553 65.5376C120.579 64.6558 121.09 63.5547 121.088 62.2343C121.086 60.8846 120.527 59.6238 119.41 58.4518C118.323 57.2505 116.443 56.1531 113.771 55.1596C108.722 53.2602 106.194 50.594 106.189 47.161C106.185 44.2856 107.091 42.0982 108.908 40.599C110.725 39.0705 112.953 38.3042 115.594 38.3001C118.822 38.2952 121.58 38.8338 123.871 39.9159C124.135 40.0328 124.385 40.1645 124.62 40.3108L124.629 46.3405L122.032 46.4325L121.015 42.8691C119.811 42.2548 118.24 41.9491 116.304 41.9521C112.343 41.9581 110.364 43.2229 110.368 45.7462C110.37 47.1546 110.9 48.3274 111.958 49.2648C113.045 50.1727 114.719 51.0357 116.979 51.8538C122.498 53.8698 125.262 57.0931 125.268 61.5237C125.272 64.1057 124.41 66.205 122.681 67.8214C120.953 69.4378 118.445 70.2486 115.159 70.2536C113.663 70.2559 112.181 70.0675 110.713 69.6883C108.57 69.1048 107.029 68.4469 106.089 67.7148L106.079 61.4211ZM149.373 69.7169L136.918 69.7361L136.915 67.7995L140.918 66.341L140.881 42.0023L133.134 42.0142L131.688 45.8015L128.959 45.8057L128.948 38.6757L157.556 38.6318L157.567 45.7618L154.838 45.766L153.38 41.9831L145.326 41.9955L145.363 66.3342L149.37 67.7804L149.373 69.7169ZM192.17 69.6512L180.199 69.6696L180.196 67.7331L183.802 66.2751L180.666 58.4898L169.223 58.5074L166.11 66.3023L169.633 67.7493L169.636 69.6858L158.105 69.7035L158.102 67.767L161.708 66.3091L172.493 38.6089L177.026 38.6019L188.336 66.2682L192.167 67.7147L192.17 69.6512ZM179.517 55.4987L174.832 43.1385L170.362 55.5128L179.517 55.4987ZM181.861 34.4133L177.944 34.4194L174.811 29.1867L171.694 34.4289L167.777 34.435L172.65 26.1092L176.963 26.1026L181.861 34.4133ZM220.387 69.6079L216.338 69.6141L201.996 45.1214L202.029 66.2471L205.068 67.6949L205.071 69.6314L193.584 69.6491L193.581 67.7125L197.583 66.254L197.546 41.9593L193.539 40.5131L193.536 38.5766L202.558 38.5627L215.929 61.5165L215.899 41.9312L212.86 40.4834L212.857 38.5469L224.344 38.5292L224.347 40.4658L220.344 41.9243L220.387 69.6079ZM254.061 66.5633C250.984 68.886 247.333 70.0506 243.108 70.0571C239.147 70.0632 235.712 68.7921 232.803 66.2439C231.393 65.0137 230.261 63.4017 229.407 61.4078C228.553 59.3845 228.124 57.0966 228.12 54.5439C228.116 51.9912 228.552 49.6432 229.429 47.4999C230.336 45.3566 231.536 43.6089 233.03 42.2569C236.107 39.4648 239.714 38.0655 243.851 38.0592C246.961 38.0544 249.676 38.6811 251.996 39.9392L252.007 47.1131L248.398 47.1187L247.599 42.5427C247.011 41.898 245.793 41.5772 243.944 41.58C240.453 41.5854 237.711 42.8072 235.72 45.2456C233.728 47.684 232.735 50.7517 232.741 54.4487C232.747 58.1164 233.778 61.049 235.835 63.2464C237.922 65.4145 240.55 66.4961 243.718 66.4912C245.215 66.4889 246.696 66.2666 248.163 65.8242C249.629 65.3818 250.714 64.94 251.418 64.4988L252.473 63.837L254.061 66.5633ZM269.908 69.5318L257.453 69.551L257.45 67.6144L261.452 66.1559L261.415 41.8613L257.408 40.415L257.405 38.4785L269.86 38.4593L269.863 40.3959L265.86 41.8544L265.898 66.1491L269.905 67.5953L269.908 69.5318ZM305.767 69.4768L293.796 69.4952L293.793 67.5586L297.4 66.1007L294.263 58.3154L282.82 58.3329L279.707 66.1279L283.23 67.5748L283.233 69.5114L271.702 69.5291L271.699 67.5926L275.306 66.1346L286.09 38.4344L290.624 38.4275L301.933 66.0937L305.764 67.5402L305.767 69.4768ZM293.114 55.3243L288.43 42.9641L283.96 55.3384L293.114 55.3243Z" fill="white"/>
<path d="M169.144 20.0835L162.936 20.093L162.935 19.0888L164.805 18.3327L163.179 14.2955L157.245 14.3046L155.63 18.3468L157.457 19.0972L157.459 20.1014L151.479 20.1106L151.478 19.1064L153.348 18.3503L158.94 3.98591L161.291 3.9823L167.156 18.3291L169.143 19.0793L169.144 20.0835ZM162.583 12.7445L160.154 6.33485L157.836 12.7517L162.583 12.7445Z" fill="white"/>
<path d="M59.3247 98.9334L52.2952 98.9442L52.2936 97.9399L54.3694 97.1836L54.35 84.5852L52.272 83.8352L52.2704 82.831L59.3228 82.8201C61.7877 82.8164 63.7897 83.5436 65.3287 85.002C66.8677 86.4603 67.639 88.4067 67.6428 90.8412C67.6465 93.2756 66.8735 95.232 65.3238 96.7103C63.7893 98.1886 61.7896 98.9296 59.3247 98.9334ZM56.6746 97.2485L59.596 97.244C61.2393 97.2415 62.585 96.6841 63.6332 95.5717C64.6965 94.4442 65.2267 92.8837 65.2236 90.8905C65.2205 88.8973 64.6856 87.3385 63.6188 86.2142C62.5519 85.0747 61.2045 84.5062 59.5764 84.5087L56.6551 84.5132L56.6746 97.2485ZM85.7524 98.8928L79.5445 98.9023L79.5429 97.8981L81.4133 97.1421L79.7866 93.1048L73.8526 93.114L72.2384 97.1562L74.0654 97.9065L74.0669 98.9107L68.0872 98.9199L68.0857 97.9157L69.956 97.1597L75.5485 82.7952L77.8993 82.7916L83.7641 97.1385L85.7509 97.8886L85.7524 98.8928ZM79.1909 91.5538L76.7617 85.1442L74.4436 91.5611L79.1909 91.5538ZM91.2853 82.7711L98.5203 82.7599L98.522 83.8783L96.4464 84.7488L100.526 95.9944L100.641 96.2452L104.891 84.7358L102.721 83.8718L102.72 82.7535L109.635 82.7429L109.637 83.9297L107.219 84.8007L101.854 98.8681L99.1156 98.8723L93.7077 84.8214L91.2871 83.9579L91.2853 82.7711ZM116.993 98.8448L110.535 98.8547L110.533 97.8505L112.609 97.0942L112.589 84.4957L110.511 83.7458L110.51 82.7415L116.969 82.7316L116.97 83.7358L114.895 84.4922L114.914 97.0906L116.992 97.8406L116.993 98.8448ZM126.346 98.8305L119.316 98.8412L119.315 97.837L121.39 97.0807L121.371 84.4822L119.293 83.7323L119.291 82.728L126.344 82.7172C128.809 82.7134 130.811 83.4407 132.35 84.899C133.889 86.3574 134.66 88.3038 134.664 90.7382C134.667 93.1727 133.894 95.1291 132.345 96.6074C130.81 98.0856 128.811 98.8267 126.346 98.8305ZM123.696 97.1456L126.617 97.1411C128.26 97.1386 129.606 96.5812 130.654 95.4688C131.717 94.3412 132.248 92.7808 132.245 90.7876C132.241 88.7944 131.707 87.2356 130.64 86.1113C129.573 84.9718 128.225 84.4032 126.597 84.4058L123.676 84.4102L123.696 97.1456ZM152.773 98.7899L146.565 98.7994L146.564 97.7952L148.434 97.0391L146.808 93.0019L140.874 93.011L139.259 97.0532L141.086 97.8036L141.088 98.8078L135.108 98.817L135.107 97.8128L136.977 97.0567L142.569 82.6923L144.92 82.6887L150.785 97.0355L152.772 97.7856L152.773 98.7899ZM146.212 91.4508L143.783 85.0412L141.465 91.4581L146.212 91.4508ZM176.407 98.7536L169.948 98.7635L169.946 97.7593L172.022 97.0029L172.013 91.3199L164.162 91.332L164.171 97.015L166.249 97.7649L166.251 98.7692L159.792 98.7791L159.79 97.7749L161.866 97.0185L161.847 84.4201L159.768 83.6701L159.767 82.6659L166.226 82.656L166.227 83.6602L164.152 84.4165L164.16 89.5746L172.011 89.5625L172.003 84.4045L169.925 83.6545L169.923 82.6503L176.382 82.6404L176.384 83.6446L174.308 84.401L174.327 96.9994L176.405 97.7493L176.407 98.7536ZM190.276 92.5928L190.263 84.3764L188.185 83.6265L188.184 82.6222L194.643 82.6123L194.644 83.6166L192.568 84.3729L192.581 92.3154C192.584 94.3695 192.069 95.9983 191.036 97.2019C190.003 98.3903 188.467 98.9861 186.429 98.9892C184.39 98.9924 182.852 98.4013 181.816 97.2161C180.794 96.0309 180.282 94.4036 180.279 92.3343L180.267 84.3918L178.189 83.6418L178.187 82.6376L184.646 82.6277L184.648 83.6319L182.572 84.3883L182.584 92.6046C182.587 94.0349 182.923 95.1527 183.594 95.9581C184.28 96.7635 185.224 97.1652 186.426 97.1634C187.643 97.1615 188.586 96.7645 189.254 95.9722C189.937 95.1648 190.278 94.0383 190.276 92.5928ZM216.175 98.6925L209.465 98.7028L209.463 97.4704L211.538 96.5999L210.608 85.1212L207.159 98.7063L204.786 98.71L201.296 85.1355L200.401 96.617L202.479 97.4811L202.481 98.7135L195.771 98.7238L195.769 97.4229L198.187 96.5519L199.538 84.773L197.14 83.9094L197.138 82.6085L202.502 82.6003L205.808 95.7642L205.969 96.1291L206.128 95.7637L209.394 82.5897L214.712 82.5815L214.714 83.8824L212.342 84.7305L213.752 96.528L216.173 97.3916L216.175 98.6925ZM234.037 98.6651L227.829 98.6746L227.827 97.6704L229.697 96.9143L228.071 92.8771L222.137 92.8862L220.522 96.9284L222.349 97.6788L222.351 98.683L216.371 98.6922L216.37 97.688L218.24 96.9319L223.833 82.5675L226.183 82.5639L232.048 96.9107L234.035 97.6608L234.037 98.6651ZM227.475 91.326L225.046 84.9164L222.728 91.3333L227.475 91.326ZM248.669 98.6426L246.569 98.6458L239.132 85.9447L239.149 96.8998L240.725 97.6506L240.726 98.6548L234.77 98.6639L234.768 97.6597L236.844 96.9034L236.824 84.3049L234.746 83.555L234.745 82.5507L239.424 82.5436L246.357 94.4467L246.342 84.2903L244.766 83.5396L244.764 82.5354L250.721 82.5262L250.723 83.5304L248.647 84.2868L248.669 98.6426ZM268.829 98.6116L262.621 98.6212L262.619 97.617L264.489 96.8609L262.863 92.8237L256.929 92.8328L255.315 96.875L257.142 97.6254L257.143 98.6296L251.163 98.6388L251.162 97.6345L253.032 96.8785L258.625 82.5141L260.975 82.5105L266.84 96.8573L268.827 97.6074L268.829 98.6116ZM262.267 91.2726L259.838 84.863L257.52 91.2799L262.267 91.2726Z" fill="white"/>
<path d="M177.291 9.60742L295.194 13.1009H177.291V9.60742Z" fill="white"/>
<path d="M143.23 11.3545L25.3271 14.8479H143.23V11.3545Z" fill="white"/>
</svg>
