<svg width="232" height="113" viewBox="0 0 232 113" fill="none" xmlns="http://www.w3.org/2000/svg">
<path d="M64.2369 71.3059C64.072 70.5692 63.9896 69.7392 63.9896 68.8156C63.9896 67.8921 64.072 67.062 64.2369 66.3254C64.4019 65.5887 64.6657 64.9236 65.0285 64.3299C65.3914 63.7362 65.8971 63.2799 66.5458 62.9611C67.1944 62.6312 67.9641 62.4663 68.8546 62.4663C70.119 62.4663 71.1909 62.6587 72.0705 63.0435V64.1485C71.015 63.7197 69.9431 63.5053 68.8546 63.5053C67.5792 63.5053 66.6447 63.9891 66.051 64.9566C65.4683 65.9131 65.177 67.1994 65.177 68.8156C65.177 70.4318 65.4683 71.7237 66.051 72.6912C66.6447 73.6477 67.5792 74.1259 68.8546 74.1259C69.9431 74.1259 71.015 73.9115 72.0705 73.4828V74.5877C71.1909 74.9725 70.119 75.1649 68.8546 75.1649C67.9641 75.1649 67.1944 75.0055 66.5458 74.6867C65.8971 74.3568 65.3914 73.8951 65.0285 73.3014C64.6657 72.7077 64.4019 72.0425 64.2369 71.3059ZM88.7164 73.8456C89.1342 74.0325 89.6344 74.1259 90.2171 74.1259C90.7998 74.1259 91.3001 74.0325 91.7179 73.8456C92.1357 73.6587 92.4655 73.4168 92.7074 73.1199C92.9603 72.8231 93.1582 72.4383 93.3011 71.9655C93.444 71.4818 93.5375 71.0035 93.5814 70.5308C93.6254 70.047 93.6474 69.4753 93.6474 68.8156C93.6474 68.1559 93.6254 67.5897 93.5814 67.117C93.5375 66.6332 93.444 66.155 93.3011 65.6822C93.1582 65.1984 92.9603 64.8081 92.7074 64.5113C92.4655 64.2144 92.1357 63.9726 91.7179 63.7857C91.3001 63.5987 90.7998 63.5053 90.2171 63.5053C89.6344 63.5053 89.1342 63.5987 88.7164 63.7857C88.2986 63.9726 87.9633 64.2144 87.7104 64.5113C87.4685 64.8081 87.2761 65.1984 87.1332 65.6822C86.9903 66.155 86.8968 66.6332 86.8528 67.117C86.8089 67.5897 86.7869 68.1559 86.7869 68.8156C86.7869 69.4753 86.8089 70.047 86.8528 70.5308C86.8968 71.0035 86.9903 71.4818 87.1332 71.9655C87.2761 72.4383 87.4685 72.8231 87.7104 73.1199C87.9633 73.4168 88.2986 73.6587 88.7164 73.8456ZM92.2456 74.8021C91.6739 75.044 90.9977 75.1649 90.2171 75.1649C89.4365 75.1649 88.7604 75.044 88.1887 74.8021C87.6169 74.5602 87.1662 74.2524 86.8363 73.8786C86.5175 73.4938 86.2591 73.01 86.0612 72.4273C85.8743 71.8446 85.7479 71.2784 85.6819 70.7287C85.6269 70.1789 85.5995 69.5413 85.5995 68.8156C85.5995 68.09 85.6269 67.4523 85.6819 66.9026C85.7479 66.3529 85.8743 65.7866 86.0612 65.2039C86.2591 64.6212 86.5175 64.143 86.8363 63.7692C87.1662 63.3844 87.6169 63.071 88.1887 62.8291C88.7604 62.5873 89.4365 62.4663 90.2171 62.4663C90.9977 62.4663 91.6739 62.5873 92.2456 62.8291C92.8173 63.071 93.2626 63.3844 93.5814 63.7692C93.9113 64.143 94.1696 64.6212 94.3565 65.2039C94.5544 65.7866 94.6809 66.3529 94.7359 66.9026C94.8018 67.4523 94.8348 68.09 94.8348 68.8156C94.8348 69.5413 94.8018 70.1789 94.7359 70.7287C94.6809 71.2784 94.5544 71.8446 94.3565 72.4273C94.1696 73.01 93.9113 73.4938 93.5814 73.8786C93.2626 74.2524 92.8173 74.5602 92.2456 74.8021ZM118.924 64.099L114.752 73.1035H113.828L109.656 64.099L109.722 75H108.6V62.6312H110.117L114.29 71.7346L118.462 62.6312H119.979V75H118.858L118.924 64.099ZM133.995 75V62.6312H137.903C139.256 62.6312 140.234 62.9281 140.839 63.5218C141.444 64.1155 141.746 64.9071 141.746 65.8966C141.746 66.4573 141.603 66.974 141.317 67.4468C141.042 67.9086 140.646 68.2494 140.13 68.4693C140.8 68.6452 141.306 69.019 141.647 69.5907C141.988 70.1624 142.158 70.8056 142.158 71.5203C142.158 72.5757 141.828 73.4223 141.169 74.06C140.52 74.6867 139.47 75 138.019 75H133.995ZM135.116 69.0795V73.961H138.167C140.014 73.961 140.938 73.1474 140.938 71.5203C140.938 70.6737 140.729 70.058 140.311 69.6732C139.893 69.2774 139.19 69.0795 138.2 69.0795H135.116ZM140.526 65.8966C140.526 65.2369 140.35 64.7037 139.998 64.2969C139.657 63.8791 139.014 63.6702 138.068 63.6702H135.116V68.0405H138.2C139.75 68.0405 140.526 67.3259 140.526 65.8966ZM158.555 73.8456C158.973 74.0325 159.473 74.1259 160.056 74.1259C160.638 74.1259 161.139 74.0325 161.556 73.8456C161.974 73.6587 162.304 73.4168 162.546 73.1199C162.799 72.8231 162.997 72.4383 163.139 71.9655C163.282 71.4818 163.376 71.0035 163.42 70.5308C163.464 70.047 163.486 69.4753 163.486 68.8156C163.486 68.1559 163.464 67.5897 163.42 67.117C163.376 66.6332 163.282 66.155 163.139 65.6822C162.997 65.1984 162.799 64.8081 162.546 64.5113C162.304 64.2144 161.974 63.9726 161.556 63.7857C161.139 63.5987 160.638 63.5053 160.056 63.5053C159.473 63.5053 158.973 63.5987 158.555 63.7857C158.137 63.9726 157.802 64.2144 157.549 64.5113C157.307 64.8081 157.115 65.1984 156.972 65.6822C156.829 66.155 156.735 66.6332 156.691 67.117C156.647 67.5897 156.625 68.1559 156.625 68.8156C156.625 69.4753 156.647 70.047 156.691 70.5308C156.735 71.0035 156.829 71.4818 156.972 71.9655C157.115 72.4383 157.307 72.8231 157.549 73.1199C157.802 73.4168 158.137 73.6587 158.555 73.8456ZM162.084 74.8021C161.512 75.044 160.836 75.1649 160.056 75.1649C159.275 75.1649 158.599 75.044 158.027 74.8021C157.455 74.5602 157.005 74.2524 156.675 73.8786C156.356 73.4938 156.098 73.01 155.9 72.4273C155.713 71.8446 155.586 71.2784 155.52 70.7287C155.465 70.1789 155.438 69.5413 155.438 68.8156C155.438 68.09 155.465 67.4523 155.52 66.9026C155.586 66.3529 155.713 65.7866 155.9 65.2039C156.098 64.6212 156.356 64.143 156.675 63.7692C157.005 63.3844 157.455 63.071 158.027 62.8291C158.599 62.5873 159.275 62.4663 160.056 62.4663C160.836 62.4663 161.512 62.5873 162.084 62.8291C162.656 63.071 163.101 63.3844 163.42 63.7692C163.75 64.143 164.008 64.6212 164.195 65.2039C164.393 65.7866 164.519 66.3529 164.574 66.9026C164.64 67.4523 164.673 68.09 164.673 68.8156C164.673 69.5413 164.64 70.1789 164.574 70.7287C164.519 71.2784 164.393 71.8446 164.195 72.4273C164.008 73.01 163.75 73.4938 163.42 73.8786C163.101 74.2524 162.656 74.5602 162.084 74.8021Z" fill="white"/>
<path d="M12.3959 93.7939V97.3628H5.33278V105H1.3395V86.2815H13.1446V89.9254H5.33278V93.7939H12.3959ZM25.7018 104.651C24.7035 105.116 23.4889 105.349 22.058 105.349C20.627 105.349 19.4124 105.116 18.4141 104.651C17.4158 104.185 16.6421 103.511 16.093 102.629C15.5606 101.731 15.1779 100.724 14.9449 99.6091C14.712 98.4776 14.5955 97.1549 14.5955 95.6407C14.5955 94.1266 14.712 92.8122 14.9449 91.6974C15.1779 90.566 15.5606 89.5593 16.093 88.6775C16.6421 87.779 17.4158 87.0968 18.4141 86.6309C19.4124 86.165 20.627 85.9321 22.058 85.9321C23.4889 85.9321 24.7035 86.165 25.7018 86.6309C26.7001 87.0968 27.4655 87.779 27.998 88.6775C28.547 89.5593 28.938 90.566 29.171 91.6974C29.4039 92.8122 29.5204 94.1266 29.5204 95.6407C29.5204 97.1549 29.4039 98.4776 29.171 99.6091C28.938 100.724 28.547 101.731 27.998 102.629C27.4655 103.511 26.7001 104.185 25.7018 104.651ZM24.6786 90.9486C24.1628 90.0169 23.2892 89.551 22.058 89.551C20.8267 89.551 19.9448 90.0169 19.4124 90.9486C18.8966 91.8804 18.6387 93.4444 18.6387 95.6407C18.6387 97.8371 18.8966 99.4011 19.4124 100.333C19.9448 101.265 20.8267 101.731 22.058 101.731C23.2892 101.731 24.1628 101.265 24.6786 100.333C25.211 99.4011 25.4772 97.8371 25.4772 95.6407C25.4772 93.4444 25.211 91.8804 24.6786 90.9486ZM35.6772 97.9868V105H31.6839V86.2815H38.0482C40.4608 86.2815 42.1746 86.789 43.1896 87.8039C44.2212 88.8023 44.737 90.2498 44.737 92.1466C44.737 94.6591 43.8635 96.3396 42.1164 97.1881L45.4358 105H40.7687L38.2479 97.9868H35.6772ZM35.6772 89.9254V94.3679H38.3977C39.7287 94.3679 40.3943 93.6275 40.3943 92.1466C40.3943 91.4811 40.2612 90.9486 39.995 90.5493C39.7287 90.1333 39.1963 89.9254 38.3977 89.9254H35.6772ZM60.4473 93.5443L57.5521 102.729H53.5089L50.6138 93.5443L50.7386 105H46.7952V86.2815H51.8118L55.5305 97.9369L59.2493 86.2815H64.2658V105H60.3225L60.4473 93.5443ZM70.1557 105H65.9129L71.1042 86.1817H75.6964L80.8877 105H76.6448L75.7713 101.156H71.0293L70.1557 105ZM73.4003 90.8987L71.803 97.9868H74.9976L73.4003 90.8987ZM92.3463 108.619C92.3463 109.517 92.0468 110.175 91.4479 110.591C90.8655 111.023 90.1001 111.24 89.1517 111.24C88.0868 111.24 87.2549 111.081 86.6559 110.765V108.494C87.4047 108.744 88.1284 108.868 88.8273 108.868C89.4595 108.868 89.7757 108.677 89.7757 108.294C89.7757 107.829 89.185 107.512 88.0037 107.346L88.2283 105.225C86.0652 104.942 84.4763 104.043 83.4613 102.529C82.4463 101.015 81.9305 98.7189 81.9139 95.6407C81.9305 92.1799 82.5878 89.7007 83.8856 88.2033C85.1834 86.6891 87.2216 85.9321 90.0003 85.9321C91.4312 85.9321 92.729 86.165 93.8937 86.6309V90.3996C92.6791 89.917 91.5144 89.6758 90.3996 89.6758C88.8023 89.6758 87.6626 90.1001 86.9804 90.9486C86.2982 91.7806 85.9571 93.3446 85.9571 95.6407C85.9571 97.9369 86.2982 99.5092 86.9804 100.358C87.6626 101.19 88.8023 101.606 90.3996 101.606C91.5144 101.606 92.6791 101.364 93.8937 100.882V104.651C92.729 105.116 91.4395 105.349 90.0252 105.349L90.1001 106.423C91.5976 106.772 92.3463 107.504 92.3463 108.619ZM99.3547 105H95.1118L100.303 86.1817H104.895L110.087 105H105.844L104.97 101.156H100.228L99.3547 105ZM99.4046 85.2832H97.2332C97.2332 82.8706 98.3147 81.6643 100.478 81.6643C101.26 81.6643 102.075 81.9222 102.924 82.438C103.772 82.9371 104.363 83.1867 104.696 83.1867C105.428 83.1867 105.794 82.8872 105.794 82.2882H107.965C107.965 84.7008 106.884 85.9071 104.721 85.9071C103.939 85.9071 103.123 85.6575 102.275 85.1584C101.426 84.6426 100.836 84.3847 100.503 84.3847C99.7706 84.3847 99.4046 84.6842 99.4046 85.2832ZM102.599 90.8987L101.002 97.9868H104.197L102.599 90.8987ZM122.219 104.651C121.221 105.116 120.006 105.349 118.575 105.349C117.144 105.349 115.93 105.116 114.931 104.651C113.933 104.185 113.159 103.511 112.61 102.629C112.078 101.731 111.695 100.724 111.462 99.6091C111.229 98.4776 111.113 97.1549 111.113 95.6407C111.113 94.1266 111.229 92.8122 111.462 91.6974C111.695 90.566 112.078 89.5593 112.61 88.6775C113.159 87.779 113.933 87.0968 114.931 86.6309C115.93 86.165 117.144 85.9321 118.575 85.9321C120.006 85.9321 121.221 86.165 122.219 86.6309C123.217 87.0968 123.983 87.779 124.515 88.6775C125.064 89.5593 125.455 90.566 125.688 91.6974C125.921 92.8122 126.038 94.1266 126.038 95.6407C126.038 97.1549 125.921 98.4776 125.688 99.6091C125.455 100.724 125.064 101.731 124.515 102.629C123.983 103.511 123.217 104.185 122.219 104.651ZM121.196 90.9486C120.68 90.0169 119.807 89.551 118.575 89.551C117.344 89.551 116.462 90.0169 115.93 90.9486C115.414 91.8804 115.156 93.4444 115.156 95.6407C115.156 97.8371 115.414 99.4011 115.93 100.333C116.462 101.265 117.344 101.731 118.575 101.731C119.807 101.731 120.68 101.265 121.196 100.333C121.728 99.4011 121.995 97.8371 121.995 95.6407C121.995 93.4444 121.728 91.8804 121.196 90.9486ZM146.875 105H142.881V97.1632H137.191V105H133.198V86.2815H137.191V93.5193H142.881V86.2815H146.875V105ZM157.823 105.2C157.24 105.299 156.633 105.349 156.001 105.349C155.368 105.349 154.753 105.299 154.154 105.2C153.571 105.1 152.956 104.908 152.307 104.626C151.675 104.343 151.125 103.977 150.66 103.527C150.194 103.078 149.803 102.471 149.487 101.706C149.187 100.94 149.037 100.067 149.037 99.085V86.2815H153.031V98.8853C153.031 100.782 154.021 101.731 156.001 101.731C157.981 101.731 158.971 100.782 158.971 98.8853V86.2815H162.964V99.085C162.964 100.067 162.806 100.94 162.49 101.706C162.19 102.471 161.807 103.078 161.342 103.527C160.876 103.977 160.318 104.343 159.669 104.626C159.037 104.908 158.421 105.1 157.823 105.2ZM178.778 93.5443L175.883 102.729H171.84L168.945 93.5443L169.07 105H165.126V86.2815H170.143L173.862 97.9369L177.58 86.2815H182.597V105H178.654L178.778 93.5443ZM188.487 105H184.244L189.435 86.1817H194.028L199.219 105H194.976L194.102 101.156H189.36L188.487 105ZM191.731 90.8987L190.134 97.9868H193.329L191.731 90.8987ZM214.684 105H210.741L204.701 93.8188L204.801 105H200.857V86.2815H204.801L210.841 97.4627L210.741 86.2815H214.684V105ZM220.586 105H216.343L221.535 86.1817H226.127L231.318 105H227.075L226.202 101.156H221.46L220.586 105ZM223.831 90.8987L222.233 97.9868H225.428L223.831 90.8987Z" fill="white"/>
<g clip-path="url(#clip0_134_1626)">
<path d="M129.319 28.8839C129.748 27.8029 130.261 26.6821 130.804 25.4955C133.963 18.5885 137.895 9.99233 126.991 3.32099C124.403 1.73741 121.035 0.629235 117.507 0.200452C113.84 -0.245222 110.294 0.0482523 107.254 1.04966C101.774 2.85311 97.7428 6.23857 96.1935 10.3382C95.0354 13.4027 95.337 16.6668 97.0623 19.8018C96.5096 20.6204 95.9357 21.3728 95.3786 22.1032C93.8284 24.1356 92.4897 25.8908 92.9059 27.6509C93.1538 28.6991 93.9774 29.6001 95.4773 30.451C94.9429 31.0972 94.5306 31.8164 94.6063 32.5712C94.6803 33.3094 95.1828 33.87 95.7602 34.3258C95.4407 34.992 95.2267 35.7503 95.5447 36.4246C95.8407 37.052 96.481 37.3752 97.1088 37.5582C96.424 39.7848 96.648 41.3621 97.7782 42.252C100.123 44.098 105.439 41.9516 107.409 40.8643C108.808 42.5897 109.298 44.5816 109.676 46.4846C109.736 46.7854 110 47.0023 110.306 47.0023H130.671C130.89 47.0023 131.094 46.8904 131.212 46.7057C131.33 46.5208 131.346 46.2885 131.254 46.0895C127.988 39.0354 127.391 33.7292 129.319 28.8839ZM110.831 45.7166C110.443 43.8683 109.893 41.9605 108.541 40.2224C110.945 38.8885 113.539 37.232 115.358 34.711L114.316 33.9588C112.479 36.504 109.812 38.0774 107.237 39.4709L107.239 39.4732C107.221 39.4827 107.203 39.4906 107.186 39.5019C106.539 39.9345 104.794 40.7712 102.937 41.2769C100.867 41.8403 99.3179 41.8279 98.5737 41.2418C97.6307 40.4995 98.0402 38.6939 98.5498 37.31C98.6158 37.131 98.5986 36.9318 98.5032 36.7665C98.4078 36.6012 98.2438 36.4869 98.0557 36.4545C96.9993 36.2727 96.761 35.9896 96.7076 35.8763C96.6304 35.7127 96.644 35.333 97.1464 34.4534C97.3124 34.1627 97.2275 33.7933 96.9513 33.6042C96.2653 33.1346 95.9167 32.7547 95.8855 32.443C95.8482 32.0714 96.2034 31.5064 96.9713 30.7157C97.1147 30.568 97.1788 30.3603 97.1434 30.1574C97.1079 29.9546 96.9775 29.7809 96.7925 29.6905C95.2075 28.9156 94.3455 28.1516 94.157 27.3552C93.8807 26.1869 94.9928 24.7289 96.4008 22.8828C97.0148 22.0777 97.7109 21.1652 98.3545 20.1798C98.4879 19.9756 98.4943 19.7136 98.371 19.5032C96.6738 16.608 96.3368 13.5959 97.3961 10.7927C98.8074 7.05823 102.547 3.9521 107.656 2.27075C113.364 0.390379 121.214 1.29339 126.32 4.4176C130.756 7.13167 132.904 10.3788 132.887 14.3445C132.871 17.885 131.226 21.4822 129.635 24.9609C129.085 26.1627 128.566 27.298 128.125 28.4091C127.006 31.2216 126.69 34.186 127.158 37.4717C127.515 39.9756 128.341 42.681 129.675 45.7166H110.831ZM127.408 23.8892C128.524 22.8742 129.234 21.5179 129.428 20.022C130.061 19.0267 130.395 17.8765 130.395 16.6848C130.395 15.257 129.91 13.8847 129.023 12.7781C129.224 12.199 129.325 11.5945 129.325 10.9757C129.325 7.94104 126.855 5.47216 123.819 5.47216C122.864 5.47216 121.935 5.71726 121.109 6.18414C120.577 5.91673 119.999 5.73599 119.407 5.65208C118.236 3.80311 115.844 2.62545 113.2 2.62545C111.353 2.62545 109.578 3.21001 108.283 4.2374C108.262 4.23593 108.241 4.23529 108.22 4.23401C108.197 4.23254 108.173 4.23125 108.15 4.23015C108.063 4.22602 107.976 4.22317 107.889 4.22317C104.855 4.22317 102.386 6.69324 102.386 9.72924C102.386 9.82086 102.389 9.91192 102.393 10.0028C102.394 10.0159 102.394 10.029 102.395 10.042C102.4 10.1339 102.408 10.2254 102.417 10.3166C102.418 10.3207 102.418 10.3249 102.419 10.329C102.449 10.6037 102.498 10.8746 102.569 11.1403C101.083 12.1596 100.179 13.8533 100.179 15.6776C100.179 18.7136 102.648 21.1837 105.683 21.1837C105.725 21.1837 105.767 21.1831 105.81 21.1819C106.091 21.6665 106.442 22.0996 106.847 22.4713C106.873 22.4958 106.9 22.5199 106.927 22.5439C106.949 22.5631 106.971 22.582 106.993 22.6008C107.776 23.2753 108.75 23.7332 109.823 23.881C109.854 23.8855 109.886 23.8893 109.918 23.8932C109.968 23.8992 110.018 23.905 110.068 23.9096C110.131 23.9155 110.194 23.9203 110.257 23.924C110.282 23.9254 110.307 23.9267 110.333 23.9278C110.414 23.9315 110.496 23.9341 110.577 23.9341C111.861 23.9341 113.077 23.497 114.059 22.6932C115.137 23.4678 116.44 23.8884 117.775 23.8884V23.8898C117.785 23.8898 117.796 23.8891 117.806 23.889C117.82 23.889 117.834 23.8881 117.848 23.888C118.153 23.8845 118.454 23.8608 118.747 23.8156C119.471 24.4979 120.339 25 121.287 25.2837C121.869 26.2373 122.204 27.3883 122.235 28.5515C122.255 29.3016 122.702 29.9381 123.405 30.2134C123.628 30.3001 123.857 30.3424 124.083 30.3424C124.565 30.3424 125.031 30.1496 125.389 29.7842C126.692 28.4457 127.439 26.5485 127.439 24.5792C127.439 24.3567 127.429 24.1256 127.408 23.8892ZM126.328 23.1237C126.156 23.2636 126.068 23.4821 126.096 23.7019C126.135 24.011 126.153 24.298 126.153 24.5796C126.153 26.217 125.539 27.7872 124.468 28.887C124.306 29.0534 124.088 29.1002 123.872 29.0163C123.654 28.931 123.526 28.7494 123.52 28.5176C123.48 27.0342 123.022 25.5627 122.231 24.3742C122.143 24.242 122.009 24.147 121.855 24.1078C121.282 23.9618 120.743 23.7168 120.257 23.386C122.399 22.4759 123.941 20.4255 124.122 18.0017C124.878 17.7718 125.595 17.3769 126.217 16.8116L125.352 15.8607C123.631 17.4261 120.956 17.3005 119.39 15.5807L118.439 16.4463C119.524 17.6373 121.016 18.2421 122.513 18.2421C122.611 18.2421 122.708 18.2387 122.806 18.2336C122.508 20.3501 120.903 22.0519 118.835 22.4926C118.833 22.493 118.831 22.4931 118.829 22.4936C118.535 22.5555 118.239 22.5907 117.945 22.6004C117.943 22.6004 117.942 22.6004 117.941 22.6004C116.689 22.6405 115.464 22.216 114.508 21.413C113.593 20.6457 112.983 19.5816 112.775 18.4195C113.702 18.4063 114.615 18.1575 115.439 17.6811L114.796 16.5681C113.821 17.1316 112.685 17.2809 111.596 16.9888C110.508 16.6967 109.598 15.9987 109.034 15.0232L107.921 15.6663C108.656 16.9389 109.843 17.8495 111.263 18.2304C111.327 18.2475 111.391 18.2633 111.456 18.2782C111.614 19.6027 112.185 20.8439 113.084 21.8237C112.361 22.3593 111.491 22.649 110.577 22.649C110.514 22.649 110.451 22.647 110.388 22.6442C110.367 22.6432 110.345 22.642 110.323 22.6407C110.283 22.6383 110.244 22.6351 110.204 22.6317C110.08 22.6205 109.957 22.6043 109.835 22.5823C109.832 22.5817 109.829 22.5812 109.826 22.5806C109.145 22.4559 108.508 22.1647 107.97 21.7422C107.966 21.7396 107.963 21.737 107.96 21.7343C107.926 21.7074 107.892 21.68 107.859 21.6521C107.838 21.6347 107.818 21.6168 107.797 21.5989C107.774 21.578 107.75 21.5572 107.726 21.5358C107.685 21.4975 107.644 21.4585 107.604 21.4186C107.598 21.413 107.592 21.4073 107.587 21.4017C106.829 20.6382 106.359 19.5871 106.359 18.4283H105.074C105.074 18.93 105.142 19.4157 105.269 19.8779C103.136 19.6691 101.465 17.8654 101.465 15.6779C101.465 14.3777 102.065 13.1657 103.065 12.3738C103.316 12.8321 103.633 13.2556 104.01 13.6297C103.9 14.5522 104.161 15.4777 104.767 16.2789L105.792 15.5034C105.317 14.8753 105.161 14.1748 105.342 13.4778C105.565 12.6192 106.285 11.8656 107.318 11.4104L106.8 10.2341C105.771 10.6874 104.967 11.3858 104.486 12.2188C104.229 11.8688 104.029 11.4822 103.891 11.0725C103.889 11.0672 103.887 11.0619 103.886 11.0566C103.816 10.8481 103.764 10.6337 103.728 10.4153C103.726 10.4083 103.725 10.4011 103.724 10.394C103.714 10.3321 103.706 10.2697 103.699 10.2072C103.697 10.1927 103.696 10.1783 103.694 10.1638C103.688 10.1073 103.684 10.0504 103.68 9.99353C103.679 9.97682 103.678 9.9602 103.677 9.9435C103.673 9.87235 103.671 9.80103 103.671 9.72933C103.671 7.40201 105.563 5.5087 107.889 5.5087C107.97 5.5087 108.051 5.51145 108.133 5.51622C108.16 5.51779 108.187 5.52063 108.214 5.52274C108.265 5.5266 108.316 5.531 108.369 5.5367C109.401 5.65475 110.361 6.15045 111.055 6.93816L112.02 6.08812C111.462 5.45555 110.772 4.96875 110.011 4.65067C110.943 4.1736 112.051 3.91106 113.2 3.91106C115.053 3.91106 116.742 4.57687 117.79 5.66668C115.887 5.96502 114.258 7.2499 113.534 9.04205C112.32 8.84047 111.031 9.0415 109.884 9.70345L110.526 10.8168C112.542 9.65333 115.129 10.3461 116.292 12.3612L117.405 11.7187C116.782 10.6392 115.846 9.85133 114.777 9.40171C115.442 7.89496 116.953 6.88519 118.639 6.88519C118.789 6.88519 118.941 6.89355 119.094 6.90989C119.098 6.91044 119.103 6.9109 119.108 6.91145C119.158 6.91695 119.207 6.9232 119.256 6.93036C119.801 7.01132 120.328 7.19748 120.796 7.47792C120.798 7.47903 120.8 7.47976 120.802 7.48086C121.821 8.08966 122.535 9.09107 122.774 10.2586L124.033 10.0013C123.795 8.83936 123.196 7.80472 122.336 7.02619C122.807 6.84939 123.309 6.75759 123.82 6.75759C126.147 6.75759 128.04 8.64971 128.04 10.9756C128.04 11.2362 128.015 11.4931 127.969 11.7457C127.452 11.3469 126.875 11.0297 126.261 10.8101L125.828 12.0207C126.608 12.2994 127.312 12.7771 127.866 13.4019C128.668 14.3096 129.11 15.4716 129.11 16.6847C129.11 17.6736 128.821 18.6258 128.275 19.4381C128.216 19.5253 128.18 19.6254 128.169 19.7299C128.029 21.0654 127.375 22.2707 126.328 23.1237Z" fill="white"/>
</g>
<defs>
<clipPath id="clip0_134_1626">
<rect width="47" height="47" fill="white" transform="translate(90)"/>
</clipPath>
</defs>
</svg>
