<svg width="271" height="118" viewBox="0 0 271 118" fill="none" xmlns="http://www.w3.org/2000/svg">
<path d="M47.0393 22V6.68079H48.8211V22H47.0393ZM58.0748 22V6.68079H59.5741L65.7887 18.3495H65.1368L71.308 6.68079H72.8073V22H71.1559V9.07102H71.6774L66.0495 19.6315H64.8761L59.183 9.04929H59.7045V22H58.0748ZM82.0525 22V6.68079H91.722V8.18011H83.7908V13.4821H91.2657V14.9814H83.7908V20.5007H91.722V22H82.0525ZM100.153 22V6.68079H106.216C107.853 6.68079 109.113 7.06467 109.997 7.83244C110.88 8.60022 111.322 9.69393 111.322 11.1136C111.322 12.0117 111.119 12.794 110.714 13.4604C110.323 14.1122 109.743 14.612 108.975 14.9597C108.208 15.2929 107.288 15.4595 106.216 15.4595L106.433 15.177H106.868C107.433 15.177 107.925 15.3218 108.345 15.6116C108.765 15.9013 109.149 16.3648 109.497 17.0022L112.191 22H110.236L107.585 17.0892C107.367 16.6835 107.121 16.3648 106.846 16.1331C106.585 15.9013 106.281 15.7419 105.933 15.655C105.6 15.5681 105.194 15.5246 104.716 15.5246H101.935V22H100.153ZM101.935 14.1122H105.955C107.143 14.1122 108.041 13.866 108.649 13.3734C109.258 12.8664 109.562 12.1131 109.562 11.1136C109.562 10.143 109.258 9.41145 108.649 8.91891C108.041 8.41189 107.143 8.15838 105.955 8.15838H101.935V14.1122ZM125.076 22.1956C124.279 22.1956 123.526 22.1231 122.816 21.9783C122.12 21.8334 121.476 21.6306 120.882 21.3698C120.302 21.0946 119.774 20.7614 119.296 20.3703L119.926 18.9362C120.418 19.2983 120.918 19.6098 121.425 19.8705C121.947 20.1168 122.504 20.3051 123.098 20.4355C123.707 20.5514 124.366 20.6093 125.076 20.6093C126.379 20.6093 127.343 20.3703 127.966 19.8923C128.603 19.3997 128.922 18.7551 128.922 17.9583C128.922 17.5382 128.82 17.1761 128.618 16.8719C128.429 16.5677 128.11 16.3069 127.661 16.0896C127.227 15.8723 126.655 15.6912 125.945 15.5464L123.685 15.0901C122.323 14.8003 121.302 14.3295 120.621 13.6776C119.955 13.0113 119.622 12.1276 119.622 11.0267C119.622 10.114 119.853 9.31729 120.317 8.63643C120.795 7.95558 121.454 7.42683 122.294 7.05019C123.149 6.67354 124.12 6.48522 125.206 6.48522C125.901 6.48522 126.56 6.55765 127.183 6.70252C127.806 6.84738 128.378 7.06467 128.9 7.3544C129.436 7.62964 129.907 7.97006 130.312 8.37568L129.682 9.76636C129.03 9.17242 128.342 8.74508 127.618 8.48433C126.894 8.20909 126.082 8.07147 125.184 8.07147C124.417 8.07147 123.75 8.18736 123.185 8.41914C122.635 8.65092 122.2 8.99134 121.881 9.44042C121.577 9.87501 121.425 10.382 121.425 10.9615C121.425 11.6568 121.635 12.2073 122.055 12.6129C122.49 13.0185 123.192 13.3155 124.163 13.5038L126.423 13.9819C127.886 14.2861 128.965 14.7496 129.661 15.3725C130.37 15.981 130.725 16.8139 130.725 17.8714C130.725 18.7116 130.493 19.4649 130.03 20.1313C129.581 20.7832 128.929 21.2902 128.074 21.6523C127.234 22.0145 126.235 22.1956 125.076 22.1956ZM137.402 22L144.16 6.68079H145.681L152.439 22H150.592L148.702 17.6324L149.571 18.0887H140.227L141.118 17.6324L139.249 22H137.402ZM144.899 8.76681L141.401 17.0022L140.879 16.5894H148.919L148.441 17.0022L144.942 8.76681H144.899ZM141.401 4.98589L140.401 4.92071C140.502 3.99359 140.785 3.28376 141.248 2.79123C141.712 2.28421 142.299 2.0307 143.008 2.0307C143.356 2.0307 143.697 2.10313 144.03 2.24799C144.377 2.39286 144.783 2.61739 145.247 2.9216C145.71 3.22582 146.058 3.42862 146.29 3.53003C146.521 3.63143 146.739 3.68213 146.941 3.68213C147.376 3.68213 147.717 3.53727 147.963 3.24754C148.209 2.94333 148.383 2.51599 148.484 1.96551L149.484 2.0307C149.397 2.95782 149.122 3.67489 148.658 4.18191C148.195 4.67444 147.608 4.92071 146.898 4.92071C146.565 4.92071 146.217 4.84828 145.855 4.70341C145.493 4.54406 145.073 4.31228 144.595 4.00807C144.189 3.73283 143.863 3.54451 143.617 3.44311C143.371 3.32722 143.146 3.26927 142.943 3.26927C142.509 3.26927 142.168 3.42138 141.922 3.72559C141.676 4.01532 141.502 4.43542 141.401 4.98589ZM166.32 22.1956C165.262 22.1956 164.299 22.0145 163.43 21.6523C162.561 21.2757 161.822 20.7469 161.213 20.0661C160.605 19.3852 160.134 18.5595 159.801 17.5889C159.482 16.6184 159.323 15.5319 159.323 14.3295C159.323 13.1127 159.482 12.0262 159.801 11.0701C160.134 10.0995 160.605 9.28107 161.213 8.6147C161.822 7.93385 162.553 7.41234 163.408 7.05019C164.277 6.67354 165.248 6.48522 166.32 6.48522C167.406 6.48522 168.377 6.6663 169.231 7.02846C170.101 7.39061 170.839 7.91212 171.448 8.59297C172.071 9.27383 172.542 10.0995 172.86 11.0701C173.193 12.0262 173.36 13.1054 173.36 14.3078C173.36 15.5246 173.193 16.6184 172.86 17.5889C172.527 18.5595 172.056 19.3852 171.448 20.0661C170.839 20.7469 170.101 21.2757 169.231 21.6523C168.377 22.0145 167.406 22.1956 166.32 22.1956ZM166.32 20.6093C167.421 20.6093 168.348 20.3631 169.101 19.8705C169.869 19.378 170.456 18.6609 170.861 17.7193C171.267 16.7777 171.47 15.6478 171.47 14.3295C171.47 12.9968 171.267 11.8669 170.861 10.9397C170.456 10.0126 169.869 9.3028 169.101 8.81027C168.348 8.31773 167.421 8.07147 166.32 8.07147C165.248 8.07147 164.328 8.31773 163.56 8.81027C162.807 9.3028 162.227 10.0199 161.822 10.9615C161.416 11.8886 161.213 13.0113 161.213 14.3295C161.213 15.6478 161.416 16.7777 161.822 17.7193C162.227 18.6464 162.807 19.3635 163.56 19.8705C164.328 20.3631 165.248 20.6093 166.32 20.6093ZM192.991 22V6.68079H198.163C199.829 6.68079 201.234 6.97775 202.378 7.57169C203.537 8.15114 204.414 9.01307 205.007 10.1575C205.616 11.2874 205.92 12.6781 205.92 14.3295C205.92 15.981 205.616 17.3789 205.007 18.5233C204.414 19.6677 203.537 20.5369 202.378 21.1308C201.234 21.7103 199.829 22 198.163 22H192.991ZM194.773 20.4789H198.032C200.046 20.4789 201.545 19.9647 202.53 18.9362C203.53 17.9076 204.03 16.3721 204.03 14.3295C204.03 12.287 203.53 10.7587 202.53 9.74463C201.531 8.71611 200.031 8.20184 198.032 8.20184H194.773V20.4789ZM214.551 22V6.68079H224.22V8.18011H216.289V13.4821H223.764V14.9814H216.289V20.5007H224.22V22H214.551Z" fill="white"/>
<path d="M3.34538 67.5137V40.476H7.44896L17.6504 59.3065H16.4231L26.5862 40.476H30.6131V67.5137H26.1644V47.7628H27.0081L18.4174 63.4101H15.5411L6.87369 47.7244H7.79412V67.5137H3.34538ZM42.2782 67.8972C40.9231 67.8972 39.7086 67.6415 38.6348 67.1302C37.5865 66.5932 36.7556 65.8774 36.142 64.9825C35.5539 64.0876 35.2599 63.0777 35.2599 61.9527C35.2599 60.5721 35.6178 59.4855 36.3337 58.6929C37.0496 57.8747 38.2129 57.2867 39.8237 56.9287C41.4344 56.5708 43.5949 56.3918 46.3051 56.3918H48.2226V59.1531H46.3434C45.1417 59.1531 44.1318 59.2042 43.3137 59.3065C42.4955 59.3832 41.8307 59.5238 41.3194 59.7284C40.8336 59.9073 40.4757 60.163 40.2456 60.4954C40.041 60.8278 39.9387 61.2369 39.9387 61.7226C39.9387 62.5664 40.2328 63.2567 40.8208 63.7936C41.4089 64.3305 42.227 64.599 43.2753 64.599C44.119 64.599 44.8605 64.4072 45.4997 64.0237C46.1644 63.6146 46.6886 63.0649 47.0721 62.3746C47.4556 61.6843 47.6473 60.8917 47.6473 59.9968V55.5864C47.6473 54.3081 47.3661 53.3876 46.8036 52.8251C46.2411 52.2627 45.2951 51.9814 43.9656 51.9814C42.9174 51.9814 41.8435 52.1476 40.7441 52.48C39.6447 52.7868 38.5325 53.2726 37.4076 53.9373L36.0269 50.6775C36.6917 50.2173 37.4715 49.821 38.3663 49.4886C39.2868 49.1306 40.2456 48.8622 41.2427 48.6832C42.2654 48.4787 43.2242 48.3764 44.119 48.3764C45.9599 48.3764 47.4684 48.6576 48.6445 49.2201C49.8462 49.7826 50.741 50.6391 51.3291 51.7897C51.9171 52.9146 52.2111 54.372 52.2111 56.1617V67.5137H47.7241V63.5251H48.0309C47.8519 64.42 47.4939 65.1998 46.957 65.8646C46.4457 66.5038 45.7937 67.0023 45.0011 67.3603C44.2085 67.7182 43.3009 67.8972 42.2782 67.8972ZM57.077 67.5137V48.7599H61.7558V53.2854H61.3723C61.7302 51.7513 62.4333 50.588 63.4816 49.7954C64.5299 48.9772 65.9233 48.5042 67.6619 48.3764L69.1192 48.2613L69.4261 52.3266L66.6648 52.595C65.1052 52.7484 63.929 53.2342 63.1365 54.0524C62.3439 54.845 61.9476 55.9699 61.9476 57.4273V67.5137H57.077ZM72.0954 67.5137V40.476H76.8893V56.737H76.966L84.5212 48.7599H90.3122L80.8778 58.7312V56.737L90.8491 67.5137H84.9814L76.966 59.1531H76.8893V67.5137H72.0954ZM101.525 67.8972C99.4027 67.8972 97.5747 67.5009 96.0406 66.7083C94.5066 65.9157 93.3177 64.7907 92.474 63.3334C91.6558 61.876 91.2467 60.1502 91.2467 58.156C91.2467 56.2128 91.643 54.5126 92.4356 53.0553C93.2538 51.5979 94.3659 50.4602 95.7722 49.642C97.2039 48.7983 98.8275 48.3764 100.643 48.3764C102.432 48.3764 103.967 48.7599 105.245 49.5269C106.523 50.294 107.508 51.3806 108.198 52.7868C108.914 54.193 109.272 55.8677 109.272 57.8108V59.2298H95.1202V56.4685H105.897L105.283 57.0438C105.283 55.3052 104.9 53.9757 104.133 53.0553C103.366 52.1093 102.266 51.6363 100.835 51.6363C99.7607 51.6363 98.8403 51.8919 98.0732 52.4033C97.3318 52.8891 96.7565 53.5922 96.3474 54.5126C95.9639 55.4075 95.7722 56.4813 95.7722 57.7341V58.0026C95.7722 59.4088 95.9895 60.5721 96.4241 61.4925C96.8588 62.413 97.5108 63.1033 98.38 63.5635C99.2493 64.0237 100.323 64.2538 101.602 64.2538C102.65 64.2538 103.698 64.1004 104.746 63.7936C105.795 63.4612 106.753 62.9499 107.623 62.2596L108.965 65.4811C108.07 66.2225 106.945 66.8106 105.59 67.2452C104.235 67.6799 102.88 67.8972 101.525 67.8972ZM121.584 67.8972C119.078 67.8972 117.212 67.2708 115.985 66.018C114.758 64.7652 114.144 62.9371 114.144 60.5337V52.3649H110.539V48.7599H114.144V43.1606H118.938V48.7599H124.614V52.3649H118.938V60.2653C118.938 61.4925 119.206 62.413 119.743 63.0266C120.28 63.6402 121.149 63.947 122.351 63.947C122.709 63.947 123.08 63.9087 123.463 63.832C123.847 63.7297 124.243 63.6274 124.652 63.5251L125.381 67.0535C124.921 67.3091 124.333 67.5137 123.617 67.6671C122.926 67.8205 122.249 67.8972 121.584 67.8972ZM127.405 44.733V40.0542H132.775V44.733H127.405ZM127.712 67.5137V48.7599H132.506V67.5137H127.712ZM137.487 67.5137V48.7599H142.166V52.5183H141.744C142.307 51.1633 143.176 50.1406 144.352 49.4502C145.554 48.7343 146.909 48.3764 148.417 48.3764C149.926 48.3764 151.166 48.6576 152.137 49.2201C153.109 49.7826 153.838 50.6391 154.323 51.7897C154.809 52.9146 155.052 54.3464 155.052 56.085V67.5137H150.258V56.3151C150.258 55.3435 150.13 54.551 149.875 53.9373C149.645 53.3237 149.274 52.8763 148.762 52.595C148.277 52.2882 147.65 52.1348 146.883 52.1348C145.963 52.1348 145.157 52.3394 144.467 52.7484C143.777 53.132 143.24 53.6944 142.856 54.4359C142.473 55.1518 142.281 55.9955 142.281 56.9671V67.5137H137.487ZM168.665 74.8004C166.927 74.8004 165.29 74.5959 163.756 74.1868C162.248 73.8033 160.918 73.2024 159.768 72.3843L161.148 69.0477C161.864 69.5079 162.619 69.8914 163.411 70.1983C164.204 70.5306 165.009 70.7735 165.827 70.9269C166.645 71.0803 167.464 71.157 168.282 71.157C169.995 71.157 171.273 70.7352 172.117 69.8914C172.986 69.0733 173.421 67.846 173.421 66.2097V62.7581H173.766C173.382 64.0621 172.577 65.1103 171.35 65.9029C170.148 66.6699 168.78 67.0535 167.246 67.0535C165.559 67.0535 164.089 66.6699 162.836 65.9029C161.583 65.1103 160.612 64.0109 159.921 62.6047C159.231 61.1985 158.886 59.5622 158.886 57.6958C158.886 55.8293 159.231 54.2058 159.921 52.8251C160.612 51.4189 161.583 50.3323 162.836 49.5653C164.089 48.7727 165.559 48.3764 167.246 48.3764C168.831 48.3764 170.212 48.7727 171.388 49.5653C172.59 50.3323 173.37 51.355 173.728 52.6334H173.421V48.7599H178.1V65.6345C178.1 67.6543 177.742 69.3417 177.026 70.6968C176.31 72.0775 175.249 73.1002 173.843 73.7649C172.436 74.4552 170.711 74.8004 168.665 74.8004ZM168.55 63.4101C170.033 63.4101 171.209 62.8987 172.079 61.876C172.948 60.8533 173.382 59.4599 173.382 57.6958C173.382 55.9316 172.948 54.551 172.079 53.5538C171.209 52.5311 170.033 52.0198 168.55 52.0198C167.067 52.0198 165.891 52.5311 165.022 53.5538C164.153 54.551 163.718 55.9316 163.718 57.6958C163.718 59.4599 164.153 60.8533 165.022 61.876C165.891 62.8987 167.067 63.4101 168.55 63.4101ZM193.404 74.4169V48.7599H198.082V52.7101H197.699C198.082 51.4062 198.862 50.3579 200.038 49.5653C201.24 48.7727 202.633 48.3764 204.219 48.3764C205.855 48.3764 207.287 48.7727 208.514 49.5653C209.767 50.3579 210.738 51.4829 211.429 52.9402C212.119 54.372 212.464 56.0978 212.464 58.1176C212.464 60.1119 212.119 61.8505 211.429 63.3334C210.738 64.7907 209.78 65.9157 208.552 66.7083C207.325 67.5009 205.881 67.8972 204.219 67.8972C202.659 67.8972 201.291 67.5137 200.115 66.7466C198.939 65.9541 198.146 64.9314 197.737 63.6785H198.198V74.4169H193.404ZM202.876 64.2538C204.308 64.2538 205.459 63.7425 206.328 62.7198C207.197 61.6715 207.632 60.1375 207.632 58.1176C207.632 56.0722 207.197 54.551 206.328 53.5538C205.459 52.5311 204.308 52.0198 202.876 52.0198C201.445 52.0198 200.294 52.5311 199.425 53.5538C198.555 54.551 198.121 56.0722 198.121 58.1176C198.121 60.1375 198.555 61.6715 199.425 62.7198C200.294 63.7425 201.445 64.2538 202.876 64.2538ZM222.574 67.8972C221.219 67.8972 220.004 67.6415 218.931 67.1302C217.882 66.5932 217.051 65.8774 216.438 64.9825C215.85 64.0876 215.556 63.0777 215.556 61.9527C215.556 60.5721 215.914 59.4855 216.629 58.6929C217.345 57.8747 218.509 57.2867 220.119 56.9287C221.73 56.5708 223.891 56.3918 226.601 56.3918H228.518V59.1531H226.639C225.437 59.1531 224.428 59.2042 223.609 59.3065C222.791 59.3832 222.127 59.5238 221.615 59.7284C221.129 59.9073 220.771 60.163 220.541 60.4954C220.337 60.8278 220.235 61.2369 220.235 61.7226C220.235 62.5664 220.529 63.2567 221.117 63.7936C221.705 64.3305 222.523 64.599 223.571 64.599C224.415 64.599 225.156 64.4072 225.795 64.0237C226.46 63.6146 226.984 63.0649 227.368 62.3746C227.751 61.6843 227.943 60.8917 227.943 59.9968V55.5864C227.943 54.3081 227.662 53.3876 227.099 52.8251C226.537 52.2627 225.591 51.9814 224.261 51.9814C223.213 51.9814 222.139 52.1476 221.04 52.48C219.94 52.7868 218.828 53.2726 217.703 53.9373L216.323 50.6775C216.987 50.2173 217.767 49.821 218.662 49.4886C219.583 49.1306 220.541 48.8622 221.538 48.6832C222.561 48.4787 223.52 48.3764 224.415 48.3764C226.256 48.3764 227.764 48.6576 228.94 49.2201C230.142 49.7826 231.037 50.6391 231.625 51.7897C232.213 52.9146 232.507 54.372 232.507 56.1617V67.5137H228.02V63.5251H228.327C228.148 64.42 227.79 65.1998 227.253 65.8646C226.741 66.5038 226.089 67.0023 225.297 67.3603C224.504 67.7182 223.597 67.8972 222.574 67.8972ZM237.373 67.5137V48.7599H242.052V53.2854H241.668C242.026 51.7513 242.729 50.588 243.777 49.7954C244.826 48.9772 246.219 48.5042 247.958 48.3764L249.415 48.2613L249.722 52.3266L246.961 52.595C245.401 52.7484 244.225 53.2342 243.432 54.0524C242.64 54.845 242.243 55.9699 242.243 57.4273V67.5137H237.373ZM258.378 67.8972C257.023 67.8972 255.809 67.6415 254.735 67.1302C253.687 66.5932 252.856 65.8774 252.242 64.9825C251.654 64.0876 251.36 63.0777 251.36 61.9527C251.36 60.5721 251.718 59.4855 252.434 58.6929C253.15 57.8747 254.313 57.2867 255.924 56.9287C257.535 56.5708 259.695 56.3918 262.405 56.3918H264.323V59.1531H262.444C261.242 59.1531 260.232 59.2042 259.414 59.3065C258.596 59.3832 257.931 59.5238 257.42 59.7284C256.934 59.9073 256.576 60.163 256.346 60.4954C256.141 60.8278 256.039 61.2369 256.039 61.7226C256.039 62.5664 256.333 63.2567 256.921 63.7936C257.509 64.3305 258.327 64.599 259.376 64.599C260.219 64.599 260.961 64.4072 261.6 64.0237C262.265 63.6146 262.789 63.0649 263.172 62.3746C263.556 61.6843 263.748 60.8917 263.748 59.9968V55.5864C263.748 54.3081 263.466 53.3876 262.904 52.8251C262.341 52.2627 261.395 51.9814 260.066 51.9814C259.018 51.9814 257.944 52.1476 256.844 52.48C255.745 52.7868 254.633 53.2726 253.508 53.9373L252.127 50.6775C252.792 50.2173 253.572 49.821 254.467 49.4886C255.387 49.1306 256.346 48.8622 257.343 48.6832C258.366 48.4787 259.324 48.3764 260.219 48.3764C262.06 48.3764 263.569 48.6576 264.745 49.2201C265.946 49.7826 266.841 50.6391 267.429 51.7897C268.017 52.9146 268.311 54.372 268.311 56.1617V67.5137H263.824V63.5251H264.131C263.952 64.42 263.594 65.1998 263.057 65.8646C262.546 66.5038 261.894 67.0023 261.101 67.3603C260.309 67.7182 259.401 67.8972 258.378 67.8972ZM46.061 109.514V86.5796H36.78V82.476H60.251V86.5796H50.97V109.514H46.061ZM69.1473 109.897C67.0252 109.897 65.1971 109.501 63.663 108.708C62.129 107.916 60.9401 106.791 60.0964 105.333C59.2782 103.876 58.8691 102.15 58.8691 100.156C58.8691 98.2128 59.2654 96.5126 60.058 95.0553C60.8762 93.5979 61.9884 92.4602 63.3946 91.642C64.8264 90.7983 66.4499 90.3764 68.2652 90.3764C70.0549 90.3764 71.589 90.7599 72.8673 91.5269C74.1457 92.294 75.1301 93.3806 75.8204 94.7868C76.5363 96.193 76.8942 97.8677 76.8942 99.8108V101.23H62.7426V98.4685H73.5193L72.9057 99.0438C72.9057 97.3052 72.5222 95.9757 71.7551 95.0553C70.9881 94.1093 69.8887 93.6363 68.4569 93.6363C67.3831 93.6363 66.4627 93.8919 65.6956 94.4033C64.9542 94.8891 64.3789 95.5922 63.9698 96.5126C63.5863 97.4075 63.3946 98.4813 63.3946 99.7341V100.003C63.3946 101.409 63.6119 102.572 64.0465 103.493C64.4812 104.413 65.1332 105.103 66.0025 105.563C66.8718 106.024 67.9456 106.254 69.224 106.254C70.2722 106.254 71.3205 106.1 72.3688 105.794C73.417 105.461 74.3758 104.95 75.2451 104.26L76.5874 107.481C75.6925 108.223 74.5676 108.811 73.2125 109.245C71.8574 109.68 70.5023 109.897 69.1473 109.897ZM80.6907 109.514V90.7599H85.3695V95.2854H84.986C85.344 93.7513 86.0471 92.588 87.0953 91.7954C88.1436 90.9772 89.537 90.5042 91.2756 90.3764L92.733 90.2613L93.0398 94.3266L90.2785 94.595C88.7189 94.7484 87.5428 95.2342 86.7502 96.0524C85.9576 96.845 85.5613 97.9699 85.5613 99.4273V109.514H80.6907ZM101.696 109.897C100.341 109.897 99.1268 109.642 98.053 109.13C97.0047 108.593 96.1738 107.877 95.5602 106.982C94.9721 106.088 94.6781 105.078 94.6781 103.953C94.6781 102.572 95.036 101.485 95.7519 100.693C96.4678 99.8747 97.6311 99.2867 99.2419 98.9287C100.853 98.5708 103.013 98.3918 105.723 98.3918H107.641V101.153H105.762C104.56 101.153 103.55 101.204 102.732 101.307C101.914 101.383 101.249 101.524 100.738 101.728C100.252 101.907 99.8939 102.163 99.6638 102.495C99.4592 102.828 99.3569 103.237 99.3569 103.723C99.3569 104.566 99.651 105.257 100.239 105.794C100.827 106.331 101.645 106.599 102.694 106.599C103.537 106.599 104.279 106.407 104.918 106.024C105.583 105.615 106.107 105.065 106.49 104.375C106.874 103.684 107.066 102.892 107.066 101.997V97.5864C107.066 96.3081 106.784 95.3876 106.222 94.8251C105.659 94.2627 104.713 93.9814 103.384 93.9814C102.336 93.9814 101.262 94.1476 100.162 94.48C99.0629 94.7868 97.9507 95.2726 96.8258 95.9373L95.4451 92.6775C96.1099 92.2173 96.8897 91.821 97.7845 91.4886C98.705 91.1306 99.6638 90.8622 100.661 90.6832C101.684 90.4787 102.642 90.3764 103.537 90.3764C105.378 90.3764 106.887 90.6576 108.063 91.2201C109.264 91.7826 110.159 92.6391 110.747 93.7897C111.335 94.9146 111.629 96.372 111.629 98.1617V109.514H107.142V105.525H107.449C107.27 106.42 106.912 107.2 106.375 107.865C105.864 108.504 105.212 109.002 104.419 109.36C103.627 109.718 102.719 109.897 101.696 109.897ZM116.495 116.417V90.7599H121.174V94.7101H120.79C121.174 93.4062 121.954 92.3579 123.13 91.5653C124.332 90.7727 125.725 90.3764 127.31 90.3764C128.947 90.3764 130.378 90.7727 131.606 91.5653C132.858 92.3579 133.83 93.4829 134.52 94.9402C135.211 96.372 135.556 98.0978 135.556 100.118C135.556 102.112 135.211 103.85 134.52 105.333C133.83 106.791 132.871 107.916 131.644 108.708C130.417 109.501 128.972 109.897 127.31 109.897C125.751 109.897 124.383 109.514 123.207 108.747C122.031 107.954 121.238 106.931 120.829 105.679H121.289V116.417H116.495ZM125.968 106.254C127.4 106.254 128.55 105.742 129.42 104.72C130.289 103.671 130.723 102.137 130.723 100.118C130.723 98.0722 130.289 96.551 129.42 95.5538C128.55 94.5311 127.4 94.0198 125.968 94.0198C124.536 94.0198 123.386 94.5311 122.516 95.5538C121.647 96.551 121.212 98.0722 121.212 100.118C121.212 102.137 121.647 103.671 122.516 104.72C123.386 105.742 124.536 106.254 125.968 106.254ZM148.734 109.897C146.611 109.897 144.783 109.501 143.249 108.708C141.715 107.916 140.526 106.791 139.683 105.333C138.865 103.876 138.455 102.15 138.455 100.156C138.455 98.2128 138.852 96.5126 139.644 95.0553C140.462 93.5979 141.575 92.4602 142.981 91.642C144.413 90.7983 146.036 90.3764 147.851 90.3764C149.641 90.3764 151.175 90.7599 152.454 91.5269C153.732 92.294 154.716 93.3806 155.407 94.7868C156.123 96.193 156.481 97.8677 156.481 99.8108V101.23H142.329V98.4685H153.106L152.492 99.0438C152.492 97.3052 152.108 95.9757 151.341 95.0553C150.574 94.1093 149.475 93.6363 148.043 93.6363C146.969 93.6363 146.049 93.8919 145.282 94.4033C144.541 94.8891 143.965 95.5922 143.556 96.5126C143.173 97.4075 142.981 98.4813 142.981 99.7341V100.003C142.981 101.409 143.198 102.572 143.633 103.493C144.068 104.413 144.719 105.103 145.589 105.563C146.458 106.024 147.532 106.254 148.81 106.254C149.859 106.254 150.907 106.1 151.955 105.794C153.003 105.461 153.962 104.95 154.831 104.26L156.174 107.481C155.279 108.223 154.154 108.811 152.799 109.245C151.444 109.68 150.089 109.897 148.734 109.897ZM167.065 109.897C165.506 109.897 164.214 109.616 163.192 109.053C162.169 108.465 161.402 107.596 160.891 106.446C160.405 105.295 160.162 103.863 160.162 102.15V90.7599H164.956V102.227C164.956 103.096 165.071 103.825 165.301 104.413C165.557 105.001 165.927 105.436 166.413 105.717C166.925 105.998 167.564 106.139 168.331 106.139C169.2 106.139 169.954 105.947 170.593 105.563C171.258 105.154 171.77 104.592 172.128 103.876C172.511 103.135 172.703 102.278 172.703 101.307V90.7599H177.497V109.514H172.818V105.602H173.355C172.818 106.982 172 108.044 170.9 108.785C169.826 109.526 168.548 109.897 167.065 109.897ZM191.077 109.897C188.571 109.897 186.705 109.271 185.478 108.018C184.25 106.765 183.637 104.937 183.637 102.534V94.3649H180.032V90.7599H183.637V85.1606H188.431V90.7599H194.107V94.3649H188.431V102.265C188.431 103.493 188.699 104.413 189.236 105.027C189.773 105.64 190.642 105.947 191.844 105.947C192.202 105.947 192.573 105.909 192.956 105.832C193.34 105.73 193.736 105.627 194.145 105.525L194.874 109.053C194.413 109.309 193.825 109.514 193.11 109.667C192.419 109.82 191.742 109.897 191.077 109.897ZM203.38 109.897C202.025 109.897 200.81 109.642 199.736 109.13C198.688 108.593 197.857 107.877 197.243 106.982C196.655 106.088 196.361 105.078 196.361 103.953C196.361 102.572 196.719 101.485 197.435 100.693C198.151 99.8747 199.314 99.2867 200.925 98.9287C202.536 98.5708 204.696 98.3918 207.406 98.3918H209.324V101.153H207.445C206.243 101.153 205.233 101.204 204.415 101.307C203.597 101.383 202.932 101.524 202.421 101.728C201.935 101.907 201.577 102.163 201.347 102.495C201.142 102.828 201.04 103.237 201.04 103.723C201.04 104.566 201.334 105.257 201.922 105.794C202.51 106.331 203.328 106.599 204.377 106.599C205.22 106.599 205.962 106.407 206.601 106.024C207.266 105.615 207.79 105.065 208.174 104.375C208.557 103.684 208.749 102.892 208.749 101.997V97.5864C208.749 96.3081 208.468 95.3876 207.905 94.8251C207.343 94.2627 206.397 93.9814 205.067 93.9814C204.019 93.9814 202.945 94.1476 201.846 94.48C200.746 94.7868 199.634 95.2726 198.509 95.9373L197.128 92.6775C197.793 92.2173 198.573 91.821 199.468 91.4886C200.388 91.1306 201.347 90.8622 202.344 90.6832C203.367 90.4787 204.326 90.3764 205.22 90.3764C207.061 90.3764 208.57 90.6576 209.746 91.2201C210.948 91.7826 211.842 92.6391 212.43 93.7897C213.019 94.9146 213.313 96.372 213.313 98.1617V109.514H208.825V105.525H209.132C208.953 106.42 208.595 107.2 208.058 107.865C207.547 108.504 206.895 109.002 206.103 109.36C205.31 109.718 204.402 109.897 203.38 109.897ZM225.043 109.897C223.995 109.897 222.972 109.808 221.975 109.629C221.004 109.45 220.109 109.207 219.291 108.9C218.472 108.568 217.757 108.159 217.143 107.673L218.37 104.528C219.009 104.937 219.7 105.295 220.441 105.602C221.183 105.909 221.95 106.139 222.742 106.292C223.535 106.446 224.315 106.522 225.082 106.522C226.309 106.522 227.216 106.318 227.805 105.909C228.418 105.474 228.725 104.912 228.725 104.221C228.725 103.633 228.52 103.186 228.111 102.879C227.728 102.547 227.14 102.304 226.347 102.15L222.512 101.422C220.927 101.115 219.712 100.539 218.869 99.6958C218.051 98.8265 217.641 97.7143 217.641 96.3592C217.641 95.132 217.974 94.0709 218.639 93.176C219.329 92.2812 220.275 91.5909 221.477 91.1051C222.678 90.6193 224.059 90.3764 225.619 90.3764C226.513 90.3764 227.383 90.4659 228.226 90.6449C229.07 90.7983 229.863 91.0412 230.604 91.3735C231.371 91.6803 232.036 92.0894 232.598 92.6008L231.295 95.7456C230.809 95.3365 230.246 94.9913 229.607 94.7101C228.968 94.4033 228.303 94.1732 227.613 94.0198C226.948 93.8408 226.296 93.7513 225.657 93.7513C224.404 93.7513 223.471 93.9686 222.857 94.4033C222.269 94.8379 221.975 95.4132 221.975 96.1291C221.975 96.666 222.154 97.1134 222.512 97.4714C222.87 97.8293 223.42 98.0722 224.161 98.2001L227.996 98.9287C229.658 99.2355 230.911 99.798 231.755 100.616C232.624 101.434 233.059 102.534 233.059 103.914C233.059 105.167 232.726 106.241 232.062 107.136C231.397 108.031 230.464 108.721 229.262 109.207C228.06 109.667 226.654 109.897 225.043 109.897Z" fill="white"/>
</svg>
