<svg width="494" height="71" viewBox="0 0 494 71" fill="none" xmlns="http://www.w3.org/2000/svg">
<path d="M0.0514824 35.1635C0.111636 22.6515 2.48771 13.6885 7.17971 8.27468C11.8717 2.80068 19.2406 0.0636776 29.2863 0.0636776C34.4595 0.0636776 39.1515 0.905832 43.3623 2.59014V16.215C38.971 14.4705 34.7603 13.5983 30.7299 13.5983C24.9552 13.5983 20.8346 15.1322 18.3683 18.2001C15.902 21.2078 14.6689 26.8622 14.6689 35.1635C14.6689 43.4647 15.902 49.1492 18.3683 52.2171C20.8346 55.2248 24.9552 56.7286 30.7299 56.7286C34.7603 56.7286 38.971 55.8564 43.3623 54.1119V67.7368C39.1515 69.4211 34.4595 70.2632 29.2863 70.2632C19.2406 70.2632 11.8717 67.5563 7.17971 62.1425C2.48771 56.6685 0.111636 47.6755 0.0514824 35.1635ZM66.5988 69H52.1619V1.32691H66.5988V69ZM125.286 27.5841L114.819 60.789H100.202L89.7352 27.5841L90.1864 69H75.9299V1.32691H94.0663L107.511 43.4647L120.955 1.32691H139.091V69H124.835L125.286 27.5841ZM175.742 69H160.403L187.472 0.96599H204.075L214.541 69H199.202L197.668 55.1045H180.524L175.742 69ZM193.698 18.0196L184.765 43.6451H196.315L193.698 18.0196ZM258.494 67.827C254.705 69.4512 250.223 70.2632 245.05 70.2632C239.877 70.2632 235.576 69.4211 232.147 67.7368C228.718 65.9923 226.252 63.5862 224.748 60.5183C223.244 57.3903 222.282 53.6908 221.861 49.4199C221.44 45.0888 221.62 40.3367 222.402 35.1635C223.064 29.6895 224.056 24.9373 225.38 20.907C226.703 16.8165 228.538 13.1471 230.884 9.89884C233.29 6.65053 236.388 4.21429 240.177 2.59014C243.967 0.905832 248.449 0.0636776 253.622 0.0636776C258.795 0.0636776 263.096 0.93591 266.525 2.68037C269.954 4.36468 272.42 6.77084 273.924 9.89884C275.428 12.9667 276.39 16.6661 276.811 20.9972C277.292 25.2681 277.142 29.9902 276.36 35.1635C275.638 40.6375 274.616 45.4197 273.292 49.5102C271.969 53.5405 270.104 57.1798 267.698 60.4281C265.352 63.6764 262.284 66.1427 258.494 67.827ZM260.931 18.2001C259.487 14.8315 256.539 13.1471 252.088 13.1471C247.637 13.1471 244.238 14.8615 241.892 18.2903C239.606 21.6589 237.982 27.2833 237.019 35.1635C235.997 43.0436 236.237 48.6981 237.741 52.1268C239.245 55.4955 242.223 57.1798 246.674 57.1798C251.125 57.1798 254.494 55.4955 256.78 52.1268C259.066 48.7582 260.72 43.1038 261.743 35.1635C262.705 27.2231 262.434 21.5687 260.931 18.2001ZM341.087 1.32691H356.426L329.267 69.3609H312.664L302.288 1.32691H317.627L322.951 52.8487L341.087 1.32691ZM369.478 69H355.041L363.342 1.32691H377.779L369.478 69ZM423.564 1.32691H438.903L411.744 69.3609H395.141L384.765 1.32691H400.104L405.427 52.8487L423.564 1.32691ZM474.555 67.827C470.765 69.4512 466.284 70.2632 461.11 70.2632C455.937 70.2632 451.636 69.4211 448.207 67.7368C444.779 65.9923 442.312 63.5862 440.808 60.5183C439.305 57.3903 438.342 53.6908 437.921 49.4199C437.5 45.0888 437.68 40.3367 438.462 35.1635C439.124 29.6895 440.117 24.9373 441.44 20.907C442.763 16.8165 444.598 13.1471 446.944 9.89884C449.35 6.65053 452.448 4.21429 456.238 2.59014C460.028 0.905832 464.509 0.0636776 469.682 0.0636776C474.855 0.0636776 479.156 0.93591 482.585 2.68037C486.014 4.36468 488.48 6.77084 489.984 9.89884C491.488 12.9667 492.45 16.6661 492.872 20.9972C493.353 25.2681 493.202 29.9902 492.42 35.1635C491.699 40.6375 490.676 45.4197 489.353 49.5102C488.029 53.5405 486.164 57.1798 483.758 60.4281C481.412 63.6764 478.344 66.1427 474.555 67.827ZM476.991 18.2001C475.547 14.8315 472.6 13.1471 468.148 13.1471C463.697 13.1471 460.298 14.8615 457.952 18.2903C455.666 21.6589 454.042 27.2833 453.08 35.1635C452.057 43.0436 452.298 48.6981 453.802 52.1268C455.305 55.4955 458.283 57.1798 462.734 57.1798C467.186 57.1798 470.554 55.4955 472.84 52.1268C475.126 48.7582 476.78 43.1038 477.803 35.1635C478.765 27.2231 478.495 21.5687 476.991 18.2001Z" fill="url(#paint0_linear_134_1906)"/>
<defs>
<linearGradient id="paint0_linear_134_1906" x1="71.3397" y1="20.4873" x2="85.5315" y2="120.537" gradientUnits="userSpaceOnUse">
<stop stop-color="#DEB05A"/>
<stop offset="0.535564" stop-color="#B8883C"/>
<stop offset="1" stop-color="#996221"/>
</linearGradient>
</defs>
</svg>
