<svg width="953" height="189" viewBox="0 0 953 189" fill="none" xmlns="http://www.w3.org/2000/svg">
<g filter="url(#filter0_d_127_432)">
<path d="M75.0278 86.3959C77.7299 86.7889 79.9653 87.2065 81.7339 87.6487C83.5025 88.0417 85.2221 88.6312 86.8924 89.4173C88.6119 90.1542 89.9384 91.0877 90.8719 92.2176C91.8053 93.2985 92.5422 94.6987 93.0827 96.4182C93.6722 98.0885 93.967 100.078 93.967 102.387C93.967 114.817 86.745 121.032 72.3012 121.032C64.6371 121.032 58.889 119.902 55.0569 117.642V105.556C60.019 108.406 65.374 109.83 71.1221 109.83C75.0524 109.83 77.8282 109.29 79.4494 108.209C81.0707 107.079 81.8813 105.507 81.8813 103.493C81.8813 101.429 81.3409 99.9554 80.26 99.0711C79.2283 98.1868 77.2877 97.5481 74.4383 97.1551C67.3637 96.2216 62.3526 94.5267 59.4049 92.0703C56.5062 89.6138 55.0569 85.7081 55.0569 80.353C55.0569 75.1454 56.7519 71.0677 60.1418 68.12C63.5317 65.1722 68.7393 63.6984 75.7648 63.6984C82.8393 63.6984 88.047 64.6072 91.3877 66.425V77.8475C89.7665 77.0614 87.5557 76.3736 84.7553 75.7841C82.0041 75.1945 79.302 74.8997 76.6491 74.8997C70.3115 74.8997 67.1426 76.7175 67.1426 80.353C67.1426 82.2691 67.7076 83.6692 68.8376 84.5535C70.0167 85.3887 72.0801 86.0028 75.0278 86.3959ZM108.794 120H96.2659L111.594 64.4353H125.154L140.482 120H127.954L125.375 108.651H111.373L108.794 120ZM108.941 61.7823H102.53C102.53 54.6587 105.723 51.0968 112.11 51.0968C114.419 51.0968 116.826 51.8583 119.332 53.3813C121.837 54.8552 123.581 55.5921 124.564 55.5921C126.726 55.5921 127.807 54.7078 127.807 52.9391H134.218C134.218 60.0628 131.025 63.6247 124.638 63.6247C122.329 63.6247 119.921 62.8877 117.416 61.4139C114.91 59.8909 113.166 59.1294 112.184 59.1294C110.022 59.1294 108.941 60.0137 108.941 61.7823ZM118.374 78.3633L113.657 99.2922H123.09L118.374 78.3633ZM176.305 118.968C173.358 120.344 169.771 121.032 165.546 121.032C161.321 121.032 157.735 120.344 154.787 118.968C151.839 117.593 149.555 115.603 147.933 112.999C146.361 110.346 145.231 107.374 144.544 104.082C143.856 100.741 143.512 96.8358 143.512 92.365C143.512 87.8943 143.856 84.0131 144.544 80.7215C145.231 77.3807 146.361 74.4084 147.933 71.8046C149.555 69.1517 151.839 67.1374 154.787 65.7618C157.735 64.3862 161.321 63.6984 165.546 63.6984C169.771 63.6984 173.358 64.3862 176.305 65.7618C179.253 67.1374 181.513 69.1517 183.085 71.8046C184.706 74.4084 185.861 77.3807 186.549 80.7215C187.237 84.0131 187.58 87.8943 187.58 92.365C187.58 96.8358 187.237 100.741 186.549 104.082C185.861 107.374 184.706 110.346 183.085 112.999C181.513 115.603 179.253 117.593 176.305 118.968ZM173.284 78.5107C171.761 75.7595 169.182 74.3839 165.546 74.3839C161.911 74.3839 159.307 75.7595 157.735 78.5107C156.212 81.2619 155.45 85.88 155.45 92.365C155.45 98.85 156.212 103.468 157.735 106.219C159.307 108.971 161.911 110.346 165.546 110.346C169.182 110.346 171.761 108.971 173.284 106.219C174.856 103.468 175.642 98.85 175.642 92.365C175.642 85.88 174.856 81.2619 173.284 78.5107ZM234.441 63.6984H243.726V98.1131H249.548V109.241H243.726V120H232.304V109.241H207.322V101.356L234.441 63.6984ZM221.471 98.3342L232.304 98.1131L232.525 82.9323L221.471 98.3342ZM280.505 120H267.977L283.305 64.4353H296.865L312.193 120H299.665L297.086 108.651H283.084L280.505 120ZM290.085 78.3633L285.368 99.2922H294.801L290.085 78.3633ZM357.857 120H346.213L328.379 86.9854L328.674 120H317.031V64.7301H328.674L346.508 97.7446L346.213 64.7301H357.857V120ZM397.097 118.968C394.15 120.344 390.563 121.032 386.338 121.032C382.113 121.032 378.527 120.344 375.579 118.968C372.631 117.593 370.347 115.603 368.725 112.999C367.153 110.346 366.023 107.374 365.335 104.082C364.648 100.741 364.304 96.8358 364.304 92.365C364.304 87.8943 364.648 84.0131 365.335 80.7215C366.023 77.3807 367.153 74.4084 368.725 71.8046C370.347 69.1517 372.631 67.1374 375.579 65.7618C378.527 64.3862 382.113 63.6984 386.338 63.6984C390.563 63.6984 394.15 64.3862 397.097 65.7618C400.045 67.1374 402.305 69.1517 403.877 71.8046C405.498 74.4084 406.653 77.3807 407.341 80.7215C408.028 84.0131 408.372 87.8943 408.372 92.365C408.372 96.8358 408.028 100.741 407.341 104.082C406.653 107.374 405.498 110.346 403.877 112.999C402.305 115.603 400.045 117.593 397.097 118.968ZM394.076 78.5107C392.553 75.7595 389.974 74.3839 386.338 74.3839C382.702 74.3839 380.099 75.7595 378.527 78.5107C377.004 81.2619 376.242 85.88 376.242 92.365C376.242 98.85 377.004 103.468 378.527 106.219C380.099 108.971 382.702 110.346 386.338 110.346C389.974 110.346 392.553 108.971 394.076 106.219C395.648 103.468 396.434 98.85 396.434 92.365C396.434 85.88 395.648 81.2619 394.076 78.5107ZM433.995 86.3959C436.697 86.7889 438.932 87.2065 440.701 87.6487C442.469 88.0417 444.189 88.6312 445.859 89.4173C447.579 90.1542 448.905 91.0877 449.839 92.2176C450.772 93.2985 451.509 94.6987 452.049 96.4182C452.639 98.0885 452.934 100.078 452.934 102.387C452.934 114.817 445.712 121.032 431.268 121.032C423.604 121.032 417.856 119.902 414.024 117.642V105.556C418.986 108.406 424.341 109.83 430.089 109.83C434.019 109.83 436.795 109.29 438.416 108.209C440.037 107.079 440.848 105.507 440.848 103.493C440.848 101.429 440.308 99.9554 439.227 99.0711C438.195 98.1868 436.254 97.5481 433.405 97.1551C426.33 96.2216 421.319 94.5267 418.372 92.0703C415.473 89.6138 414.024 85.7081 414.024 80.353C414.024 75.1454 415.719 71.0677 419.108 68.12C422.498 65.1722 427.706 63.6984 434.731 63.6984C441.806 63.6984 447.014 64.6072 450.354 66.425V77.8475C448.733 77.0614 446.522 76.3736 443.722 75.7841C440.971 75.1945 438.269 74.8997 435.616 74.8997C429.278 74.8997 426.109 76.7175 426.109 80.353C426.109 82.2691 426.674 83.6692 427.804 84.5535C428.983 85.3887 431.047 86.0028 433.995 86.3959ZM491.248 120H473.341V64.7301H491.248C495.768 64.7301 499.6 65.4179 502.745 66.7935C505.938 68.1691 508.37 70.1588 510.04 72.7626C511.76 75.3173 512.988 78.1914 513.725 81.3847C514.462 84.529 514.83 88.1891 514.83 92.365C514.83 96.541 514.462 100.226 513.725 103.419C512.988 106.563 511.76 109.437 510.04 112.041C508.37 114.596 505.938 116.561 502.745 117.937C499.6 119.312 495.768 120 491.248 120ZM485.132 75.4893V109.241H491.47C495.596 109.241 498.47 107.841 500.092 105.04C501.762 102.24 502.597 98.0148 502.597 92.365C502.597 86.7152 501.762 82.4901 500.092 79.6898C498.47 76.8894 495.596 75.4893 491.47 75.4893H485.132ZM553.927 86.1748V96.7129H532.629V109.241H556.064V120H520.839V64.7301H556.064V75.4893H532.629V86.1748H553.927ZM617.212 120H605.421V96.8603H588.619V120H576.828V64.7301H588.619V86.1011H605.421V64.7301H617.212V120ZM636.567 120H624.777V64.7301H636.567V120ZM663.422 86.3959C666.124 86.7889 668.36 87.2065 670.128 87.6487C671.897 88.0417 673.617 88.6312 675.287 89.4173C677.006 90.1542 678.333 91.0877 679.266 92.2176C680.2 93.2985 680.937 94.6987 681.477 96.4182C682.067 98.0885 682.362 100.078 682.362 102.387C682.362 114.817 675.14 121.032 660.696 121.032C653.032 121.032 647.284 119.902 643.451 117.642V105.556C648.413 108.406 653.769 109.83 659.517 109.83C663.447 109.83 666.223 109.29 667.844 108.209C669.465 107.079 670.276 105.507 670.276 103.493C670.276 101.429 669.735 99.9554 668.655 99.0711C667.623 98.1868 665.682 97.5481 662.833 97.1551C655.758 96.2216 650.747 94.5267 647.799 92.0703C644.901 89.6138 643.451 85.7081 643.451 80.353C643.451 75.1454 645.146 71.0677 648.536 68.12C651.926 65.1722 657.134 63.6984 664.159 63.6984C671.234 63.6984 676.441 64.6072 679.782 66.425V77.8475C678.161 77.0614 675.95 76.3736 673.15 75.7841C670.399 75.1945 667.697 74.8997 665.044 74.8997C658.706 74.8997 655.537 76.7175 655.537 80.353C655.537 82.2691 656.102 83.6692 657.232 84.5535C658.411 85.3887 660.475 86.0028 663.422 86.3959ZM721.968 75.4893H708.63V120H696.839V75.4893H683.5V64.7301H721.968V75.4893ZM749.934 61.7823H741.09L744.775 52.9391H757.303L749.934 61.7823ZM756.64 118.968C753.692 120.344 750.106 121.032 745.88 121.032C741.655 121.032 738.069 120.344 735.121 118.968C732.174 117.593 729.889 115.603 728.268 112.999C726.696 110.346 725.566 107.374 724.878 104.082C724.19 100.741 723.846 96.8358 723.846 92.365C723.846 87.8943 724.19 84.0131 724.878 80.7215C725.566 77.3807 726.696 74.4084 728.268 71.8046C729.889 69.1517 732.174 67.1374 735.121 65.7618C738.069 64.3862 741.655 63.6984 745.88 63.6984C750.106 63.6984 753.692 64.3862 756.64 65.7618C759.587 67.1374 761.847 69.1517 763.419 71.8046C765.041 74.4084 766.195 77.3807 766.883 80.7215C767.571 84.0131 767.915 87.8943 767.915 92.365C767.915 96.8358 767.571 100.741 766.883 104.082C766.195 107.374 765.041 110.346 763.419 112.999C761.847 115.603 759.587 117.593 756.64 118.968ZM753.618 78.5107C752.095 75.7595 749.516 74.3839 745.88 74.3839C742.245 74.3839 739.641 75.7595 738.069 78.5107C736.546 81.2619 735.784 85.88 735.784 92.365C735.784 98.85 736.546 103.468 738.069 106.219C739.641 108.971 742.245 110.346 745.88 110.346C749.516 110.346 752.095 108.971 753.618 106.219C755.19 103.468 755.976 98.85 755.976 92.365C755.976 85.88 755.19 81.2619 753.618 78.5107ZM786.094 99.2922V120H774.303V64.7301H793.095C800.218 64.7301 805.279 66.2285 808.276 69.2254C811.322 72.1731 812.845 76.4473 812.845 82.048C812.845 89.4664 810.265 94.4284 805.107 96.934L814.908 120H801.127L793.684 99.2922H786.094ZM786.094 75.4893V88.6067H794.127C798.057 88.6067 800.022 86.4204 800.022 82.048C800.022 80.0828 799.629 78.5107 798.843 77.3316C798.057 76.1034 796.485 75.4893 794.127 75.4893H786.094ZM831.524 120H819.733V64.7301H831.524V120ZM849.756 120H837.228L852.557 64.4353H866.116L881.444 120H868.917L866.337 108.651H852.336L849.756 120ZM859.336 78.3633L854.62 99.2922H864.053L859.336 78.3633ZM891.22 129.212H883.187L885.472 108.946H897.999L891.22 129.212Z" fill="url(#paint0_linear_127_432)"/>
</g>
<defs>
<filter id="filter0_d_127_432" x="0.0566406" y="0.0968018" width="952.942" height="188.115" filterUnits="userSpaceOnUse" color-interpolation-filters="sRGB">
<feFlood flood-opacity="0" result="BackgroundImageFix"/>
<feColorMatrix in="SourceAlpha" type="matrix" values="0 0 0 0 0 0 0 0 0 0 0 0 0 0 0 0 0 0 127 0" result="hardAlpha"/>
<feOffset dy="4"/>
<feGaussianBlur stdDeviation="27.5"/>
<feComposite in2="hardAlpha" operator="out"/>
<feColorMatrix type="matrix" values="0 0 0 0 0.870588 0 0 0 0 0.690196 0 0 0 0 0.352941 0 0 0 0.26 0"/>
<feBlend mode="normal" in2="BackgroundImageFix" result="effect1_dropShadow_127_432"/>
<feBlend mode="normal" in="SourceGraphic" in2="effect1_dropShadow_127_432" result="shape"/>
</filter>
<linearGradient id="paint0_linear_127_432" x1="180.183" y1="75.7786" x2="189.106" y2="179.912" gradientUnits="userSpaceOnUse">
<stop stop-color="#DEB05A"/>
<stop offset="0.535564" stop-color="#B8883C"/>
<stop offset="1" stop-color="#996221"/>
</linearGradient>
</defs>
</svg>
