<svg width="324" height="159" viewBox="0 0 324 159" fill="none" xmlns="http://www.w3.org/2000/svg">
<g filter="url(#filter0_d_127_885)">
<path d="M53.5685 52.712C55.1998 52.9493 56.5494 53.2014 57.6172 53.4684C58.6849 53.7057 59.7231 54.0616 60.7315 54.5362C61.7697 54.9811 62.5705 55.5446 63.1341 56.2268C63.6976 56.8794 64.1425 57.7247 64.4688 58.7628C64.8247 59.7713 65.0027 60.9726 65.0027 62.3666C65.0027 69.8708 60.6426 73.6229 51.9223 73.6229C47.2952 73.6229 43.8249 72.9407 41.5114 71.5763V64.2797C44.5071 66.0001 47.7401 66.8602 51.2104 66.8602C53.5833 66.8602 55.2591 66.534 56.2379 65.8814C57.2167 65.1992 57.7061 64.2501 57.7061 63.034C57.7061 61.7882 57.3799 60.8984 56.7273 60.3645C56.1045 59.8306 54.9329 59.445 53.2125 59.2077C48.9414 58.6442 45.916 57.6209 44.1363 56.1379C42.3864 54.6548 41.5114 52.2968 41.5114 49.0638C41.5114 45.9197 42.5347 43.4579 44.5813 41.6782C46.6278 39.8986 49.7719 39.0088 54.0134 39.0088C58.2845 39.0088 61.4286 39.5575 63.4455 40.6549V47.5511C62.4667 47.0765 61.132 46.6612 59.4413 46.3053C57.7803 45.9494 56.149 45.7714 54.5473 45.7714C50.721 45.7714 48.8079 46.8689 48.8079 49.0638C48.8079 50.2205 49.149 51.0659 49.8312 51.5998C50.5431 52.104 51.7888 52.4747 53.5685 52.712ZM73.9541 73H66.3906L75.6448 39.4537H83.8311L93.0853 73H85.5218L83.9646 66.1484H75.5113L73.9541 73ZM74.0431 37.852H70.1724C70.1724 33.5512 72.1003 31.4008 75.9562 31.4008C77.3503 31.4008 78.8036 31.8605 80.3163 32.78C81.829 33.6698 82.882 34.1147 83.4752 34.1147C84.7803 34.1147 85.4328 33.5808 85.4328 32.5131H89.3036C89.3036 36.8139 87.3756 38.9643 83.5197 38.9643C82.1256 38.9643 80.6723 38.5194 79.1596 37.6295C77.6469 36.7101 76.5939 36.2503 76.0007 36.2503C74.6956 36.2503 74.0431 36.7842 74.0431 37.852ZM79.738 47.8625L76.8905 60.498H82.5854L79.738 47.8625ZM114.713 72.3771C112.934 73.2076 110.768 73.6229 108.218 73.6229C105.667 73.6229 103.501 73.2076 101.722 72.3771C99.9422 71.5466 98.5629 70.3454 97.5841 68.7733C96.635 67.1717 95.9528 65.3772 95.5375 63.3899C95.1223 61.373 94.9147 59.0149 94.9147 56.3158C94.9147 53.6167 95.1223 51.2735 95.5375 49.2862C95.9528 47.2693 96.635 45.4748 97.5841 43.9028C98.5629 42.3011 99.9422 41.085 101.722 40.2545C103.501 39.424 105.667 39.0088 108.218 39.0088C110.768 39.0088 112.934 39.424 114.713 40.2545C116.493 41.085 117.857 42.3011 118.806 43.9028C119.785 45.4748 120.482 47.2693 120.897 49.2862C121.313 51.2735 121.52 53.6167 121.52 56.3158C121.52 59.0149 121.313 61.373 120.897 63.3899C120.482 65.3772 119.785 67.1717 118.806 68.7733C117.857 70.3454 116.493 71.5466 114.713 72.3771ZM112.889 47.9515C111.97 46.2905 110.412 45.46 108.218 45.46C106.023 45.46 104.451 46.2905 103.501 47.9515C102.582 49.6125 102.122 52.4006 102.122 56.3158C102.122 60.231 102.582 63.0192 103.501 64.6802C104.451 66.3412 106.023 67.1717 108.218 67.1717C110.412 67.1717 111.97 66.3412 112.889 64.6802C113.838 63.0192 114.313 60.231 114.313 56.3158C114.313 52.4006 113.838 49.6125 112.889 47.9515ZM149.812 39.0088H155.417V59.7861H158.932V66.5043H155.417V73H148.521V66.5043H133.439V61.7437L149.812 39.0088ZM141.981 59.9196L148.521 59.7861L148.655 50.621L141.981 59.9196ZM177.622 73H170.058L179.313 39.4537H187.499L196.753 73H189.19L187.632 66.1484H179.179L177.622 73ZM183.406 47.8625L180.558 60.498H186.253L183.406 47.8625ZM224.322 73H217.292L206.526 53.068L206.704 73H199.674V39.6316H206.704L217.47 59.5637L217.292 39.6316H224.322V73ZM248.013 72.3771C246.233 73.2076 244.068 73.6229 241.517 73.6229C238.966 73.6229 236.801 73.2076 235.021 72.3771C233.242 71.5466 231.863 70.3454 230.884 68.7733C229.935 67.1717 229.252 65.3772 228.837 63.3899C228.422 61.373 228.214 59.0149 228.214 56.3158C228.214 53.6167 228.422 51.2735 228.837 49.2862C229.252 47.2693 229.935 45.4748 230.884 43.9028C231.863 42.3011 233.242 41.085 235.021 40.2545C236.801 39.424 238.966 39.0088 241.517 39.0088C244.068 39.0088 246.233 39.424 248.013 40.2545C249.793 41.085 251.157 42.3011 252.106 43.9028C253.085 45.4748 253.782 47.2693 254.197 49.2862C254.612 51.2735 254.82 53.6167 254.82 56.3158C254.82 59.0149 254.612 61.373 254.197 63.3899C253.782 65.3772 253.085 67.1717 252.106 68.7733C251.157 70.3454 249.793 71.5466 248.013 72.3771ZM246.189 47.9515C245.269 46.2905 243.712 45.46 241.517 45.46C239.322 45.46 237.75 46.2905 236.801 47.9515C235.882 49.6125 235.422 52.4006 235.422 56.3158C235.422 60.231 235.882 63.0192 236.801 64.6802C237.75 66.3412 239.322 67.1717 241.517 67.1717C243.712 67.1717 245.269 66.3412 246.189 64.6802C247.138 63.0192 247.612 60.231 247.612 56.3158C247.612 52.4006 247.138 49.6125 246.189 47.9515ZM270.289 52.712C271.92 52.9493 273.27 53.2014 274.338 53.4684C275.406 53.7057 276.444 54.0616 277.452 54.5362C278.49 54.9811 279.291 55.5446 279.855 56.2268C280.418 56.8794 280.863 57.7247 281.189 58.7628C281.545 59.7713 281.723 60.9726 281.723 62.3666C281.723 69.8708 277.363 73.6229 268.643 73.6229C264.016 73.6229 260.545 72.9407 258.232 71.5763V64.2797C261.228 66.0001 264.461 66.8602 267.931 66.8602C270.304 66.8602 271.98 66.534 272.959 65.8814C273.937 65.1992 274.427 64.2501 274.427 63.034C274.427 61.7882 274.1 60.8984 273.448 60.3645C272.825 59.8306 271.653 59.445 269.933 59.2077C265.662 58.6442 262.637 57.6209 260.857 56.1379C259.107 54.6548 258.232 52.2968 258.232 49.0638C258.232 45.9197 259.255 43.4579 261.302 41.6782C263.348 39.8986 266.492 39.0088 270.734 39.0088C275.005 39.0088 278.149 39.5575 280.166 40.6549V47.5511C279.187 47.0765 277.853 46.6612 276.162 46.3053C274.501 45.9494 272.87 45.7714 271.268 45.7714C267.442 45.7714 265.528 46.8689 265.528 49.0638C265.528 50.2205 265.87 51.0659 266.552 51.5998C267.264 52.104 268.509 52.4747 270.289 52.712ZM44.3604 117H33.549V83.6316H44.3604C47.0892 83.6316 49.4027 84.0469 51.301 84.8774C53.2289 85.7079 54.6971 86.9092 55.7056 88.4812C56.7437 90.0235 57.4853 91.7587 57.9302 93.6866C58.3751 95.5849 58.5975 97.7947 58.5975 100.316C58.5975 102.837 58.3751 105.062 57.9302 106.989C57.4853 108.888 56.7437 110.623 55.7056 112.195C54.6971 113.737 53.2289 114.924 51.301 115.754C49.4027 116.585 47.0892 117 44.3604 117ZM40.6676 90.1273V110.504H44.4938C46.9853 110.504 48.7205 109.659 49.6993 107.968C50.7078 106.278 51.212 103.727 51.212 100.316C51.212 96.9048 50.7078 94.354 49.6993 92.6633C48.7205 90.9727 46.9853 90.1273 44.4938 90.1273H40.6676ZM82.2015 96.5786V102.941H69.3435V110.504H83.4917V117H62.225V83.6316H83.4917V90.1273H69.3435V96.5786H82.2015ZM120.409 117H113.29V103.03H103.146V117H96.0278V83.6316H103.146V96.5341H113.29V83.6316H120.409V117ZM132.094 117H124.976V83.6316H132.094V117ZM148.308 96.712C149.939 96.9493 151.289 97.2014 152.356 97.4684C153.424 97.7057 154.462 98.0616 155.471 98.5362C156.509 98.9811 157.31 99.5446 157.873 100.227C158.437 100.879 158.882 101.725 159.208 102.763C159.564 103.771 159.742 104.973 159.742 106.367C159.742 113.871 155.382 117.623 146.662 117.623C142.034 117.623 138.564 116.941 136.251 115.576V108.28C139.246 110 142.479 110.86 145.95 110.86C148.323 110.86 149.998 110.534 150.977 109.881C151.956 109.199 152.445 108.25 152.445 107.034C152.445 105.788 152.119 104.898 151.467 104.365C150.844 103.831 149.672 103.445 147.952 103.208C143.681 102.644 140.655 101.621 138.876 100.138C137.126 98.6548 136.251 96.2968 136.251 93.0638C136.251 89.9197 137.274 87.4579 139.32 85.6782C141.367 83.8986 144.511 83.0088 148.753 83.0088C153.024 83.0088 156.168 83.5575 158.185 84.6549V91.5511C157.206 91.0765 155.871 90.6612 154.181 90.3053C152.52 89.9494 150.888 89.7714 149.286 89.7714C145.46 89.7714 143.547 90.8689 143.547 93.0638C143.547 94.2205 143.888 95.0659 144.57 95.5998C145.282 96.104 146.528 96.4747 148.308 96.712ZM183.654 90.1273H175.601V117H168.482V90.1273H160.429V83.6316H183.654V90.1273ZM200.538 81.852H195.199L197.423 76.5131H204.987L200.538 81.852ZM204.586 116.377C202.807 117.208 200.641 117.623 198.09 117.623C195.54 117.623 193.374 117.208 191.595 116.377C189.815 115.547 188.436 114.345 187.457 112.773C186.508 111.172 185.826 109.377 185.411 107.39C184.995 105.373 184.788 103.015 184.788 100.316C184.788 97.6167 184.995 95.2735 185.411 93.2862C185.826 91.2693 186.508 89.4748 187.457 87.9028C188.436 86.3011 189.815 85.085 191.595 84.2545C193.374 83.424 195.54 83.0088 198.09 83.0088C200.641 83.0088 202.807 83.424 204.586 84.2545C206.366 85.085 207.73 86.3011 208.679 87.9028C209.658 89.4748 210.355 91.2693 210.77 93.2862C211.186 95.2735 211.393 97.6167 211.393 100.316C211.393 103.015 211.186 105.373 210.77 107.39C210.355 109.377 209.658 111.172 208.679 112.773C207.73 114.345 206.366 115.547 204.586 116.377ZM202.762 91.9515C201.843 90.2905 200.285 89.46 198.09 89.46C195.896 89.46 194.324 90.2905 193.374 91.9515C192.455 93.6125 191.995 96.4006 191.995 100.316C191.995 104.231 192.455 107.019 193.374 108.68C194.324 110.341 195.896 111.172 198.09 111.172C200.285 111.172 201.843 110.341 202.762 108.68C203.711 107.019 204.186 104.231 204.186 100.316C204.186 96.4006 203.711 93.6125 202.762 91.9515ZM222.369 104.498V117H215.25V83.6316H226.595C230.896 83.6316 233.951 84.5363 235.761 86.3456C237.6 88.1252 238.519 90.7057 238.519 94.0871C238.519 98.5658 236.962 101.562 233.847 103.074L239.765 117H231.445L226.951 104.498H222.369ZM222.369 90.1273V98.0468H227.218C229.591 98.0468 230.778 96.7269 230.778 94.0871C230.778 92.9006 230.54 91.9515 230.066 91.2396C229.591 90.4981 228.642 90.1273 227.218 90.1273H222.369ZM249.796 117H242.678V83.6316H249.796V117ZM260.804 117H253.24L262.495 83.4537H270.681L279.935 117H272.372L270.814 110.148H262.361L260.804 117ZM266.588 91.8625L263.74 104.498H269.435L266.588 91.8625ZM285.837 122.561H280.987L282.366 110.326H289.93L285.837 122.561Z" fill="url(#paint0_linear_127_885)"/>
</g>
<defs>
<filter id="filter0_d_127_885" x="0.343433" y="0.610315" width="322.792" height="157.571" filterUnits="userSpaceOnUse" color-interpolation-filters="sRGB">
<feFlood flood-opacity="0" result="BackgroundImageFix"/>
<feColorMatrix in="SourceAlpha" type="matrix" values="0 0 0 0 0 0 0 0 0 0 0 0 0 0 0 0 0 0 127 0" result="hardAlpha"/>
<feOffset dy="2.41494"/>
<feGaussianBlur stdDeviation="16.6027"/>
<feComposite in2="hardAlpha" operator="out"/>
<feColorMatrix type="matrix" values="0 0 0 0 0.870588 0 0 0 0 0.690196 0 0 0 0 0.352941 0 0 0 0.26 0"/>
<feBlend mode="normal" in2="BackgroundImageFix" result="effect1_dropShadow_127_885"/>
<feBlend mode="normal" in="SourceGraphic" in2="effect1_dropShadow_127_885" result="shape"/>
</filter>
<linearGradient id="paint0_linear_127_885" x1="59.9356" y1="52.8178" x2="94.0091" y2="167.431" gradientUnits="userSpaceOnUse">
<stop stop-color="#DEB05A"/>
<stop offset="0.535564" stop-color="#B8883C"/>
<stop offset="1" stop-color="#996221"/>
</linearGradient>
</defs>
</svg>
