<svg width="288" height="93" viewBox="0 0 288 93" fill="none" xmlns="http://www.w3.org/2000/svg">
<path d="M105.511 54.5916H106.791V64.5561H105.511V54.5916Z" fill="white"/>
<path d="M112.878 55.6719H109.558V54.6318H117.364V55.6719H114.244V64.5556H112.845V55.6719H112.886H112.878Z" fill="white"/>
<path d="M121.843 54.5916H123.446L127.088 64.5153H125.607L124.527 61.6357H120.803L119.84 64.5153H118.359L121.843 54.5916ZM124.086 60.4732L122.687 56.3128L121.088 60.4732H124.09H124.086Z" fill="white"/>
<path d="M129.491 54.591H130.89V63.3523H135.695V64.5515H129.491V54.5869V54.591Z" fill="white"/>
<path d="M138.056 58.7148C138.056 58.5557 138.097 58.3966 138.138 58.2335C138.338 57.3117 138.86 56.4347 139.659 55.672C140.459 54.8725 141.54 54.5095 142.861 54.5095C143.02 54.5095 143.183 54.5095 143.342 54.5503C143.501 54.5503 143.665 54.5911 143.824 54.6319C144.745 54.791 145.627 55.2723 146.385 56.0309C147.185 56.7896 147.584 58.0295 147.625 59.6325C147.625 61.0315 147.185 62.2348 146.344 63.2749C145.504 64.315 144.223 64.833 142.502 64.833C141.022 64.833 139.9 64.3109 139.141 63.2341C138.383 62.194 138.02 60.8317 138.02 59.1512C138.02 59.0329 138.02 58.8698 138.06 58.7107L138.056 58.7148ZM139.414 60.5543C139.455 60.8358 139.533 61.0723 139.614 61.3538C139.814 61.9126 140.132 62.3939 140.573 62.8752C141.013 63.3565 141.654 63.593 142.535 63.6746C142.616 63.6746 142.653 63.6746 142.735 63.7154H142.934C143.816 63.7154 144.615 63.3157 145.337 62.5529C146.059 61.7943 146.377 60.6318 146.299 59.0737C146.259 58.1519 145.9 57.3525 145.3 56.6754C144.701 55.9942 143.901 55.6353 142.857 55.6353C142.739 55.6353 142.616 55.6353 142.498 55.6761C142.38 55.7169 142.257 55.7168 142.139 55.7576C141.417 55.9167 140.777 56.3164 140.177 56.9568C139.578 57.5972 139.296 58.5557 139.296 59.8772C139.337 60.0771 139.378 60.3178 139.414 60.5584V60.5543Z" fill="white"/>
<path d="M155.628 54.5916H157.549L160.351 62.9123L163.153 54.5916H165.074V64.5561H163.671V56.635L160.992 64.5561H159.711L157.031 56.7533V64.5561H155.632V54.5916H155.628Z" fill="white"/>
<path d="M170.996 54.5916H172.599L176.241 64.5153H174.761L173.68 61.6357H169.956L168.993 64.5153H167.513L170.996 54.5916ZM173.239 60.4732L171.84 56.3128L170.241 60.4732H173.243H173.239Z" fill="white"/>
<path d="M178.962 54.5916H184.008C184.689 54.5916 185.289 54.8322 185.77 55.2727C186.251 55.7132 186.569 56.3536 186.651 57.153C186.651 57.3121 186.651 57.4753 186.61 57.6751C186.61 57.875 186.569 58.0341 186.492 58.2339C186.41 58.4746 186.292 58.7152 186.092 58.9559C185.892 59.1965 185.611 59.3964 185.252 59.5963C185.733 59.8369 186.051 60.1551 186.214 60.5589C186.333 60.9586 186.414 61.3583 186.455 61.758V62.2801C186.455 62.6798 186.455 63.0388 186.496 63.361C186.537 63.6791 186.696 63.9606 186.977 64.1604V64.4786H185.374C185.293 64.2787 185.256 64.1197 185.215 63.9198C185.174 63.7199 185.174 63.5201 185.134 63.3202C185.134 63.2386 185.134 63.1203 185.093 63.0388C185.052 62.9572 185.093 62.8389 185.093 62.7573V62.5983C185.093 62.0395 185.011 61.5174 184.852 61.0361C184.734 60.5548 184.252 60.2774 183.49 60.1958H180.166V64.5561H178.885V54.5916H178.966H178.962ZM183.686 59.0742H183.845C184.244 59.0742 184.603 58.9151 184.885 58.5521C185.166 58.1931 185.325 57.8301 185.325 57.3937V57.2346C185.325 56.8757 185.166 56.5127 184.844 56.1945C184.522 55.8723 184.044 55.6724 183.323 55.6357H180.239V58.9559H183.681V59.0742H183.686Z" fill="white"/>
<path d="M190.812 61.3538C190.812 62.1532 191.094 62.7528 191.612 63.1525C192.134 63.5523 192.733 63.7521 193.415 63.7521H193.496C194.055 63.7521 194.618 63.6338 195.095 63.3524C195.572 63.0709 195.854 62.712 195.935 62.1899V61.9493C195.935 61.3089 195.654 60.8684 195.136 60.6685C194.614 60.4279 194.014 60.2688 193.333 60.1505C193.252 60.1505 193.174 60.1097 193.092 60.1097C193.011 60.1097 192.933 60.0689 192.893 60.0689C192.093 59.9099 191.371 59.6284 190.69 59.2695C190.05 58.9106 189.727 58.1478 189.809 57.0669C189.85 56.3858 190.168 55.7862 190.772 55.2682C191.371 54.7461 192.211 54.5095 193.333 54.5095C194.455 54.5095 195.377 54.7502 196.013 55.2682C196.694 55.7903 197.012 56.5081 196.935 57.4707H195.654V57.3117C195.654 56.7529 195.413 56.3124 194.932 56.0309C194.451 55.7495 193.933 55.5904 193.37 55.5496H193.288C192.729 55.5496 192.248 55.6679 191.767 55.9493C191.286 56.2308 191.086 56.6713 191.045 57.2301C191.126 57.7114 191.404 58.0295 191.885 58.2294C192.366 58.4293 192.925 58.5883 193.525 58.7107C193.643 58.7515 193.765 58.7515 193.847 58.7923C193.965 58.8331 194.088 58.8331 194.206 58.8739C194.928 59.0329 195.605 59.3144 196.249 59.6733C196.89 60.0322 197.249 60.6318 197.371 61.5128C197.412 62.5937 197.049 63.3932 196.209 63.952C195.368 64.5108 194.447 64.7922 193.447 64.833H193.366C192.366 64.833 191.445 64.5516 190.645 63.952C189.846 63.3524 189.405 62.4714 189.446 61.2722H190.808V61.3538H190.812Z" fill="white"/>
<path d="M200.617 54.5916H201.898V64.5561H200.617V54.5916Z" fill="white"/>
<path d="M205.422 54.591H206.821V63.3523H211.626V64.5515H205.422V54.5869V54.591Z" fill="white"/>
<path d="M214.667 54.5916H215.948V64.5561H214.667V54.5916Z" fill="white"/>
<path d="M119.722 35.6287L119.322 35.5472C119.281 35.4656 119.2 35.3881 119.163 35.2657C119.122 35.1842 119.045 35.0659 119.004 34.9843C118.645 34.3439 118.082 33.7851 117.323 33.3446C116.601 32.9041 115.802 32.6227 114.962 32.5044C114.962 32.5044 114.88 32.4636 114.68 32.4636C114.48 32.4636 114.281 32.4228 114.081 32.4228C113.84 32.4228 113.64 32.4228 113.44 32.382H113.081C112.16 32.382 111.319 32.5819 110.561 32.9816C109.802 33.3813 109.162 33.9034 108.599 34.6213C108.04 35.3432 107.636 36.1427 107.359 37.142C107.077 38.1005 106.918 39.2222 106.918 40.4214C106.918 41.6205 107.077 42.7014 107.359 43.7007C107.64 44.6592 108.081 45.4995 108.599 46.2214C109.158 46.9026 109.798 47.4614 110.561 47.8611C111.319 48.2608 112.164 48.4607 113.081 48.4607C114.403 48.4607 115.602 48.22 116.683 47.7795C117.764 47.2982 118.522 46.6579 119.004 45.8176C119.045 45.736 119.122 45.6585 119.163 45.5362C119.204 45.4546 119.281 45.3363 119.322 45.2548H119.681V47.6572L119.522 47.2982L119.722 47.6572C119.322 47.8978 118.881 48.0977 118.359 48.2975C117.841 48.4974 117.319 48.6565 116.72 48.7788C116.161 48.8971 115.557 49.0195 114.958 49.097C114.358 49.1786 113.758 49.2153 113.155 49.2153C111.756 49.2153 110.471 49.0154 109.313 48.5749C108.15 48.1344 107.151 47.5756 106.351 46.8129C105.552 46.0542 104.911 45.1324 104.43 44.0515C103.99 42.9706 103.749 41.7714 103.749 40.4907C103.749 39.2099 103.99 37.97 104.43 36.9299C104.871 35.849 105.511 34.9313 106.351 34.1685C107.151 33.4099 108.154 32.8062 109.313 32.4065C110.475 32.0068 111.756 31.7661 113.155 31.7661C113.754 31.7661 114.354 31.8069 114.958 31.8844C115.557 31.966 116.157 32.0435 116.72 32.2025C117.278 32.3208 117.841 32.484 118.359 32.6838C118.881 32.8837 119.322 33.0836 119.722 33.3242V35.6043V35.6287Z" fill="white"/>
<path d="M132.131 41.3881L131.772 41.3473L131.69 41.1882C131.531 40.9068 131.209 40.6661 130.728 40.4663C130.246 40.2664 129.647 40.1848 129.006 40.1848H126.163V48.2282H130.046C130.846 48.2282 131.568 48.0692 132.249 47.7877C132.93 47.5063 133.489 47.1066 133.889 46.6253L134.129 46.3438H134.411C134.329 46.662 134.292 47.0617 134.211 47.4655C134.129 47.8652 134.093 48.265 134.052 48.5872L133.97 48.9869H122.162V48.5872C122.843 48.5872 123.202 48.0284 123.202 46.9067V33.8627C123.202 32.741 122.843 32.1822 122.162 32.1822V31.7825H133.889V34.4215H133.607L133.448 34.14C133.167 33.6587 132.685 33.259 132.049 32.9816C131.409 32.7002 130.687 32.5411 129.887 32.5411H126.163V39.4629H129.006C129.688 39.4629 130.246 39.3813 130.768 39.2222C131.25 39.0632 131.568 38.8633 131.731 38.5819L131.813 38.4228H132.135V41.384L132.131 41.3881Z" fill="white"/>
<path d="M136.893 32.1861L136.853 31.7864H143.897C144.818 31.7864 145.659 31.9047 146.417 32.1045C147.176 32.3044 147.816 32.6266 148.338 33.0263C148.861 33.4261 149.301 33.8666 149.578 34.4254C149.86 34.9842 150.019 35.5838 150.019 36.2649C150.019 37.3458 149.66 38.2268 148.938 38.9855C148.216 39.7441 147.217 40.2662 145.936 40.5844C146.258 41.0249 146.817 41.7836 147.617 42.8644C148.416 43.9453 149.379 45.2669 150.5 46.8658C150.782 47.2655 151.022 47.5836 151.222 47.7876C151.422 48.0282 151.581 48.1873 151.703 48.2689C151.863 48.3871 152.026 48.4279 152.185 48.4687C152.344 48.5095 152.585 48.5095 152.866 48.5095V49.0683H151.867C151.067 49.0683 150.427 49.0275 149.946 48.9867C149.464 48.9459 149.064 48.8277 148.706 48.6686C148.347 48.5095 148.024 48.2281 147.743 47.8284C147.421 47.4694 147.021 46.9473 146.544 46.2662C145.663 45.0262 144.863 43.9453 144.223 43.0276C143.542 42.1058 143.06 41.3879 142.702 40.9066H140.821V46.9881C140.821 48.1098 141.18 48.6686 141.861 48.6686V49.0683H136.857V48.6686C137.538 48.6686 137.897 48.1098 137.897 46.9881V33.9441C137.938 32.7449 137.574 32.182 136.897 32.182L136.893 32.1861ZM143.297 40.0704C144.419 40.0704 145.341 39.7115 146.018 38.9896C146.699 38.2676 147.017 37.3499 147.017 36.1874C147.017 35.025 146.735 34.1888 146.177 33.5076C145.618 32.8265 144.855 32.5083 143.933 32.5083H140.85V40.0704H143.293H143.297Z" fill="white"/>
<path d="M157.386 48.5914H157.467C158.149 48.5914 158.507 48.0326 158.507 46.9109V32.5086H155.824C155.183 32.5086 154.584 32.6677 153.98 33.0307C153.38 33.3489 152.858 33.7894 152.499 34.3115L152.259 34.6296H151.937C151.977 34.2707 152.018 33.8302 152.055 33.3897C152.096 32.9492 152.136 32.5086 152.173 32.1497L152.214 31.7908H167.705L167.746 32.1497C167.787 32.5086 167.828 32.9492 167.864 33.3897C167.905 33.8302 167.946 34.2707 167.987 34.6296H167.664L167.424 34.3115C167.065 33.7894 166.543 33.353 165.943 33.0307C165.344 32.7126 164.703 32.5086 164.1 32.5086H161.42V46.9109C161.42 48.0326 161.779 48.5914 162.46 48.5914V48.9911H157.378V48.5914H157.386Z" fill="white"/>
<path d="M175.36 48.5911V48.9908H170.355V48.5911C171.037 48.5911 171.396 48.0323 171.396 46.9106V33.8666C171.396 32.7449 171.037 32.1861 170.355 32.1861V31.7864H175.36V32.1861C174.679 32.1861 174.32 32.7449 174.32 33.8666V46.9106C174.32 48.0323 174.642 48.5911 175.36 48.5911Z" fill="white"/>
<path d="M177.801 32.1861L177.76 31.7864H190.249V34.4254H189.968L189.809 34.1439C189.527 33.6626 189.046 33.2629 188.41 32.9855C187.769 32.7041 187.047 32.545 186.248 32.545H181.724V39.5851H184.327C185.008 39.5851 185.567 39.5035 186.089 39.3444C186.57 39.1853 186.888 38.9855 187.051 38.704L187.133 38.545H187.455V41.5062H187.133L187.051 41.3471C186.892 41.0657 186.57 40.825 186.089 40.6252C185.607 40.4253 185.008 40.3437 184.367 40.3437H181.765V46.9432C181.765 48.0649 182.206 48.6237 183.087 48.6237V49.0234H177.805V48.6237C178.486 48.6237 178.845 48.0649 178.845 46.9432V33.8992C178.845 32.7408 178.486 32.1779 177.805 32.1779L177.801 32.1861Z" fill="white"/>
<path d="M197.773 48.5911V48.9908H192.769V48.5911C193.45 48.5911 193.809 48.0323 193.809 46.9106V33.8666C193.809 32.7449 193.45 32.1861 192.769 32.1861V31.7864H197.773V32.1861C197.092 32.1861 196.733 32.7449 196.733 33.8666V46.9106C196.733 48.0323 197.092 48.5911 197.773 48.5911Z" fill="white"/>
<path d="M216.187 35.6287L215.787 35.5472C215.746 35.4656 215.669 35.3881 215.628 35.2657C215.587 35.1842 215.509 35.0659 215.469 34.9843C215.11 34.3439 214.547 33.7851 213.788 33.3446C213.066 32.9041 212.267 32.6227 211.427 32.5044C211.427 32.5044 211.345 32.4636 211.145 32.4636C210.945 32.4636 210.745 32.4228 210.545 32.4228C210.305 32.4228 210.105 32.4228 209.905 32.382H209.546C208.624 32.382 207.784 32.5819 207.025 32.9816C206.267 33.3813 205.626 33.9034 205.064 34.6213C204.505 35.3432 204.101 36.1427 203.824 37.142C203.542 38.1005 203.383 39.2222 203.383 40.4214C203.383 41.6205 203.542 42.7014 203.824 43.7007C204.105 44.6592 204.546 45.4995 205.064 46.2214C205.622 46.9026 206.263 47.4614 207.025 47.8611C207.784 48.2608 208.624 48.4607 209.546 48.4607C210.868 48.4607 212.067 48.22 213.148 47.7795C214.229 47.2982 214.987 46.6579 215.469 45.8176C215.509 45.736 215.587 45.6585 215.628 45.5362C215.669 45.4138 215.746 45.3363 215.787 45.2548H216.146V47.6572L215.987 47.2982L216.187 47.6572C215.787 47.8978 215.346 48.0977 214.824 48.2975C214.306 48.4974 213.784 48.6565 213.185 48.7788C212.626 48.8971 212.022 49.0195 211.422 49.097C210.823 49.1745 210.223 49.2153 209.62 49.2153C208.217 49.2153 206.936 49.0154 205.777 48.5749C204.615 48.1344 203.616 47.5756 202.816 46.8129C202.017 46.0542 201.376 45.1324 200.895 44.0515C200.455 42.9706 200.214 41.7714 200.214 40.4907C200.214 39.2099 200.455 37.97 200.895 36.9299C201.336 35.849 201.976 34.9313 202.816 34.1685C203.616 33.4099 204.619 32.8062 205.777 32.4065C206.94 32.0068 208.221 31.7661 209.62 31.7661C210.219 31.7661 210.819 31.8069 211.422 31.8844C212.022 31.966 212.622 32.0435 213.185 32.2025C213.743 32.3208 214.306 32.484 214.824 32.6838C215.346 32.8837 215.787 33.0836 216.187 33.3242V35.6043V35.6287Z" fill="white"/>
<path d="M228.635 48.9909V48.6728H228.794C229.113 48.6728 229.276 48.5137 229.353 48.2323C229.394 47.91 229.312 47.5103 229.113 46.9923C228.831 46.3519 228.595 45.6708 228.313 44.9937C228.032 44.3125 227.791 43.6722 227.514 42.9951H221.669L220.347 46.7557C220.147 47.3145 220.107 47.7958 220.225 48.1548C220.306 48.5137 220.547 48.6769 220.906 48.6769H221.106V49.0766H217.704V48.6769C218.385 48.6769 218.944 48.1548 219.344 47.1147L224.989 31.4316H225.748L232.351 47.0372C232.832 48.0773 233.391 48.5994 233.991 48.5994V48.9991H228.627L228.635 48.9909ZM227.236 42.269L224.353 35.2657L221.95 42.269H227.232H227.236Z" fill="white"/>
<path d="M250.971 35.6287L250.571 35.5472C250.53 35.4656 250.453 35.3881 250.412 35.2657C250.371 35.1842 250.294 35.0659 250.253 34.9843C249.894 34.3439 249.331 33.7851 248.572 33.3446C247.85 32.9041 247.051 32.6227 246.211 32.5044C246.211 32.5044 246.129 32.4636 245.929 32.4636C245.729 32.4636 245.53 32.4228 245.33 32.4228C245.089 32.4228 244.889 32.4228 244.689 32.382H244.33C243.409 32.382 242.568 32.5819 241.81 32.9816C241.051 33.3813 240.411 33.9034 239.848 34.6213C239.289 35.3432 238.889 36.1427 238.608 37.142C238.326 38.1005 238.167 39.2222 238.167 40.4214C238.167 41.6205 238.326 42.7014 238.608 43.7007C238.889 44.6592 239.33 45.4995 239.848 46.2214C240.407 46.9026 241.047 47.4614 241.81 47.8611C242.568 48.2608 243.413 48.4607 244.33 48.4607C245.652 48.4607 246.851 48.22 247.932 47.7795C249.013 47.2982 249.772 46.6579 250.253 45.8176C250.294 45.736 250.371 45.6585 250.412 45.5362C250.453 45.4546 250.53 45.3363 250.571 45.2548H250.93V47.6572L250.771 47.2982L250.971 47.6572C250.571 47.8978 250.13 48.0977 249.608 48.2975C249.086 48.4974 248.568 48.6565 247.969 48.7788C247.41 48.8971 246.806 49.0195 246.207 49.097C245.607 49.1786 245.007 49.2153 244.404 49.2153C243.005 49.2153 241.72 49.0154 240.562 48.5749C239.399 48.1344 238.4 47.5756 237.6 46.8129C236.801 46.0542 236.16 45.1324 235.679 44.0515C235.239 42.9706 234.998 41.7714 234.998 40.4907C234.998 39.2099 235.239 37.97 235.679 36.9299C236.12 35.849 236.76 34.9313 237.6 34.1685C238.4 33.4099 239.403 32.8062 240.562 32.4065C241.724 32.0068 243.005 31.7661 244.404 31.7661C245.003 31.7661 245.603 31.8069 246.207 31.8844C246.806 31.966 247.406 32.0435 247.969 32.2025C248.527 32.3208 249.09 32.484 249.608 32.6838C250.126 32.8837 250.567 33.0836 250.971 33.3242V35.6043V35.6287Z" fill="white"/>
<path d="M263.379 48.9909V48.6728H263.538C263.857 48.6728 264.02 48.5137 264.097 48.2323C264.138 47.91 264.056 47.5103 263.857 46.9923C263.575 46.3519 263.334 45.6708 263.057 44.9937C262.776 44.3125 262.539 43.6722 262.258 42.9951H256.413L255.091 46.7557C254.891 47.3145 254.851 47.7958 254.973 48.1548C255.091 48.5137 255.295 48.6769 255.654 48.6769H255.854V49.0766H252.452V48.6769C253.133 48.6769 253.692 48.1548 254.092 47.1147L259.737 31.4316H260.496L267.099 47.0372C267.58 48.0773 268.139 48.5994 268.739 48.5994V48.9991H263.375L263.379 48.9909ZM261.98 42.269L259.097 35.2657L256.694 42.269H261.976H261.98Z" fill="white"/>
<path d="M270.226 40.3884C270.226 39.1892 270.425 38.0676 270.784 37.0275C271.143 35.9874 271.706 35.0656 272.424 34.2661C273.146 33.4667 274.064 32.8263 275.145 32.345C276.225 31.8637 277.465 31.623 278.905 31.623C280.345 31.623 281.589 31.8637 282.629 32.345C283.669 32.8263 284.591 33.4667 285.35 34.2661C286.072 35.0656 286.631 35.9874 286.989 37.0275C287.348 38.0676 287.548 39.1892 287.548 40.3884C287.548 41.5876 287.348 42.7093 286.989 43.7494C286.631 44.7895 286.068 45.7113 285.35 46.5107C284.628 47.3102 283.71 47.9505 282.629 48.4318C281.548 48.9131 280.308 49.1538 278.905 49.1538C277.502 49.1538 276.225 48.9131 275.145 48.4318C274.064 47.9505 273.183 47.3102 272.424 46.5107C271.702 45.7113 271.143 44.7895 270.784 43.7494C270.425 42.7093 270.226 41.5876 270.226 40.3884ZM273.464 40.3884C273.464 41.4693 273.582 42.5094 273.823 43.4679C274.064 44.4264 274.382 45.2667 274.863 46.0294C275.344 46.7514 275.903 47.3509 276.584 47.7915C277.266 48.232 278.065 48.4318 278.946 48.4318C279.827 48.4318 280.627 48.232 281.308 47.7915C281.989 47.3509 282.548 46.7922 283.029 46.0294C283.469 45.3075 283.828 44.4305 284.069 43.4679C284.31 42.5094 284.428 41.4693 284.428 40.3884C284.428 39.3075 284.31 38.2674 284.069 37.3089C283.828 36.3504 283.51 35.5102 283.029 34.7474C282.588 34.0255 281.989 33.4259 281.308 32.9854C280.627 32.5449 279.827 32.345 278.946 32.345C278.065 32.345 277.266 32.5449 276.584 32.9854C275.903 33.4259 275.344 33.9847 274.863 34.7474C274.382 35.4694 274.064 36.3463 273.823 37.3089C273.582 38.3082 273.464 39.3075 273.464 40.3884Z" fill="white"/>
<path d="M244.085 54.0727C243.645 54.0727 243.286 53.9911 243.004 53.7912C242.723 53.5914 242.446 53.3915 242.164 53.1509L242.446 52.5105C242.645 52.6288 242.886 52.7511 243.086 52.8694C243.327 52.951 243.567 53.0285 243.845 53.0285C244.203 53.0285 244.485 52.9469 244.726 52.7878C244.925 52.6288 245.048 52.3473 245.048 51.9476C245.048 51.6662 244.966 51.4255 244.807 51.2297C244.648 51.0299 244.407 50.9483 244.085 50.9483C243.926 50.9483 243.685 50.9891 243.363 51.0299L243.045 50.7484L243.526 48.5867H244.248L243.93 50.0673C244.171 50.0265 244.371 50.0265 244.53 50.0265C245.089 50.0265 245.57 50.1856 245.892 50.5078C246.251 50.83 246.414 51.3072 246.414 51.9068C246.414 52.588 246.174 53.1468 245.733 53.5465C245.415 53.8646 244.811 54.0645 244.093 54.0645L244.085 54.0727Z" fill="white"/>
<path d="M257.174 29.5468H256.415C256.533 28.9064 256.856 28.4251 257.296 28.0254C257.737 27.6257 258.295 27.4258 258.936 27.4258C259.376 27.4258 259.776 27.5074 260.135 27.6257C260.494 27.744 260.816 27.8663 261.134 28.0254C261.456 28.1437 261.775 28.2253 262.174 28.2253C262.456 28.2253 262.733 28.1437 262.974 28.0254C263.214 27.9071 263.414 27.6665 263.573 27.3442H264.295C264.136 28.0662 263.814 28.625 263.414 28.9431C262.974 29.3021 262.415 29.4652 261.734 29.4652C261.293 29.4652 260.894 29.3836 260.535 29.2654C260.216 29.1471 259.853 28.9839 259.535 28.8656C259.217 28.7473 258.895 28.6658 258.495 28.6658C258.214 28.6658 257.936 28.7473 257.696 28.8656C257.455 28.9839 257.296 29.2246 257.174 29.5468Z" fill="white"/>
<path fill-rule="evenodd" clip-rule="evenodd" d="M4.54789 46.058C4.54789 68.9768 23.2982 87.6088 46.3394 87.6088C64.0496 87.6088 79.8917 76.4818 85.7652 59.8974L90.0561 61.4106C83.5218 79.8224 65.9707 92.1812 46.3394 92.1812C20.7734 92.1812 0 71.5016 0 46.0906C0 20.6796 20.8019 0 46.3394 0C56.4385 0 66.0686 3.18555 74.1161 9.20588C81.9107 15.006 87.7842 23.2982 90.6231 32.5041L86.2669 33.8297C80.838 16.303 64.8042 4.51117 46.3353 4.51117C23.2941 4.51117 4.5438 23.1432 4.5438 46.062L4.54789 46.058ZM73.6756 18.5994V74.0549H69.1318V27.3321L48.5501 57.911V70.2698H58.4942V74.8095H34.2539V70.2698H44.0063V57.9762L24.3709 27.585V74.0549H19.8271V18.5994H24.3709V19.2316L44.0063 49.6228V22.3519H34.2539V17.8448H58.4942V22.3519H48.5501V49.7778L69.1318 19.2275V18.5953H73.6756V18.5994Z" fill="url(#paint0_linear_134_1543)"/>
<path fill-rule="evenodd" clip-rule="evenodd" d="M4.54789 46.058C4.54789 68.9768 23.2982 87.6088 46.3394 87.6088C64.0496 87.6088 79.8917 76.4818 85.7652 59.8974L90.0561 61.4106C83.5218 79.8224 65.9707 92.1812 46.3394 92.1812C20.7734 92.1812 0 71.5016 0 46.0906C0 20.6796 20.8019 0 46.3394 0C56.4385 0 66.0686 3.18555 74.1161 9.20588C81.9107 15.006 87.7842 23.2982 90.6231 32.5041L86.2669 33.8297C80.838 16.303 64.8042 4.51117 46.3353 4.51117C23.2941 4.51117 4.5438 23.1432 4.5438 46.062L4.54789 46.058ZM73.6756 18.5994V74.0549H69.1318V27.3321L48.5501 57.911V70.2698H58.4942V74.8095H34.2539V70.2698H44.0063V57.9762L24.3709 27.585V74.0549H19.8271V18.5994H24.3709V19.2316L44.0063 49.6228V22.3519H34.2539V17.8448H58.4942V22.3519H48.5501V49.7778L69.1318 19.2275V18.5953H73.6756V18.5994Z" fill="white"/>
<defs>
<linearGradient id="paint0_linear_134_1543" x1="0" y1="46.0906" x2="90.6231" y2="46.0906" gradientUnits="userSpaceOnUse">
<stop stop-color="white" stop-opacity="0.65"/>
<stop offset="1" stop-color="white"/>
</linearGradient>
</defs>
</svg>
