<svg width="204" height="119" viewBox="0 0 204 119" fill="none" xmlns="http://www.w3.org/2000/svg">
<g clip-path="url(#clip0_134_1782)">
<path d="M139.657 83.1812L134.233 73.7457H131.127V83.1812H124.559V54.4619H136.051C138.788 54.4619 141.112 55.4178 143.024 57.3367C144.936 59.2485 145.899 61.5802 145.899 64.3102C145.899 66.0626 145.414 67.6847 144.443 69.1692C143.473 70.6609 142.191 71.8195 140.605 72.6378L146.717 83.1812H139.657ZM131.119 60.6098V67.9961H136.043C136.949 67.9961 137.716 67.6412 138.361 66.9316C139.005 66.2219 139.324 65.3457 139.324 64.303C139.324 63.2602 139.005 62.3912 138.361 61.6743C137.716 60.9574 136.941 60.6098 136.043 60.6098H131.119Z" fill="white"/>
<path d="M154.061 75.3836C154.77 77.2954 156.414 78.2585 158.985 78.2585C160.65 78.2585 161.968 77.7371 162.924 76.7016L167.848 79.5329C165.821 82.3498 162.844 83.7619 158.905 83.7619C155.458 83.7619 152.699 82.7336 150.635 80.6843C148.572 78.635 147.536 76.0498 147.536 72.9288C147.536 69.8078 148.557 67.2588 150.592 65.195C152.627 63.1312 155.248 62.0957 158.449 62.0957C161.432 62.0957 163.909 63.1312 165.893 65.195C167.877 67.2588 168.869 69.8367 168.869 72.9288C168.869 73.805 168.79 74.6233 168.623 75.3909H154.053L154.061 75.3836ZM153.938 70.7854H162.758C162.156 68.6274 160.708 67.5412 158.405 67.5412C156.103 67.5412 154.531 68.6202 153.93 70.7854H153.938Z" fill="white"/>
<path d="M187.052 62.6591H193.207V83.174H187.052V81.2478C185.603 82.9133 183.561 83.7533 180.94 83.7533C178.319 83.7533 175.922 82.7105 174.003 80.6178C172.091 78.525 171.128 75.9616 171.128 72.9274C171.128 69.8933 172.084 67.3298 174.003 65.2371C175.914 63.1443 178.232 62.1016 180.94 62.1016C183.648 62.1016 185.603 62.9343 187.052 64.6071V62.6809V62.6591ZM178.637 76.5698C179.542 77.475 180.716 77.924 182.164 77.924C183.612 77.924 184.792 77.475 185.69 76.5698C186.596 75.6647 187.044 74.4481 187.044 72.9202C187.044 71.3922 186.596 70.1685 185.69 69.2705C184.785 68.3726 183.612 67.9164 182.164 67.9164C180.716 67.9164 179.535 68.3654 178.637 69.2705C177.732 70.1757 177.283 71.3922 177.283 72.9202C177.283 74.4481 177.732 75.6719 178.637 76.5698Z" fill="white"/>
<path d="M197.719 83.1818V53.2314H203.874V83.1818H197.719Z" fill="white"/>
<path d="M131.127 111.141H141.388V117.463H124.566V88.7437H131.134V111.148L131.127 111.141Z" fill="white"/>
<path d="M149.737 94.0505C149.013 94.7746 148.144 95.1367 147.131 95.1367C146.117 95.1367 145.248 94.7746 144.524 94.0505C143.8 93.3264 143.438 92.4574 143.438 91.4436C143.438 90.4298 143.8 89.5608 144.524 88.8367C145.248 88.1126 146.117 87.7505 147.131 87.7505C148.144 87.7505 149.013 88.1126 149.737 88.8367C150.462 89.5608 150.824 90.4298 150.824 91.4436C150.824 92.4574 150.462 93.3264 149.737 94.0505ZM144.053 117.462V96.947H150.208V117.462H144.053Z" fill="white"/>
<path d="M166.001 94.0663C163.46 93.8491 162.185 94.8049 162.185 96.9411H166.001V102.85H162.185V117.456H156.03V102.85H153.278V96.9411H156.03C156.03 93.9866 156.863 91.7346 158.536 90.1922C160.201 88.6498 162.692 87.9691 166.001 88.1646V94.0735V94.0663Z" fill="white"/>
<path d="M173.142 109.663C173.851 111.575 175.495 112.538 178.066 112.538C179.731 112.538 181.049 112.017 182.005 110.981L186.929 113.813C184.902 116.63 181.925 118.042 177.986 118.042C174.539 118.042 171.78 117.013 169.716 114.964C167.653 112.915 166.617 110.33 166.617 107.209C166.617 104.088 167.638 101.539 169.673 99.4748C171.708 97.411 174.329 96.3755 177.53 96.3755C180.513 96.3755 182.99 97.411 184.974 99.4748C186.958 101.539 187.95 104.117 187.95 107.209C187.95 108.085 187.871 108.903 187.704 109.671H173.134L173.142 109.663ZM173.019 105.065H181.839C181.238 102.907 179.789 101.821 177.487 101.821C175.184 101.821 173.612 102.9 173.011 105.065H173.019Z" fill="white"/>
<path d="M80.879 98.8883V112.401C80.879 114.79 78.9383 116.731 76.5486 116.731H55.5197C53.13 116.731 51.1893 114.79 51.1893 112.401V103.211C51.1893 100.822 49.2486 98.881 46.859 98.881H4.33035C1.94069 98.881 0 96.9404 0 94.5507V72.4066C0 71.7476 0.152069 71.1031 0.441724 70.5093L33.6652 2.4331C34.3893 0.948621 35.9028 0 37.5538 0H60.9217C64.1224 0 66.2152 3.36 64.8103 6.23483L35.7435 65.4766C34.3314 68.3514 36.4241 71.7114 39.6321 71.7114H46.8662C49.2559 71.7114 51.1966 69.7707 51.1966 67.381V55.0272C51.1966 52.6376 53.1372 50.6969 55.5269 50.6969H76.5559C78.9455 50.6969 80.8862 52.6376 80.8862 55.0272V98.8955L80.879 98.8883Z" fill="white"/>
<path d="M140.946 22.4121V38.7704C140.946 40.9573 139.172 42.7387 136.978 42.7387H120.619C118.432 42.7387 116.651 44.5128 116.651 46.707V112.77C116.651 114.957 114.877 116.738 112.683 116.738H95.4845C93.2976 116.738 91.5163 114.964 91.5163 112.77V46.707C91.5163 44.5201 89.7421 42.7387 87.548 42.7387H62.6449C59.7845 42.7387 57.8656 39.7987 59.0097 37.1773L66.1787 20.819C66.8087 19.378 68.2352 18.4438 69.8139 18.4438H136.97C139.157 18.4438 140.939 20.218 140.939 22.4121H140.946Z" fill="white"/>
</g>
<defs>
<clipPath id="clip0_134_1782">
<rect width="203.874" height="118.034" fill="white"/>
</clipPath>
</defs>
</svg>
