<svg width="64" height="116" viewBox="0 0 64 116" fill="none" xmlns="http://www.w3.org/2000/svg">
<path d="M0 0H64V84C64 101.673 49.6731 116 32 116C14.3269 116 0 101.673 0 84V0Z" fill="url(#paint0_linear_127_1916)"/>
<path d="M31.8271 59C36.5843 59 41.1195 60.5003 44.9111 63.3359C48.5835 66.0679 51.3486 69.9745 52.6865 74.3105L50.6357 74.9346C48.0781 66.678 40.5253 61.1241 31.8271 61.124C20.9735 61.124 12.1417 69.9002 12.1416 80.6953C12.1416 91.4906 20.9734 100.267 31.8271 100.267C40.1683 100.267 47.6308 95.0248 50.3975 87.2148L52.4199 87.9268C49.3419 96.5987 41.0755 102.42 31.8271 102.42C19.7835 102.42 10.0001 92.6784 10 80.71C10 68.7415 19.799 59 31.8271 59ZM37.5508 69.5293H32.8682V82.4473L42.5615 68.0586V67.7617H44.7021V93.8809H42.5615V71.874L32.8682 86.2783V92.0996H37.5508V94.2383H26.1328V92.0996H30.7266V86.3086L21.4785 71.9941V93.8809H19.3369V67.7617H21.4785V68.0586L30.7266 82.374V69.5293H26.1328V67.4062H37.5508V69.5293Z" fill="white"/>
<defs>
<linearGradient id="paint0_linear_127_1916" x1="9.66281" y1="16.8962" x2="79.8422" y2="56.2821" gradientUnits="userSpaceOnUse">
<stop stop-color="#DEB05A"/>
<stop offset="0.535564" stop-color="#B8883C"/>
<stop offset="1" stop-color="#996221"/>
</linearGradient>
</defs>
</svg>
