<svg width="256" height="89" viewBox="0 0 256 89" fill="none" xmlns="http://www.w3.org/2000/svg">
<path d="M4.48109 87.2617H1.87779V86.2375C1.87779 85.8107 1.94892 85.4835 2.09118 85.2559C2.26188 85.0283 2.56062 84.8007 2.98739 84.5731C3.38571 84.3739 3.656 84.1605 3.79826 83.9329C3.96896 83.7053 4.05432 83.3781 4.05432 82.9513V57.4305C4.05432 57.0037 3.96896 56.6765 3.79826 56.4489C3.656 56.2213 3.38571 56.0079 2.98739 55.8087C2.56062 55.5811 2.26188 55.3535 2.09118 55.1259C1.94892 54.8983 1.87779 54.5711 1.87779 54.1443V53.1201H4.48109H12.9738C15.2499 53.1201 17.1704 53.4473 18.7352 54.1017C20.3 54.7276 21.4808 55.6665 22.2774 56.9183C23.1025 58.1702 23.515 59.7066 23.515 61.5275C23.515 64.3441 22.5619 66.5065 20.6557 68.0144C18.7779 69.4938 16.075 70.2336 12.547 70.2336H8.10864V82.9513C8.10864 83.3781 8.19399 83.7053 8.3647 83.9329C8.53541 84.1605 8.8626 84.3739 9.34627 84.5731C9.88685 84.8007 10.2425 85.0283 10.4132 85.2559C10.6124 85.4835 10.7119 85.8107 10.7119 86.2375V87.2617H7.59651H4.48109ZM7.04171 67.801H12.4617C14.5955 67.801 16.2315 67.2746 17.3696 66.2219C18.5076 65.1408 19.0766 63.6044 19.0766 61.6128C19.0766 59.6212 18.5076 58.1133 17.3696 57.0891C16.2315 56.0648 14.5529 55.5527 12.3337 55.5527H7.04171L8.10864 54.4858V68.8679L7.04171 67.801ZM38.7681 87.7738C37.9715 87.7738 37.2459 87.7169 36.5916 87.6031C35.9372 87.4893 35.3539 87.3471 34.8418 87.1764C34.3297 86.9772 33.846 86.778 33.3908 86.5789C33.0209 86.4366 32.6653 86.3086 32.3239 86.1948C32.0109 86.081 31.7264 86.0241 31.4703 86.0241C31.1858 86.0241 30.944 86.081 30.7448 86.1948C30.5741 86.2801 30.3892 86.4224 30.19 86.6216C29.9908 86.8207 29.7917 86.9772 29.5925 87.091C29.4218 87.2048 29.1942 87.2617 28.9097 87.2617H27.9281V79.1104H28.9097C29.2796 79.1104 29.5783 79.2242 29.8059 79.4518C30.062 79.651 30.3038 80.0208 30.5314 80.5614C31.072 82.0409 31.9824 83.1932 33.2628 84.0183C34.5431 84.8149 36.0794 85.2132 37.8719 85.2132C39.7497 85.2132 41.2007 84.758 42.2249 83.8476C43.2492 82.9371 43.7613 81.6283 43.7613 79.9213C43.7613 78.8117 43.5195 77.7874 43.0358 76.8485C42.5521 75.9096 41.7697 74.9565 40.6886 73.9892C39.6074 73.0218 38.1137 71.9122 36.2075 70.6603C34.1874 69.4369 32.5799 68.2989 31.385 67.2462C30.2185 66.165 29.3507 65.0697 28.7817 63.9601C28.2411 62.8505 27.9708 61.6413 27.9708 60.3325C27.9708 58.7961 28.3407 57.4447 29.0804 56.2782C29.8486 55.1117 30.9155 54.2155 32.2812 53.5895C33.6468 52.9352 35.2401 52.608 37.061 52.608C38.512 52.608 39.8066 52.8498 40.9446 53.3335C42.1111 53.7887 43.0785 54.4431 43.8467 55.2966L41.5848 53.8456H46.2366V60.4179H45.2123C44.8709 60.4179 44.5722 60.3183 44.3161 60.1191C44.06 59.92 43.8324 59.5643 43.6333 59.0522C43.0358 57.6296 42.2107 56.6054 41.158 55.9794C40.1053 55.3251 38.8819 54.9979 37.4878 54.9979C36.3497 54.9979 35.3682 55.1828 34.5431 55.5527C33.718 55.8941 33.092 56.4062 32.6653 57.0891C32.2385 57.7719 32.0251 58.5685 32.0251 59.479C32.0251 60.4179 32.2385 61.2999 32.6653 62.1249C33.1205 62.9216 33.846 63.7467 34.8418 64.6002C35.8376 65.4537 37.2033 66.4353 38.9388 67.5449C41.1296 68.9106 42.8793 70.1909 44.1881 71.3859C45.4968 72.5808 46.45 73.8042 47.0474 75.0561C47.6734 76.3079 47.9863 77.6736 47.9863 79.1531C47.9863 80.8886 47.6022 82.4108 46.8341 83.7195C46.0943 85.0283 45.0274 86.0383 43.6333 86.7496C42.2392 87.4324 40.6174 87.7738 38.7681 87.7738ZM56.056 87.2617H53.4527V86.2375C53.4527 85.8107 53.5238 85.4835 53.666 85.2559C53.8368 85.0283 54.1497 84.8007 54.6049 84.5731C55.0033 84.3739 55.2735 84.1605 55.4158 83.9329C55.5581 83.7053 55.6292 83.3781 55.6292 82.9513V57.4305C55.6292 57.0037 55.5581 56.6765 55.4158 56.4489C55.2735 56.2213 55.0033 56.0079 54.6049 55.8087C54.1497 55.5811 53.8368 55.3535 53.666 55.1259C53.5238 54.8983 53.4527 54.5711 53.4527 54.1443V53.1201H56.056H59.2567H61.86V54.1443C61.86 54.5711 61.7747 54.8983 61.604 55.1259C61.4617 55.3535 61.163 55.5811 60.7078 55.8087C60.3379 56.0079 60.0676 56.2213 59.8969 56.4489C59.7546 56.6765 59.6835 57.0037 59.6835 57.4305V82.9513C59.6835 83.3781 59.7546 83.7053 59.8969 83.9329C60.0676 84.1605 60.3379 84.3739 60.7078 84.5731C61.163 84.8007 61.4617 85.0283 61.604 85.2559C61.7747 85.4835 61.86 85.8107 61.86 86.2375V87.2617H59.2567H56.056ZM80.2525 87.7738C77.7203 87.7738 75.5011 87.0626 73.5949 85.64C71.7171 84.189 70.2661 82.1405 69.2418 79.4945C68.2176 76.8485 67.7055 73.7331 67.7055 70.1482C67.7055 66.5918 68.2034 63.4906 69.1992 60.8446C70.195 58.1987 71.6175 56.1644 73.4669 54.7418C75.3446 53.3192 77.5354 52.608 80.0391 52.608C81.5755 52.608 82.8843 52.8498 83.9654 53.3335C85.075 53.7887 86.0281 54.4431 86.8248 55.2966L84.4349 53.8029H89.0867V60.4179H88.1051C87.7352 60.4179 87.4223 60.3183 87.1662 60.1191C86.9386 59.92 86.7252 59.5643 86.526 59.0522C86.1277 58.0848 85.6156 57.3167 84.9897 56.7476C84.3922 56.1502 83.7236 55.7376 82.9838 55.51C82.2726 55.2539 81.4759 55.1259 80.5939 55.1259C78.8015 55.1259 77.2651 55.7234 75.9848 56.9183C74.7329 58.0848 73.7798 59.7777 73.1254 61.9969C72.4995 64.1877 72.1865 66.8052 72.1865 69.8495C72.1865 72.9222 72.528 75.5682 73.2108 77.7874C73.9221 80.0066 74.9321 81.6995 76.2409 82.866C77.5496 84.0325 79.1002 84.6157 80.8927 84.6157C82.1161 84.6157 83.2399 84.3597 84.2642 83.8476C85.2884 83.307 86.3126 82.4534 87.3369 81.2869C87.6214 80.974 87.8917 80.789 88.1478 80.7321C88.4323 80.6468 88.731 80.6895 89.044 80.8602C89.3569 81.0309 89.741 81.3296 90.1963 81.7564C89.3427 83.0651 88.418 84.1605 87.4223 85.0425C86.4549 85.9245 85.3738 86.6073 84.1788 87.091C82.9838 87.5462 81.6751 87.7738 80.2525 87.7738ZM106.938 87.7738C104.463 87.7738 102.258 87.0483 100.323 85.5973C98.4168 84.1463 96.9231 82.0978 95.842 79.4518C94.7608 76.7774 94.2202 73.6904 94.2202 70.1909C94.2202 66.6914 94.7608 63.6186 95.842 60.9727C96.9231 58.2982 98.4168 56.2355 100.323 54.7845C102.258 53.3335 104.463 52.608 106.938 52.608C109.442 52.608 111.647 53.3335 113.553 54.7845C115.488 56.2355 116.996 58.2982 118.077 60.9727C119.158 63.6186 119.698 66.6914 119.698 70.1909C119.698 73.6904 119.158 76.7774 118.077 79.4518C116.996 82.0978 115.488 84.1463 113.553 85.5973C111.647 87.0483 109.442 87.7738 106.938 87.7738ZM106.938 85.2986C108.645 85.2986 110.11 84.7011 111.334 83.5061C112.586 82.2827 113.539 80.5472 114.193 78.2995C114.876 76.0234 115.217 73.3206 115.217 70.1909C115.217 67.0613 114.876 64.3584 114.193 62.0823C113.539 59.8062 112.586 58.0706 111.334 56.8757C110.11 55.6807 108.645 55.0832 106.938 55.0832C105.259 55.0832 103.794 55.6807 102.542 56.8757C101.319 58.0706 100.366 59.8062 99.6829 62.0823C99.0285 64.3584 98.7013 67.0613 98.7013 70.1909C98.7013 73.2921 99.0285 75.9808 99.6829 78.2569C100.366 80.533 101.319 82.2827 102.542 83.5061C103.794 84.7011 105.259 85.2986 106.938 85.2986ZM127.553 87.2617H124.949V86.2375C124.949 85.8107 125.02 85.4835 125.163 85.2559C125.333 85.0283 125.632 84.8007 126.059 84.5731C126.457 84.3739 126.728 84.1605 126.87 83.9329C127.041 83.7053 127.126 83.3781 127.126 82.9513V57.4305C127.126 57.0037 127.041 56.6765 126.87 56.4489C126.728 56.2213 126.457 56.0079 126.059 55.8087C125.632 55.5811 125.333 55.3535 125.163 55.1259C125.02 54.8983 124.949 54.5711 124.949 54.1443V53.1201H127.553H130.668H133.784V54.1443C133.784 54.5711 133.684 54.8983 133.485 55.1259C133.314 55.3535 132.958 55.5811 132.418 55.8087C131.934 56.0079 131.607 56.2213 131.436 56.4489C131.266 56.6765 131.18 57.0037 131.18 57.4305V85.9387L129.943 84.7865H141.081C141.48 84.7865 141.793 84.6726 142.02 84.445C142.248 84.2174 142.419 83.9329 142.532 83.5915C142.646 83.2216 142.76 82.7806 142.874 82.2685C142.988 81.7279 143.101 81.3012 143.215 80.9882C143.329 80.6468 143.5 80.3623 143.727 80.1347C143.955 79.907 144.239 79.7932 144.581 79.7932H145.605V87.2617H127.553ZM161.76 87.7738C159.284 87.7738 157.079 87.0483 155.145 85.5973C153.238 84.1463 151.745 82.0978 150.664 79.4518C149.582 76.7774 149.042 73.6904 149.042 70.1909C149.042 66.6914 149.582 63.6186 150.664 60.9727C151.745 58.2982 153.238 56.2355 155.145 54.7845C157.079 53.3335 159.284 52.608 161.76 52.608C164.263 52.608 166.468 53.3335 168.375 54.7845C170.309 56.2355 171.817 58.2982 172.898 60.9727C173.98 63.6186 174.52 66.6914 174.52 70.1909C174.52 73.6904 173.98 76.7774 172.898 79.4518C171.817 82.0978 170.309 84.1463 168.375 85.5973C166.468 87.0483 164.263 87.7738 161.76 87.7738ZM161.76 85.2986C163.467 85.2986 164.932 84.7011 166.155 83.5061C167.407 82.2827 168.36 80.5472 169.015 78.2995C169.698 76.0234 170.039 73.3206 170.039 70.1909C170.039 67.0613 169.698 64.3584 169.015 62.0823C168.36 59.8062 167.407 58.0706 166.155 56.8757C164.932 55.6807 163.467 55.0832 161.76 55.0832C160.081 55.0832 158.616 55.6807 157.364 56.8757C156.141 58.0706 155.187 59.8062 154.505 62.0823C153.85 64.3584 153.523 67.0613 153.523 70.1909C153.523 73.2921 153.85 75.9808 154.505 78.2569C155.187 80.533 156.141 82.2827 157.364 83.5061C158.616 84.7011 160.081 85.2986 161.76 85.2986ZM193.674 87.7738C190.857 87.7738 188.41 87.0626 186.333 85.64C184.285 84.2174 182.706 82.1689 181.596 79.4945C180.515 76.8201 179.974 73.6477 179.974 69.9775C179.974 66.478 180.472 63.4337 181.468 60.8446C182.464 58.2271 183.901 56.2071 185.778 54.7845C187.656 53.3335 189.847 52.608 192.351 52.608C193.688 52.608 194.94 52.8213 196.106 53.2481C197.301 53.6464 198.354 54.3435 199.264 55.3393L196.661 53.8029H201.484V60.4179H200.459C200.118 60.4179 199.819 60.3183 199.563 60.1191C199.307 59.92 199.08 59.5643 198.88 59.0522C198.311 57.6012 197.486 56.5912 196.405 56.0221C195.324 55.4246 194.143 55.1259 192.863 55.1259C191.07 55.1259 189.534 55.7234 188.254 56.9183C187.002 58.0848 186.049 59.7635 185.394 61.9542C184.768 64.1165 184.456 66.6914 184.456 69.6788C184.456 73.0076 184.825 75.8243 185.565 78.1288C186.305 80.4334 187.386 82.1974 188.809 83.4208C190.231 84.6157 191.938 85.2132 193.93 85.2132C195.011 85.2132 195.978 85.0425 196.832 84.7011C197.714 84.3597 198.397 83.8902 198.88 83.2928C199.364 82.6668 199.606 81.9413 199.606 81.1162V76.9766C199.606 76.6067 199.506 76.3079 199.307 76.0803C199.136 75.8243 198.923 75.6393 198.667 75.5255C198.411 75.3833 198.084 75.2552 197.685 75.1414C197.316 75.0276 196.988 74.8996 196.704 74.7573C196.419 74.6151 196.192 74.4302 196.021 74.2025C195.85 73.9749 195.765 73.6762 195.765 73.3063V72.1967H203.063V79.9213C203.063 80.4049 203.105 80.8033 203.191 81.1162C203.305 81.4007 203.433 81.6141 203.575 81.7564C203.717 81.8986 203.874 82.0409 204.044 82.1832C204.272 82.3254 204.428 82.4677 204.514 82.6099C204.628 82.7237 204.684 82.9371 204.684 83.2501V84.317C203.689 85.0567 202.565 85.6827 201.313 86.1948C200.061 86.7069 198.781 87.091 197.472 87.3471C196.163 87.6316 194.897 87.7738 193.674 87.7738ZM212.769 87.2617H210.166V86.2375C210.166 85.8107 210.237 85.4835 210.379 85.2559C210.55 85.0283 210.863 84.8007 211.318 84.5731C211.716 84.3739 211.987 84.1605 212.129 83.9329C212.271 83.7053 212.342 83.3781 212.342 82.9513V57.4305C212.342 57.0037 212.271 56.6765 212.129 56.4489C211.987 56.2213 211.716 56.0079 211.318 55.8087C210.863 55.5811 210.55 55.3535 210.379 55.1259C210.237 54.8983 210.166 54.5711 210.166 54.1443V53.1201H212.769H215.97H218.573V54.1443C218.573 54.5711 218.488 54.8983 218.317 55.1259C218.175 55.3535 217.876 55.5811 217.421 55.8087C217.051 56.0079 216.781 56.2213 216.61 56.4489C216.468 56.6765 216.397 57.0037 216.397 57.4305V82.9513C216.397 83.3781 216.468 83.7053 216.61 83.9329C216.781 84.1605 217.051 84.3739 217.421 84.5731C217.876 84.8007 218.175 85.0283 218.317 85.2559C218.488 85.4835 218.573 85.8107 218.573 86.2375V87.2617H215.97H212.769ZM225.528 87.2617H222.968V86.2375C222.968 85.8107 223.039 85.4835 223.181 85.2559C223.352 85.0283 223.65 84.8007 224.077 84.5731C224.475 84.3739 224.774 84.1605 224.973 83.9329C225.173 83.7053 225.343 83.3923 225.485 82.994L234.576 53.9309L234.533 57.0464C234.277 56.392 234.078 55.7803 233.936 55.2113C233.822 54.6422 233.765 54.0448 233.765 53.4188L237.606 53.1201L247.251 82.994C247.393 83.3923 247.55 83.7053 247.72 83.9329C247.919 84.1605 248.232 84.3739 248.659 84.5731C249.086 84.8007 249.37 85.0283 249.513 85.2559C249.683 85.4835 249.769 85.8107 249.769 86.2375V87.2617H247.208H243.666H241.105V86.2375C241.105 85.8107 241.176 85.4835 241.319 85.2559C241.489 85.0283 241.788 84.8007 242.215 84.5731C242.499 84.4308 242.699 84.3028 242.812 84.189C242.926 84.0467 242.983 83.8902 242.983 83.7195C242.983 83.5204 242.94 83.2785 242.855 82.994L235.13 57.7292H235.941L228.302 82.994C228.217 83.2785 228.174 83.5204 228.174 83.7195C228.174 83.8902 228.231 84.0467 228.345 84.189C228.487 84.3028 228.7 84.4308 228.985 84.5731C229.412 84.8007 229.696 85.0283 229.839 85.2559C230.009 85.4835 230.095 85.8107 230.095 86.2375V87.2617H227.534H225.528ZM229.753 71.898H242.044V74.2879H229.753V71.898Z" fill="white"/>
<path d="M9.86552 36.3449C9.24465 36.3449 8.68128 36.2989 8.17539 36.207C7.6695 36.115 7.2211 36 6.83019 35.862C6.43927 35.7011 6.07136 35.5401 5.72643 35.3791C5.47349 35.2872 5.23204 35.2067 5.00209 35.1377C4.79514 35.0457 4.61118 34.9997 4.45021 34.9997C4.24326 34.9997 4.0823 35.0457 3.96732 35.1377C3.85235 35.2067 3.72587 35.3216 3.5879 35.4826C3.44994 35.6436 3.32346 35.7701 3.20849 35.862C3.09351 35.954 2.93255 36 2.7256 36H2.41516V30.4467H2.7256C2.97854 30.4467 3.18549 30.5272 3.34646 30.6882C3.53042 30.8261 3.70288 31.1136 3.86384 31.5505C4.23176 32.6772 4.93311 33.5625 5.96788 34.2064C7.02564 34.8503 8.31336 35.1722 9.83102 35.1722C11.4637 35.1722 12.7399 34.7468 13.6597 33.896C14.5795 33.0222 15.0394 31.7919 15.0394 30.2053C15.0394 29.1935 14.8324 28.2737 14.4185 27.4459C14.0276 26.5951 13.3722 25.7328 12.4524 24.859C11.5556 23.9622 10.3024 22.9159 8.69278 21.7202C7.17511 20.6394 5.96788 19.6736 5.07108 18.8228C4.19727 17.972 3.54191 17.1327 3.10501 16.3049C2.6911 15.477 2.48415 14.5802 2.48415 13.6144C2.48415 12.4877 2.74859 11.5104 3.27747 10.6826C3.82935 9.85478 4.59968 9.21092 5.58846 8.75103C6.60024 8.29113 7.76148 8.06118 9.07219 8.06118C10.1989 8.06118 11.1992 8.25663 12.073 8.64755C12.9698 9.03846 13.6942 9.61334 14.246 10.3722L12.5214 9.06146H15.3843V13.235H15.0739C14.8209 13.235 14.614 13.166 14.453 13.0281C14.292 12.8671 14.1311 12.5912 13.9701 12.2003C13.5562 11.1425 12.9238 10.3837 12.073 9.92377C11.2222 9.44087 10.2334 9.19943 9.10668 9.19943C8.07191 9.19943 7.17511 9.36039 6.41628 9.68232C5.65745 10.0042 5.07108 10.4756 4.65717 11.0965C4.26625 11.7174 4.0708 12.4532 4.0708 13.304C4.0708 14.1088 4.25476 14.8792 4.62268 15.615C5.01359 16.3279 5.61146 17.0637 6.41628 17.8225C7.2211 18.5814 8.30186 19.4552 9.65856 20.4439C11.3832 21.6627 12.7399 22.7664 13.7287 23.7552C14.7404 24.744 15.4763 25.7213 15.9362 26.6871C16.4191 27.6528 16.6605 28.7106 16.6605 29.8604C16.6605 31.2171 16.3731 32.3783 15.7982 33.3441C15.2463 34.3099 14.4645 35.0572 13.4527 35.5861C12.4409 36.092 11.2452 36.3449 9.86552 36.3449ZM28.6744 36H26.6393V35.6896C26.6393 35.3906 26.6968 35.1722 26.8118 35.0342C26.9268 34.8732 27.1682 34.7008 27.5361 34.5168C27.8351 34.3789 28.042 34.2294 28.157 34.0684C28.272 33.9075 28.3294 33.6775 28.3294 33.3786V11.0275C28.3294 10.7286 28.272 10.4986 28.157 10.3377C28.042 10.1767 27.8351 10.0272 27.5361 9.88927C27.1682 9.70531 26.9268 9.54435 26.8118 9.40638C26.6968 9.24542 26.6393 9.01547 26.6393 8.71653V8.4061H28.6744H29.5712H31.6407V8.71653C31.6407 9.01547 31.5717 9.24542 31.4338 9.40638C31.3188 9.54435 31.0888 9.70531 30.7439 9.88927C30.445 10.0272 30.2265 10.1767 30.0886 10.3377C29.9736 10.4986 29.9161 10.7286 29.9161 11.0275V33.3786C29.9161 33.6775 29.9736 33.9075 30.0886 34.0684C30.2265 34.2294 30.445 34.3789 30.7439 34.5168C31.0888 34.7008 31.3188 34.8732 31.4338 35.0342C31.5717 35.1722 31.6407 35.3906 31.6407 35.6896V36H29.5712H28.6744ZM44.2593 36H42.2242V35.6896C42.2242 35.3906 42.2817 35.1722 42.3967 35.0342C42.5116 34.8732 42.7416 34.7008 43.0865 34.5168C43.4084 34.3789 43.6269 34.2294 43.7419 34.0684C43.8568 33.9075 43.9143 33.6775 43.9143 33.3786V11.0275C43.9143 10.7286 43.8568 10.4986 43.7419 10.3377C43.6269 10.1767 43.4084 10.0272 43.0865 9.88927C42.7416 9.70531 42.5116 9.54435 42.3967 9.40638C42.2817 9.24542 42.2242 9.01547 42.2242 8.71653V8.4061H44.2593H46.4323L53.3308 33.1716H52.6754L59.7118 8.4061H61.6434H63.713V8.71653C63.713 9.01547 63.644 9.24542 63.506 9.40638C63.391 9.54435 63.1611 9.70531 62.8162 9.88927C62.5172 10.0272 62.2988 10.1767 62.1608 10.3377C62.0458 10.4986 61.9883 10.7286 61.9883 11.0275V33.3786C61.9883 33.6775 62.0458 33.9075 62.1608 34.0684C62.2988 34.2294 62.5172 34.3789 62.8162 34.5168C63.1611 34.7008 63.391 34.8732 63.506 35.0342C63.644 35.1722 63.713 35.3906 63.713 35.6896V36H61.6434H60.8156H58.7461V35.6896C58.7461 35.3906 58.8035 35.1722 58.9185 35.0342C59.0565 34.8732 59.2979 34.7008 59.6429 34.5168C59.9418 34.3789 60.1487 34.2294 60.2637 34.0684C60.4017 33.9075 60.4707 33.6775 60.4707 33.3786V8.889L60.7811 8.92349L53.2963 35.8275H53.2273C52.9973 35.8275 52.8134 35.8045 52.6754 35.7586C52.5374 35.6896 52.411 35.5861 52.296 35.4481C52.204 35.2872 52.112 35.0457 52.02 34.7238L44.9146 8.889L45.225 8.75103V33.3786C45.225 33.6775 45.2825 33.9075 45.3975 34.0684C45.5125 34.2294 45.7194 34.3789 46.0184 34.5168C46.3863 34.7008 46.6277 34.8732 46.7427 35.0342C46.8577 35.1722 46.9152 35.3906 46.9152 35.6896V36H44.8801H44.2593ZM76.1512 36H74.1162V35.6896C74.1162 35.3906 74.1737 35.1722 74.2886 35.0342C74.4036 34.8732 74.6336 34.7008 74.9785 34.5168C75.3004 34.3789 75.5189 34.2294 75.6338 34.0684C75.7488 33.9075 75.8063 33.6775 75.8063 33.3786V11.0275C75.8063 10.7286 75.7488 10.4986 75.6338 10.3377C75.5189 10.1767 75.3004 10.0272 74.9785 9.88927C74.6336 9.70531 74.4036 9.54435 74.2886 9.40638C74.1737 9.24542 74.1162 9.01547 74.1162 8.71653V8.4061H76.1512H81.0147C82.6703 8.4061 84.073 8.64755 85.2227 9.13044C86.3725 9.61334 87.2463 10.3262 87.8441 11.269C88.442 12.2118 88.7409 13.35 88.7409 14.6837C88.7409 15.9714 88.442 17.0982 87.8441 18.064C87.2693 19.0068 86.4185 19.7426 85.2917 20.2715C84.188 20.7774 82.8772 21.0303 81.3596 21.0303L82.3944 20.5474C84.027 20.5474 85.4642 20.8578 86.7059 21.4787C87.9706 22.0996 88.9364 22.9964 89.6033 24.1691C90.2931 25.3189 90.638 26.6756 90.638 28.2392C90.638 29.8259 90.2816 31.2056 89.5688 32.3783C88.8789 33.551 87.8901 34.4478 86.6024 35.0687C85.3147 35.6896 83.7855 36 82.0149 36H76.1512ZM82.0149 34.7928C83.4176 34.7928 84.6364 34.5283 85.6711 33.9994C86.7059 33.4476 87.4992 32.6657 88.0511 31.654C88.603 30.6422 88.8789 29.4464 88.8789 28.0668C88.8789 26.6871 88.603 25.5143 88.0511 24.5485C87.4992 23.5598 86.7059 22.8009 85.6711 22.272C84.6594 21.7432 83.4406 21.4787 82.0149 21.4787H77.393V34.7928H82.0149ZM81.0147 20.2715C82.2794 20.2715 83.3601 20.053 84.2569 19.6161C85.1537 19.1792 85.8321 18.5699 86.292 17.788C86.7749 16.9832 87.0163 16.0174 87.0163 14.8907C87.0163 13.189 86.4989 11.8783 85.4642 10.9585C84.4294 10.0387 82.9462 9.57884 81.0147 9.57884H77.393V20.2715H81.0147ZM109.137 36.3449C107.32 36.3449 105.71 35.7471 104.308 34.5513C102.905 33.3556 101.801 31.677 100.997 29.5154C100.215 27.3539 99.8238 24.905 99.8238 22.1686C99.8238 19.4322 100.215 16.9947 100.997 14.8562C101.801 12.6947 102.905 11.0275 104.308 9.85478C105.71 8.65905 107.32 8.06118 109.137 8.06118C110.953 8.06118 112.563 8.65905 113.966 9.85478C115.391 11.0275 116.495 12.6947 117.277 14.8562C118.082 16.9947 118.484 19.4322 118.484 22.1686C118.484 24.905 118.082 27.3539 117.277 29.5154C116.495 31.677 115.391 33.3556 113.966 34.5513C112.563 35.7471 110.953 36.3449 109.137 36.3449ZM109.137 35.1032C110.677 35.1032 112.011 34.5743 113.138 33.5165C114.265 32.4358 115.127 30.9181 115.725 28.9636C116.346 27.009 116.656 24.744 116.656 22.1686C116.656 19.5931 116.346 17.3281 115.725 15.3736C115.127 13.419 114.265 11.9128 113.138 10.8551C112.011 9.79729 110.677 9.26841 109.137 9.26841C107.619 9.26841 106.297 9.79729 105.17 10.8551C104.043 11.9128 103.17 13.419 102.549 15.3736C101.928 17.3281 101.617 19.5931 101.617 22.1686C101.617 24.744 101.928 27.009 102.549 28.9636C103.17 30.9181 104.043 32.4358 105.17 33.5165C106.297 34.5743 107.619 35.1032 109.137 35.1032ZM107.654 5.75019L109.827 1.54212C110.034 1.15121 110.252 0.863771 110.482 0.679811C110.712 0.472858 110.965 0.369381 111.241 0.369381C111.425 0.369381 111.597 0.415371 111.758 0.507349C111.919 0.576334 112.034 0.691309 112.103 0.852273C112.195 0.990243 112.241 1.15121 112.241 1.33517C112.241 1.56512 112.172 1.79506 112.034 2.02501C111.919 2.23197 111.735 2.47341 111.482 2.74935L108.067 6.09511L107.654 5.75019ZM129.352 36H127.317V35.6896C127.317 35.3906 127.374 35.1722 127.489 35.0342C127.604 34.8732 127.834 34.7008 128.179 34.5168C128.501 34.3789 128.719 34.2294 128.834 34.0684C128.949 33.9075 129.007 33.6775 129.007 33.3786V11.0275C129.007 10.7286 128.949 10.4986 128.834 10.3377C128.719 10.1767 128.501 10.0272 128.179 9.88927C127.834 9.70531 127.604 9.54435 127.489 9.40638C127.374 9.24542 127.317 9.01547 127.317 8.71653V8.4061H129.352H130.179H132.663V8.71653C132.663 9.01547 132.582 9.24542 132.421 9.40638C132.284 9.54435 131.996 9.70531 131.559 9.88927C131.191 10.0272 130.938 10.1767 130.8 10.3377C130.662 10.4986 130.593 10.7286 130.593 11.0275V35.4136L129.8 34.7928H139.32C139.619 34.7928 139.849 34.7123 140.01 34.5513C140.171 34.3674 140.297 34.1374 140.389 33.8615C140.481 33.5625 140.562 33.2406 140.631 32.8957C140.7 32.5048 140.769 32.1943 140.838 31.9644C140.93 31.7114 141.056 31.5045 141.217 31.3435C141.378 31.1596 141.596 31.0676 141.872 31.0676H142.148V36H129.352ZM152.398 36H150.363V35.6896C150.363 35.3906 150.421 35.1722 150.536 35.0342C150.651 34.8732 150.892 34.7008 151.26 34.5168C151.559 34.3789 151.766 34.2294 151.881 34.0684C151.996 33.9075 152.053 33.6775 152.053 33.3786V11.0275C152.053 10.7286 151.996 10.4986 151.881 10.3377C151.766 10.1767 151.559 10.0272 151.26 9.88927C150.892 9.70531 150.651 9.54435 150.536 9.40638C150.421 9.24542 150.363 9.01547 150.363 8.71653V8.4061H152.398H153.295H155.365V8.71653C155.365 9.01547 155.296 9.24542 155.158 9.40638C155.043 9.54435 154.813 9.70531 154.468 9.88927C154.169 10.0272 153.95 10.1767 153.812 10.3377C153.697 10.4986 153.64 10.7286 153.64 11.0275V33.3786C153.64 33.6775 153.697 33.9075 153.812 34.0684C153.95 34.2294 154.169 34.3789 154.468 34.5168C154.813 34.7008 155.043 34.8732 155.158 35.0342C155.296 35.1722 155.365 35.3906 155.365 35.6896V36H153.295H152.398ZM173.985 36.3449C172.099 36.3449 170.455 35.7701 169.052 34.6203C167.673 33.4706 166.603 31.8379 165.845 29.7224C165.109 27.5839 164.741 25.0544 164.741 22.1341C164.741 19.2367 165.109 16.7303 165.845 14.6147C166.58 12.4992 167.638 10.8781 169.018 9.7513C170.421 8.62455 172.065 8.06118 173.95 8.06118C175.261 8.06118 176.33 8.25663 177.158 8.64755C177.986 9.03846 178.699 9.57884 179.297 10.2687L177.572 9.06146H180.538V13.235H180.228C179.998 13.235 179.791 13.166 179.607 13.0281C179.446 12.8671 179.297 12.6027 179.159 12.2348C178.837 11.4989 178.411 10.9125 177.882 10.4756C177.377 10.0157 176.802 9.69382 176.158 9.50986C175.537 9.3259 174.847 9.23392 174.088 9.23392C172.479 9.23392 171.099 9.7628 169.949 10.8206C168.822 11.8553 167.972 13.3385 167.397 15.2701C166.822 17.1787 166.534 19.4667 166.534 22.1341C166.534 24.8015 166.845 27.0895 167.466 28.998C168.087 30.9066 168.972 32.3668 170.122 33.3786C171.271 34.3904 172.628 34.8962 174.192 34.8962C175.25 34.8962 176.215 34.6663 177.089 34.2064C177.963 33.7235 178.825 32.9417 179.676 31.8609C179.837 31.677 179.986 31.5505 180.124 31.4815C180.285 31.3895 180.446 31.3665 180.607 31.4125C180.791 31.4355 180.998 31.5045 181.228 31.6195C180.653 32.6312 179.998 33.4936 179.262 34.2064C178.549 34.8962 177.744 35.4251 176.848 35.793C175.974 36.161 175.02 36.3449 173.985 36.3449ZM189.213 36H187.178V35.6896C187.178 35.3906 187.236 35.1722 187.351 35.0342C187.466 34.8732 187.707 34.7008 188.075 34.5168C188.374 34.3789 188.604 34.2294 188.765 34.0684C188.926 33.9075 189.052 33.689 189.144 33.4131L196.457 8.95798L196.388 11.4414C196.25 10.9815 196.135 10.5331 196.043 10.0962C195.951 9.65932 195.893 9.22242 195.87 8.78552L197.216 8.4061L204.942 33.4131C205.034 33.689 205.149 33.9075 205.287 34.0684C205.448 34.2294 205.678 34.3789 205.977 34.5168C206.322 34.7008 206.552 34.8732 206.667 35.0342C206.805 35.1722 206.874 35.3906 206.874 35.6896V36H204.804H203.804H201.769V35.6896C201.769 35.3906 201.826 35.1722 201.941 35.0342C202.079 34.8732 202.321 34.7008 202.665 34.5168C202.872 34.4248 203.022 34.3329 203.114 34.2409C203.206 34.1489 203.263 34.0454 203.286 33.9305C203.309 33.7925 203.286 33.62 203.217 33.4131L196.664 11.8898H196.871L190.49 33.4131C190.421 33.62 190.398 33.7925 190.421 33.9305C190.444 34.0454 190.501 34.1489 190.593 34.2409C190.708 34.3329 190.869 34.4248 191.076 34.5168C191.421 34.7008 191.651 34.8732 191.766 35.0342C191.881 35.1722 191.938 35.3906 191.938 35.6896V36H189.903H189.213ZM192.663 23.3758H201.148V24.583H192.663V23.3758Z" fill="white"/>
<path d="M240.591 12.5898C240.361 12.5898 240.154 12.5207 239.97 12.3828C239.809 12.2219 239.659 11.9576 239.521 11.5898C239.2 10.854 238.774 10.267 238.245 9.83008C237.739 9.37024 237.164 9.04821 236.521 8.86426C235.9 8.68033 235.21 8.5889 234.451 8.58887C232.842 8.58887 231.461 9.11801 230.312 10.1758C229.185 11.2105 228.334 12.6936 227.759 14.625C227.184 16.5335 226.896 18.8219 226.896 21.4893C226.897 24.1564 227.207 26.4441 227.828 28.3525C228.449 30.2611 229.335 31.7216 230.484 32.7334C231.634 33.7451 232.991 34.251 234.555 34.251C235.612 34.2509 236.578 34.0212 237.451 33.5615C237.766 33.3876 238.079 33.1734 238.391 32.9219C238.826 32.5397 239.281 32.0744 239.521 31.5264C239.658 31.1585 239.809 30.8944 239.97 30.7334C240.154 30.5955 240.36 30.5264 240.59 30.5264L240.9 30.5264L240.9 34.6992L238.121 34.6992C237.829 34.8683 237.525 35.0181 237.21 35.1475C236.336 35.5153 235.382 35.7001 234.348 35.7002C232.462 35.7002 230.818 35.1251 229.415 33.9756C228.035 32.8258 226.966 31.1927 226.207 29.0771C225.471 26.9387 225.104 24.4094 225.104 21.4893C225.104 18.592 225.471 16.0852 226.207 13.9697C226.943 11.8542 228.001 10.2332 229.381 9.10644C230.783 7.97982 232.427 7.41607 234.312 7.41602C235.623 7.41602 236.693 7.6111 237.521 8.00195C237.78 8.1247 238.028 8.26379 238.266 8.41602L240.9 8.41602L240.9 12.5898L240.591 12.5898Z" fill="white"/>
<path d="M220.569 21.2513L220.569 19.2163L220.88 19.2163C221.178 19.2163 221.397 19.2738 221.535 19.3888C221.696 19.5037 221.868 19.7452 222.052 20.1131C222.19 20.412 222.34 20.619 222.501 20.734C222.662 20.8489 222.892 20.9064 223.191 20.9064L238.28 20.9064C238.579 20.9064 238.809 20.8489 238.97 20.734C239.131 20.619 239.28 20.412 239.418 20.1131C239.602 19.7452 239.763 19.5037 239.901 19.3888C240.062 19.2738 240.292 19.2163 240.591 19.2163L240.901 19.2163L240.901 21.2513L240.901 22.1482L240.901 24.2177L240.591 24.2177C240.292 24.2177 240.062 24.1487 239.901 24.0107C239.763 23.8958 239.602 23.6658 239.418 23.3209C239.28 23.022 239.131 22.8035 238.97 22.6655C238.809 22.5506 238.579 22.4931 238.28 22.4931L223.191 22.4931C222.892 22.4931 222.662 22.5506 222.501 22.6655C222.34 22.8035 222.19 23.022 222.052 23.3209C221.868 23.6658 221.696 23.8958 221.535 24.0107C221.397 24.1487 221.178 24.2177 220.88 24.2177L220.569 24.2177L220.569 22.1482L220.569 21.2513Z" fill="white"/>
</svg>
