<svg width="302" height="102" viewBox="0 0 302 102" fill="none" xmlns="http://www.w3.org/2000/svg">
<g clip-path="url(#clip0_134_1732)">
<path d="M35.218 44.0344C39.0288 46.6375 39.9767 51.8248 37.3319 55.5774C36.8864 56.2045 36.365 56.7745 35.7583 57.259C35.3602 56.9455 34.7914 56.936 34.3933 57.2495C33.9098 57.62 33.8245 58.3136 34.2037 58.7886C34.3838 59.0166 34.6492 59.1686 34.9431 59.1971C34.9905 59.1971 35.0284 59.1971 35.0758 59.1971C35.3223 59.1971 35.5593 59.1116 35.7583 58.9596C36.1186 58.6746 36.2608 58.1996 36.1091 57.7625C36.7727 57.2305 37.3509 56.613 37.8438 55.9195C40.6877 51.8818 39.6639 46.3145 35.5687 43.5024C32.3362 41.2888 27.9092 41.4218 24.8189 43.8254C24.1174 44.3669 23.5012 45.013 22.9893 45.7445C21.3873 48.0246 20.9607 50.9507 21.8328 53.5918C21.8234 53.5918 21.8139 53.6014 21.8044 53.6109C21.3209 53.9814 21.2356 54.6749 21.6148 55.1499C21.994 55.6249 22.6955 55.7104 23.1789 55.3304C23.6624 54.9599 23.7477 54.2664 23.3685 53.7914C23.1505 53.5158 22.7998 53.3638 22.4395 53.3828C21.6338 50.9222 22.0319 48.2051 23.5202 46.0865C26.165 42.3243 31.4072 41.3933 35.218 43.9964V44.0344Z" fill="white"/>
<path d="M25.4447 53.316C25.7386 53.354 26.0325 53.2685 26.26 53.088C26.497 52.9075 26.6392 52.6415 26.6771 52.3565C26.715 52.062 26.6297 51.777 26.4496 51.5489C26.2789 51.3304 26.0135 51.1879 25.7291 51.1499C25.6912 50.5514 25.7576 49.9814 25.9282 49.4304C26.715 46.9792 29.3788 45.6112 31.8624 46.3902C33.0663 46.7702 34.0522 47.5778 34.6305 48.6893C35.2087 49.7914 35.3225 51.0549 34.9433 52.2425C34.7632 52.803 34.4693 53.3255 34.0806 53.7911C33.692 53.582 33.218 53.6105 32.8673 53.8766C32.3838 54.2471 32.2985 54.9406 32.6777 55.4156C32.8957 55.6911 33.2275 55.8336 33.5498 55.8336C33.7868 55.8336 34.0332 55.7576 34.2418 55.5961C34.6589 55.2731 34.7726 54.6841 34.5262 54.2281C34.9907 53.6865 35.3319 53.0785 35.5405 52.423C35.9766 51.0739 35.8438 49.6394 35.1898 48.3948C34.5262 47.1407 33.4171 46.2192 32.052 45.7917C30.3552 45.2597 28.5161 45.6017 27.1132 46.6847C26.2695 47.3403 25.6533 48.2238 25.3215 49.2403C25.1224 49.8769 25.0466 50.5419 25.094 51.2354C25.0276 51.2639 24.9518 51.3019 24.8855 51.3589C24.402 51.7295 24.3167 52.423 24.6959 52.898C24.876 53.126 25.1414 53.278 25.4353 53.3065L25.4447 53.316Z" fill="white"/>
<path d="M30.2503 68.0702C30.4304 68.2983 30.6958 68.4503 30.9897 68.4788C31.0371 68.4788 31.075 68.4788 31.1224 68.4788C31.3689 68.4788 31.6058 68.3933 31.8049 68.2413C32.004 68.0797 32.1462 67.8707 32.2031 67.6237C36.1086 67.2247 39.7678 65.5051 42.5358 62.7785C45.7683 59.5864 47.541 55.3492 47.541 50.8365C47.541 46.3238 45.7589 42.0866 42.5263 38.8944C39.7867 36.1868 36.1466 34.4767 32.2694 34.0682C32.241 33.8877 32.1746 33.7262 32.0703 33.5932C31.8902 33.3652 31.6248 33.2132 31.3309 33.1847C31.0371 33.1467 30.7432 33.2322 30.5157 33.4127C30.0322 33.7832 29.9469 34.4767 30.3261 34.9517C30.5062 35.1797 30.7716 35.3318 31.0655 35.3603C31.3594 35.3983 31.6532 35.3128 31.8808 35.1322C32.0229 35.0182 32.1367 34.8662 32.2031 34.6857C35.938 35.0847 39.436 36.7283 42.0808 39.3314C48.5079 45.6682 48.5079 55.9857 42.0808 62.332C39.4265 64.9541 35.9096 66.6072 32.1557 66.9967C32.1177 66.8827 32.0609 66.7877 31.9945 66.7022C31.6153 66.2272 30.9138 66.1417 30.4304 66.5217C29.9469 66.8922 29.8616 67.5857 30.2408 68.0607L30.2503 68.0702Z" fill="white"/>
<path d="M18.1447 44.7472C17.9077 44.9277 17.7655 45.1937 17.7276 45.4787C17.6897 45.7732 17.775 46.0582 17.9551 46.2862C18.1352 46.5143 18.4007 46.6663 18.6945 46.6948C18.9884 46.7328 19.2823 46.6473 19.5098 46.4668C19.9932 46.0962 20.0785 45.4027 19.6994 44.9277C19.6709 44.8897 19.6425 44.8707 19.614 44.8422C20.0406 44.0916 20.5525 43.3886 21.1308 42.7426C23.3206 40.2915 26.354 38.8379 29.6529 38.6384C32.9613 38.4389 36.1464 39.5219 38.6206 41.688C41.1042 43.8541 42.5831 46.8373 42.7821 50.1054C42.9812 53.3641 41.891 56.5087 39.6918 58.9598C38.0139 60.8409 35.7198 62.1805 33.2362 62.76C33.2078 62.703 33.1698 62.6365 33.1319 62.5795C32.7527 62.1045 32.0512 62.019 31.5678 62.399C31.0843 62.7695 30.999 63.463 31.3782 63.938C31.5583 64.1661 31.8237 64.3181 32.1176 64.3466C32.165 64.3466 32.2029 64.3466 32.2503 64.3466C32.4968 64.3466 32.7433 64.2611 32.9329 64.1091C33.1604 63.9285 33.3026 63.6625 33.3405 63.368C35.9663 62.7695 38.3836 61.3444 40.1563 59.3683C42.4598 56.7937 43.6163 53.4876 43.3983 50.0579C43.1898 46.6283 41.6351 43.4931 39.0282 41.213C36.4213 38.9329 33.0656 37.8024 29.596 38.0114C26.9323 38.1729 24.4297 39.1134 22.3536 40.7285C21.7375 41.2035 21.1592 41.745 20.6378 42.3341C20.0217 43.0181 19.4908 43.7591 19.0358 44.5572C18.704 44.4812 18.3722 44.5572 18.1163 44.7567L18.1447 44.7472Z" fill="white"/>
<path d="M20.2683 31.5984C19.7848 31.9689 19.6995 32.6624 20.0787 33.1374C20.4579 33.6125 21.1593 33.698 21.6428 33.3179C21.9651 33.0709 22.1168 32.6719 22.0504 32.2824C30.1081 28.7387 39.5213 30.6293 45.5219 37.0041C49.2663 40.9753 51.2096 46.153 51.0105 51.5873C50.8115 57.0215 48.4795 62.0473 44.4601 65.7334C43.4174 66.6835 42.2514 67.548 41.0001 68.289C40.82 68.1085 40.583 67.985 40.3271 67.9565C40.0332 67.9185 39.7393 68.004 39.5118 68.1845C39.2748 68.365 39.1326 68.631 39.0947 68.9161C39.0568 69.2106 39.1421 69.4956 39.3222 69.7236C39.5023 69.9516 39.7678 70.1036 40.0616 70.1321C40.109 70.1321 40.1469 70.1321 40.1943 70.1321C40.4408 70.1321 40.6778 70.0466 40.8769 69.8946C41.2087 69.6381 41.3508 69.2296 41.275 68.8306C42.5832 68.061 43.7966 67.168 44.8867 66.1704C49.0388 62.3703 51.4371 57.183 51.6457 51.5873C51.8542 45.9915 49.8445 40.6523 45.9864 36.5576C42.7917 33.1659 38.6681 30.9618 34.0611 30.1733C29.9564 29.4703 25.6053 30.0118 21.7755 31.6934C21.5954 31.4939 21.3489 31.3703 21.0835 31.3418C20.7896 31.3038 20.4958 31.3893 20.2683 31.5699V31.5984Z" fill="white"/>
<path d="M26.3718 76.2122C26.6088 76.2122 26.8553 76.1362 27.0638 75.9747C27.1586 75.8987 27.2439 75.8037 27.3103 75.6897C34.5337 76.5732 41.7951 74.3596 47.2364 69.6094C57.7208 60.4605 58.7067 44.6042 49.4451 34.2583C46.023 30.4391 41.5771 27.779 36.5908 26.5439C32.107 25.4419 27.3956 25.5749 22.9592 26.9239C22.9497 26.9049 22.9307 26.8764 22.9118 26.8574C22.7317 26.6294 22.4662 26.4774 22.1724 26.4489C21.8785 26.4109 21.5846 26.4964 21.3571 26.6769C20.8737 27.0474 20.7884 27.741 21.1675 28.216C21.5467 28.691 22.2482 28.7765 22.7317 28.3965C22.9971 28.1875 23.1488 27.8645 23.1393 27.5225C32.4103 24.6913 42.544 27.494 48.9711 34.6668C53.3412 39.55 55.5215 45.8203 55.1139 52.3376C54.7063 58.8549 51.7581 64.8212 46.8193 69.1344C41.5297 73.7421 34.4958 75.9082 27.4809 75.0721C27.4809 74.8346 27.3956 74.6066 27.2439 74.4166C26.8648 73.9416 26.1633 73.8561 25.6798 74.2361C25.4428 74.4166 25.3006 74.6826 25.2627 74.9676C25.2248 75.2621 25.3101 75.5471 25.4902 75.7752C25.7083 76.0507 26.04 76.1932 26.3623 76.1932L26.3718 76.2122Z" fill="white"/>
<path d="M6.87317 34.6481C7.16704 34.6861 7.4609 34.6006 7.68841 34.4201C7.9254 34.2395 8.0676 33.9735 8.10552 33.6885C8.13396 33.432 8.07708 33.1755 7.93488 32.957C9.08191 31.5604 10.3427 30.2779 11.6793 29.1473C17.5567 24.2071 25.0266 21.813 32.7145 22.421C40.4119 23.0195 47.4079 26.5442 52.4131 32.3395C57.4183 38.1347 59.8451 45.5071 59.2289 53.0979C58.6222 60.6888 55.0484 67.5956 49.1711 72.5358C48.735 72.8968 48.261 73.2768 47.6828 73.6948C47.2846 73.3813 46.7158 73.3623 46.3082 73.6853C45.8248 74.0559 45.7394 74.7494 46.1186 75.2244C46.2987 75.4524 46.5642 75.6044 46.858 75.6329C46.9054 75.6329 46.9434 75.6329 46.9908 75.6329C47.2372 75.6329 47.4742 75.5474 47.6733 75.3954C48.0335 75.1104 48.1757 74.6354 48.024 74.1984C48.6212 73.7613 49.1142 73.3718 49.5692 72.9918C55.5698 67.9376 59.2194 60.8883 59.8451 53.1264C60.4707 45.3646 57.9965 37.8307 52.8776 31.9119C47.7586 25.9932 40.611 22.3925 32.7524 21.775C25.311 21.1955 18.0022 23.371 12.1628 27.9218C11.8594 28.1593 11.5561 28.4063 11.2527 28.6533C9.88768 29.8028 8.59845 31.1139 7.43247 32.539C7.05328 32.3775 6.6267 32.425 6.3044 32.6815C5.82094 33.052 5.73562 33.7455 6.1148 34.2205C6.29492 34.4486 6.56034 34.6006 6.85421 34.6291L6.87317 34.6481Z" fill="white"/>
<path d="M63.9688 53.924C64.803 45.0791 62.0918 36.4527 56.3472 29.6124C50.0717 22.145 40.8292 17.7843 30.9894 17.6133C30.9514 17.4708 30.8946 17.3473 30.8092 17.2333C30.6291 17.0053 30.3637 16.8533 30.0698 16.8248C29.776 16.7868 29.4821 16.8723 29.2546 17.0528C28.7711 17.4233 28.6858 18.1169 29.065 18.5919C29.4442 19.0669 30.1457 19.1524 30.6291 18.7724C30.8092 18.6394 30.9325 18.4494 30.9988 18.2309C40.649 18.3924 49.7115 22.6771 55.8732 30.0019C61.5136 36.7092 64.1679 45.1741 63.3526 53.848C62.5374 62.5219 58.3474 70.3692 51.5506 75.9365C48.4128 78.5016 44.8769 80.4587 41.0187 81.7413C40.9998 81.7127 40.9903 81.6842 40.9619 81.6557C40.5827 81.1807 39.8812 81.0952 39.3977 81.4752C38.9143 81.8458 38.829 82.5393 39.2081 83.0143C39.4262 83.2898 39.758 83.4323 40.0803 83.4323C40.3173 83.4323 40.5637 83.3563 40.7723 83.1948C41.0282 82.9953 41.1799 82.6818 41.1799 82.3493C45.1139 81.0382 48.7446 79.0526 51.9487 76.421C58.8688 70.7492 63.1441 62.7594 63.9783 53.9145L63.9688 53.924Z" fill="white"/>
<path d="M59.7985 27.2846C53.8359 20.0453 45.418 15.2951 36.0806 13.908C27.1983 12.5874 18.1263 14.421 10.5142 19.0762C10.1161 18.7342 9.51884 18.7057 9.10174 19.0287C8.86475 19.2092 8.72256 19.4753 8.68464 19.7603C8.64672 20.0548 8.73204 20.3398 8.91215 20.5678C9.09226 20.7958 9.35769 20.9478 9.65156 20.9763C9.94542 21.0143 10.2393 20.9288 10.4668 20.7483C10.8175 20.4728 10.9597 20.0263 10.8365 19.5988C18.5244 14.8865 27.6343 13.091 36.5072 14.5445C45.437 16.0076 53.5325 20.6628 59.2961 27.6646C65.5621 35.2745 68.4534 44.8414 67.4296 54.6079C66.4058 64.3648 61.5996 73.1527 53.8833 79.3375C53.0017 80.05 52.0253 80.7435 50.8119 81.5226L50.2905 81.8551L50.9067 81.8076C51.1247 81.7886 51.3427 81.7791 51.5608 81.7696H51.6082L51.6461 81.7411C52.6699 81.0476 53.5136 80.4395 54.2814 79.822C62.1305 73.5327 67.022 64.6023 68.0552 54.6744C69.098 44.7464 66.1593 35.018 59.7796 27.2751L59.7985 27.2846Z" fill="white"/>
<path d="M45.9385 84.9052L45.967 84.8482C46.0333 84.6867 46.1092 84.5347 46.1755 84.3827L46.3556 84.0026L45.967 84.1736C36.2978 88.5343 25.2162 88.6389 15.547 84.4872C15.5849 84.1926 15.5091 83.9076 15.329 83.6891C14.9498 83.2141 14.2483 83.1286 13.7648 83.5086C13.5278 83.6891 13.3856 83.9456 13.3477 84.2401C13.3098 84.5347 13.3951 84.8197 13.5752 85.0477C13.7553 85.2757 14.0208 85.4277 14.3146 85.4562C14.6085 85.4942 14.9024 85.4087 15.1299 85.2282C15.1962 85.1807 15.2436 85.1237 15.291 85.0667C20.0972 87.1378 25.2825 88.1923 30.4773 88.1923C31.8898 88.1923 33.3022 88.1163 34.7052 87.9548C38.5255 87.5273 42.2889 86.5108 45.8722 84.9242L45.929 84.8957L45.9385 84.9052Z" fill="white"/>
<path d="M67.913 69.6095L67.8656 69.429C67.8372 69.3055 67.8277 69.163 67.8277 69.0015V68.3364L67.5338 68.935C65.1355 73.7422 61.8556 77.9699 57.7793 81.504L57.457 81.7795H57.8836C58.0448 81.7795 58.2154 81.77 58.3766 81.7605H58.4334L58.4808 81.7225C62.3769 78.2834 65.5431 74.2267 67.894 69.6665L67.9225 69.619L67.913 69.6095Z" fill="white"/>
<path d="M69.6475 37.8115L69.9318 38.7046C71.4296 43.4833 72.0363 48.4235 71.714 53.4017L71.695 53.6487L71.9226 53.5632C72.0079 53.5252 72.1121 53.4967 72.2449 53.4682L72.3586 53.4397V53.3257C72.6525 48.6135 72.1406 43.9488 70.8419 39.4646L69.6475 37.821V37.8115Z" fill="white"/>
<path d="M44.5931 89.8834L44.6215 89.7029C44.6405 89.6079 44.65 89.5129 44.6689 89.4179L44.7163 89.1519L44.4604 89.2469C38.2323 91.4605 31.4828 92.173 24.9419 91.318C24.9419 91.0899 24.8566 90.8714 24.7049 90.6909C24.3257 90.2159 23.6243 90.1304 23.1408 90.5104C22.9038 90.6909 22.7616 90.9569 22.7237 91.242C22.6858 91.5365 22.7711 91.8215 22.9512 92.0495C23.1692 92.325 23.501 92.4675 23.8233 92.4675C24.0603 92.4675 24.3068 92.3915 24.5153 92.23C24.6196 92.154 24.7049 92.0495 24.7713 91.926C30.2031 92.6575 35.6159 92.344 40.8771 91.0139C42.0241 90.7194 43.2091 90.3679 44.4888 89.9119L44.5741 89.8834H44.5931Z" fill="white"/>
<path d="M14.7609 13.7182C15.0548 13.7562 15.3487 13.6707 15.5762 13.4902C15.8511 13.2717 16.0028 12.9297 15.9838 12.5687C24.1078 9.58555 32.8859 9.21503 41.3701 11.5141C49.9112 13.8322 57.3053 18.611 62.756 25.3468C64.6804 27.7314 66.3488 30.3535 67.7139 33.1466L67.9034 33.5456L68.0077 33.1181C68.0456 32.9661 68.0836 32.8046 68.131 32.6336L68.1499 32.5766L68.1215 32.5291C66.7659 29.831 65.1354 27.2849 63.249 24.9668C57.4949 17.8509 49.7311 12.9107 40.8203 10.6686C32.6015 8.60701 23.7191 9.07253 15.7847 11.9797C15.7847 11.9702 15.7752 11.9607 15.7658 11.9512C15.5857 11.7231 15.3202 11.5711 15.0264 11.5426C14.7325 11.5046 14.4386 11.5901 14.2111 11.7707C13.9741 11.9512 13.8319 12.2172 13.794 12.5022C13.7561 12.7967 13.8414 13.0817 14.0215 13.3097C14.2016 13.5377 14.4671 13.6897 14.7609 13.7182Z" fill="white"/>
<path d="M76.5386 48.2998C76.3964 47.8532 76.2352 47.4257 76.112 47.1122L75.7139 46.0767L75.7992 47.1787C75.9319 48.7938 75.9793 50.4279 75.9319 52.0239V52.4229L76.1973 52.1379C76.3585 51.9764 76.4817 51.8054 76.5765 51.6344C76.9936 50.8459 76.9746 49.7628 76.5196 48.3093L76.5386 48.2998Z" fill="white"/>
<path d="M65.0209 80.0886L64.4521 80.7441L65.2105 80.3261C65.5707 80.1266 65.8741 79.9365 66.1395 79.737C67.0022 79.091 67.6847 78.274 68.1966 77.2954C68.2819 77.1244 68.3672 76.9439 68.4336 76.7634C68.5568 76.4404 68.6516 76.0889 68.718 75.7183L68.8507 74.9868L68.4336 75.6043C67.3813 77.1814 66.2343 78.692 65.0209 80.079V80.0886Z" fill="white"/>
<path d="M10.3146 90.4438C10.1345 90.2158 9.86905 90.0637 9.57519 90.0352C9.28132 89.9972 8.98745 90.0828 8.75994 90.2633C8.52295 90.4438 8.38076 90.7003 8.34284 90.9948C8.30492 91.2893 8.39024 91.5743 8.57035 91.8023C8.75046 92.0303 9.01589 92.1823 9.30976 92.2108C9.60362 92.2488 9.89749 92.1633 10.125 91.9828C10.1724 91.9448 10.2103 91.8973 10.2482 91.8498C16.5522 94.871 23.4628 96.429 30.4492 96.429C31.7953 96.429 33.1414 96.372 34.4875 96.258C37.7485 95.973 41 95.346 44.1283 94.3864L44.242 94.3484V94.1109C44.2325 94.0349 44.223 93.9589 44.223 93.8829V93.6739L44.0145 93.7404C32.8665 97.1701 20.9696 96.296 10.5137 91.2893C10.5705 90.9853 10.4947 90.6813 10.3051 90.4438H10.3146Z" fill="white"/>
<path d="M17.671 8.39799C17.9649 8.43599 18.2588 8.35049 18.4863 8.16998C18.7422 7.97047 18.8844 7.67596 18.8939 7.35294C36.4216 2.82123 54.9826 8.96801 66.2065 23.0287C66.6899 23.6367 67.1734 24.2732 67.6379 24.9192L68.0171 25.4513L67.8085 24.1022L67.7896 24.0737C67.4293 23.5892 67.0786 23.1142 66.6994 22.6391C60.9169 15.3903 53.1531 10.1081 44.2707 7.36244C35.9666 4.79732 27.1411 4.57881 18.7422 6.74491C18.7233 6.70691 18.7043 6.66891 18.6664 6.63091C18.2872 6.15589 17.5857 6.07038 17.1022 6.4504C16.6188 6.82092 16.5335 7.51445 16.9127 7.98947C17.0928 8.21748 17.3582 8.36949 17.6521 8.39799H17.671Z" fill="white"/>
<path d="M45.9388 98.0538C31.2929 102.614 15.007 100.239 2.35174 91.7075C2.4655 91.3845 2.43706 91.0425 2.26643 90.748C2.10527 90.4725 1.84932 90.273 1.5365 90.1875C1.22367 90.102 0.901367 90.14 0.61698 90.3015C0.332592 90.463 0.133521 90.7195 0.048205 91.0235C-0.0371112 91.3275 0.000807162 91.6505 0.16196 91.9355C0.493745 92.5056 1.23315 92.7051 1.81141 92.3821C1.87776 92.3441 1.92516 92.3061 1.98204 92.2586C9.60362 97.3983 18.4955 100.4 27.7191 100.951C28.7524 101.018 29.7856 101.046 30.8094 101.046C36.0801 101.046 41.2938 100.239 46.3465 98.6333L46.6024 98.5478L46.0242 98.0253L45.9388 98.0538Z" fill="white"/>
<path d="M23.8233 2.34625C24.1361 2.43176 24.4584 2.39376 24.7428 2.23225C25.0556 2.06124 25.2547 1.75723 25.3116 1.40571C39.749 -0.14286 54.12 4.49335 64.7561 14.1553L65.1827 14.5448L65.0121 13.9938C64.9457 13.7848 64.8794 13.5758 64.8225 13.3668V13.3288L64.7751 13.3003C61.2392 10.1746 57.2862 7.55249 53.0299 5.5194C44.375 1.37721 34.7817 -0.266366 25.2547 0.750181C25.2452 0.702679 25.2263 0.655176 25.1978 0.598174C24.8661 0.0281479 24.1266 -0.171361 23.5484 0.151654C22.9701 0.474668 22.7711 1.2157 23.0934 1.78573C23.2545 2.06124 23.5105 2.26075 23.8233 2.34625Z" fill="white"/>
<path d="M115.282 24.7391H106.873V46.2576H105.224V24.7391H96.8154V23.2476H115.282V24.7391Z" fill="white"/>
<path d="M136.563 44.766V46.2576H121.272V23.2476H136.279V24.7391H122.922V33.7835H134.591V35.2086H122.922V44.766H136.563Z" fill="white"/>
<path d="M143.484 46.2576V23.2476H153.021C153.987 23.2476 154.888 23.4566 155.703 23.8651C156.519 24.2736 157.229 24.8246 157.817 25.4992C158.405 26.1832 158.869 26.9432 159.211 27.7983C159.542 28.6533 159.713 29.5083 159.713 30.3729C159.713 31.2374 159.58 32.0355 159.324 32.824C159.069 33.6125 158.699 34.3251 158.225 34.9426C157.751 35.5696 157.182 36.0921 156.509 36.5007C155.836 36.9092 155.106 37.1847 154.31 37.3082L160.035 46.2481H158.13L152.566 37.5647H145.124V46.2481H143.475L143.484 46.2576ZM145.134 36.0541H153.182C153.912 36.0541 154.585 35.8926 155.191 35.5696C155.798 35.2466 156.31 34.8191 156.746 34.2871C157.173 33.755 157.504 33.1565 157.732 32.4725C157.959 31.7884 158.073 31.0949 158.073 30.3824C158.073 29.6699 157.94 28.9383 157.666 28.2638C157.391 27.5893 157.03 26.9812 156.566 26.4682C156.101 25.9457 155.561 25.5372 154.945 25.2236C154.329 24.9101 153.665 24.7581 152.954 24.7581H145.134V36.0636V36.0541Z" fill="white"/>
<path d="M166.888 46.2576V23.2476H176.425C177.392 23.2476 178.292 23.4566 179.108 23.8651C179.923 24.2736 180.634 24.8246 181.222 25.4992C181.809 26.1832 182.274 26.9432 182.615 27.7983C182.947 28.6533 183.117 29.5083 183.117 30.3729C183.117 31.2374 182.985 32.0355 182.729 32.824C182.473 33.6125 182.103 34.3251 181.629 34.9426C181.155 35.5696 180.586 36.0921 179.913 36.5007C179.24 36.9092 178.51 37.1847 177.714 37.3082L183.44 46.2481H181.534L175.97 37.5647H168.528V46.2481H166.879L166.888 46.2576ZM168.538 36.0541H176.586C177.316 36.0541 177.989 35.8926 178.596 35.5696C179.202 35.2466 179.714 34.8191 180.15 34.2871C180.577 33.755 180.909 33.1565 181.136 32.4725C181.364 31.7884 181.477 31.0949 181.477 30.3824C181.477 29.6699 181.345 28.9383 181.07 28.2638C180.795 27.5893 180.435 26.9812 179.97 26.4682C179.506 25.9457 178.965 25.5372 178.349 25.2236C177.733 24.9101 177.069 24.7581 176.358 24.7581H168.538V36.0636V36.0541Z" fill="white"/>
<path d="M190.303 46.2576V23.2476H191.952V46.2576H190.303Z" fill="white"/>
<path d="M216.428 24.7391H208.02V46.2576H206.37V24.7391H197.962V23.2476H216.428V24.7391Z" fill="white"/>
<path d="M230.495 46.4189C228.903 46.4189 227.443 46.0864 226.125 45.4119C224.807 44.7468 223.679 43.8633 222.731 42.7897C221.784 41.7067 221.054 40.4716 220.532 39.0656C220.011 37.6595 219.755 36.2249 219.755 34.7524C219.755 33.2798 220.03 31.7502 220.58 30.3442C221.129 28.9381 221.888 27.6935 222.845 26.62C223.803 25.5369 224.94 24.6819 226.258 24.0454C227.576 23.4089 228.997 23.0858 230.524 23.0858C232.05 23.0858 233.576 23.4279 234.903 24.1024C236.23 24.7864 237.358 25.67 238.297 26.772C239.235 27.8741 239.965 29.1186 240.477 30.5152C240.989 31.9117 241.255 33.3178 241.255 34.7429C241.255 36.3009 240.98 37.783 240.43 39.1796C239.88 40.5856 239.122 41.8207 238.164 42.8942C237.207 43.9678 236.069 44.8133 234.752 45.4499C233.434 46.0864 232.012 46.4094 230.486 46.4094L230.495 46.4189ZM221.404 34.7524C221.404 36.0729 221.622 37.3365 222.068 38.562C222.513 39.7876 223.139 40.8611 223.945 41.8017C224.751 42.7422 225.718 43.4928 226.836 44.0533C227.955 44.6138 229.187 44.8988 230.524 44.8988C231.86 44.8988 233.15 44.6043 234.259 44.0248C235.368 43.4453 236.316 42.6662 237.102 41.7067C237.889 40.7471 238.496 39.6641 238.932 38.448C239.368 37.2415 239.577 36.0064 239.577 34.7524C239.577 33.4318 239.349 32.1683 238.894 30.9427C238.439 29.7266 237.813 28.6436 236.998 27.703C236.183 26.7625 235.235 26.012 234.135 25.4514C233.036 24.8909 231.832 24.6059 230.514 24.6059C229.13 24.6059 227.879 24.9004 226.76 25.4799C225.642 26.0595 224.675 26.8385 223.878 27.7981C223.082 28.7576 222.466 29.8406 222.039 31.0567C221.603 32.2633 221.395 33.4983 221.395 34.7524H221.404ZM230.495 19.8177L229.367 19.2952L231.339 16.54H233.216L230.495 19.8177Z" fill="white"/>
<path d="M248.12 46.2576V23.2476H257.656C258.623 23.2476 259.524 23.4566 260.339 23.8651C261.154 24.2736 261.865 24.8246 262.453 25.4992C263.041 26.1832 263.505 26.9432 263.846 27.7983C264.178 28.6533 264.349 29.5083 264.349 30.3729C264.349 31.2374 264.216 32.0355 263.96 32.824C263.704 33.6125 263.335 34.3251 262.861 34.9426C262.387 35.5696 261.818 36.0921 261.145 36.5007C260.472 36.9092 259.742 37.1847 258.946 37.3082L264.671 46.2481H262.766L257.201 37.5647H249.76V46.2481H248.11L248.12 46.2576ZM249.769 36.0541H257.817C258.547 36.0541 259.22 35.8926 259.827 35.5696C260.434 35.2466 260.946 34.8191 261.382 34.2871C261.808 33.755 262.14 33.1565 262.368 32.4725C262.595 31.7884 262.709 31.0949 262.709 30.3824C262.709 29.6699 262.576 28.9383 262.301 28.2638C262.026 27.5893 261.666 26.9812 261.202 26.4682C260.737 25.9457 260.197 25.5372 259.581 25.2236C258.964 24.9101 258.301 24.7581 257.59 24.7581H249.769V36.0636V36.0541Z" fill="white"/>
<path d="M271.523 46.2576V23.2476H273.173V46.2576H271.523Z" fill="white"/>
<path d="M290.768 46.419C289.175 46.419 287.715 46.0865 286.398 45.412C285.08 44.7469 283.952 43.8634 283.004 42.7898C282.056 41.7068 281.326 40.4717 280.805 39.0657C280.283 37.6596 280.027 36.225 280.027 34.7525C280.027 33.2799 280.302 31.7503 280.852 30.3443C281.402 28.9382 282.16 27.6936 283.118 26.6201C284.075 25.5371 285.213 24.682 286.53 24.0455C287.848 23.409 289.27 23.0859 290.796 23.0859C292.322 23.0859 293.849 23.428 295.176 24.1025C296.503 24.7865 297.631 25.6701 298.569 26.7721C299.508 27.8742 300.238 29.1187 300.75 30.5153C301.262 31.9118 301.527 33.3179 301.527 34.743C301.527 36.301 301.252 37.7831 300.702 39.1797C300.152 40.5857 299.394 41.8208 298.437 42.8943C297.479 43.9679 296.342 44.8134 295.024 45.45C293.706 46.0865 292.284 46.4095 290.758 46.4095L290.768 46.419ZM281.677 34.7525C281.677 36.073 281.895 37.3366 282.34 38.5621C282.786 39.7877 283.412 40.8612 284.217 41.8018C285.023 42.7423 285.99 43.4929 287.109 44.0534C288.227 44.6139 289.46 44.8989 290.796 44.8989C292.133 44.8989 293.422 44.6044 294.531 44.0249C295.64 43.4454 296.588 42.6663 297.375 41.7068C298.162 40.7472 298.768 39.6642 299.205 38.4481C299.641 37.2416 299.849 36.0065 299.849 34.7525C299.849 33.4319 299.622 32.1684 299.167 30.9428C298.712 29.7267 298.086 28.6437 297.271 27.7031C296.455 26.7626 295.508 26.0121 294.408 25.4515C293.308 24.891 292.104 24.606 290.787 24.606C289.403 24.606 288.151 24.9005 287.033 25.48C285.914 26.0596 284.947 26.8386 284.151 27.7982C283.355 28.7577 282.739 29.8407 282.312 31.0568C281.876 32.2634 281.667 33.4984 281.667 34.7525H281.677Z" fill="white"/>
<path d="M117.025 62.1421V85.1521H115.375V74.1316H100.891V85.1521H99.2412V62.1421H100.891V72.6401H115.375V62.1421H117.025Z" fill="white"/>
<path d="M134.649 83.7934C136.204 83.7934 137.493 83.4988 138.517 82.9193C139.54 82.3398 140.346 81.5703 140.943 80.6202C141.541 79.6702 141.958 78.5871 142.204 77.3806C142.451 76.174 142.574 74.9485 142.574 73.7229V62.1514H144.223V73.7229C144.223 75.262 144.053 76.725 143.721 78.1311C143.389 79.5372 142.839 80.7722 142.09 81.8458C141.332 82.9193 140.356 83.7649 139.152 84.3919C137.948 85.0189 136.459 85.3324 134.687 85.3324C132.914 85.3324 131.322 84.9999 130.099 84.3444C128.866 83.6888 127.88 82.8148 127.141 81.7223C126.402 80.6297 125.871 79.3947 125.558 78.0076C125.245 76.6205 125.084 75.1955 125.084 73.7324V62.1609H126.733V73.7324C126.733 75.0055 126.857 76.25 127.103 77.4566C127.35 78.6631 127.786 79.7367 128.402 80.6772C129.018 81.6178 129.833 82.3778 130.848 82.9478C131.862 83.5178 133.132 83.8029 134.668 83.8029L134.649 83.7934Z" fill="white"/>
<path d="M173.097 85.1521V65.2582L164.044 80.7819H163.011L153.958 65.2582V85.1521H152.309V62.1421H153.958L163.532 78.6063L173.107 62.1421H174.756V85.1521H173.107H173.097Z" fill="white"/>
<path d="M190.397 62.1421H191.818L201.516 85.1521H199.772L196.568 77.5708H185.609L182.405 85.1521H180.623L190.387 62.1421H190.397ZM196.122 76.2027L191.107 64.1467L185.998 76.2027H196.122Z" fill="white"/>
<path d="M209.091 65.249V85.1429H207.441V62.1328H208.702L224.808 82.3877V62.1328H226.457V85.1429H224.941L209.1 65.249H209.091Z" fill="white"/>
<path d="M244.014 85.3135C242.421 85.3135 240.961 84.981 239.644 84.3065C238.326 83.6415 237.198 82.7579 236.25 81.6844C235.302 80.6013 234.572 79.3663 234.051 77.9602C233.529 76.5541 233.273 75.1196 233.273 73.647C233.273 72.1744 233.548 70.6449 234.098 69.2388C234.648 67.8327 235.406 66.5882 236.364 65.5146C237.321 64.4316 238.459 63.5765 239.776 62.94C241.094 62.3035 242.516 61.9805 244.042 61.9805C245.568 61.9805 247.095 62.3225 248.422 62.997C249.749 63.681 250.877 64.5646 251.816 65.6666C252.754 66.7687 253.484 68.0132 253.996 69.4098C254.508 70.8064 254.773 72.2124 254.773 73.6375C254.773 75.1956 254.498 76.6776 253.948 78.0742C253.399 79.4803 252.64 80.7153 251.683 81.7889C250.725 82.8624 249.588 83.708 248.27 84.3445C246.952 84.981 245.531 85.304 244.004 85.304L244.014 85.3135ZM234.923 73.647C234.923 74.9676 235.141 76.2311 235.586 77.4567C236.032 78.6822 236.658 79.7558 237.463 80.6963C238.269 81.6369 239.236 82.3874 240.355 82.9479C241.473 83.5084 242.706 83.7935 244.042 83.7935C245.379 83.7935 246.668 83.4989 247.777 82.9194C248.886 82.3399 249.834 81.5609 250.621 80.6013C251.408 79.6418 252.015 78.5587 252.451 77.3427C252.887 76.1361 253.095 74.9011 253.095 73.647C253.095 72.3264 252.868 71.0629 252.413 69.8373C251.958 68.6213 251.332 67.5382 250.517 66.5977C249.702 65.6571 248.754 64.9066 247.654 64.3461C246.554 63.7856 245.35 63.5005 244.033 63.5005C242.649 63.5005 241.397 63.7951 240.279 64.3746C239.16 64.9541 238.193 65.7331 237.397 66.6927C236.601 67.6522 235.985 68.7353 235.558 69.9513C235.122 71.1579 234.913 72.3929 234.913 73.647H234.923Z" fill="white"/>
</g>
<defs>
<clipPath id="clip0_134_1732">
<rect width="301.536" height="101.047" fill="white"/>
</clipPath>
</defs>
</svg>
