<svg width="352" height="117" viewBox="0 0 352 117" fill="none" xmlns="http://www.w3.org/2000/svg">
<path d="M140.594 25.5227L138.399 32.4841H135.335L133.14 25.5227L133.235 34.2056H130.246V20.0179H134.048L136.867 28.8521L139.686 20.0179H143.488V34.2056H140.499L140.594 25.5227ZM147.952 34.2056H144.736L148.671 19.9422H152.152L156.087 34.2056H152.871L152.209 31.2924H148.614L147.952 34.2056ZM150.411 23.5175L149.201 28.8899H151.622L150.411 23.5175ZM161.896 25.5794C162.59 25.6803 163.164 25.7875 163.618 25.901C164.072 26.0019 164.513 26.1533 164.942 26.355C165.383 26.5442 165.724 26.7838 165.963 27.0739C166.203 27.3513 166.392 27.7108 166.531 28.1521C166.682 28.5809 166.758 29.0917 166.758 29.6844C166.758 32.8751 164.904 34.4704 161.196 34.4704C159.229 34.4704 157.753 34.1803 156.77 33.6002V30.4978C158.044 31.2293 159.418 31.595 160.894 31.595C161.903 31.595 162.615 31.4563 163.031 31.1789C163.447 30.8888 163.656 30.4852 163.656 29.9682C163.656 29.4385 163.517 29.0602 163.239 28.8332C162.975 28.6062 162.476 28.4422 161.745 28.3413C159.929 28.1017 158.643 27.6666 157.886 27.036C157.142 26.4055 156.77 25.4029 156.77 24.0283C156.77 22.6915 157.205 21.6447 158.075 20.888C158.945 20.1314 160.282 19.753 162.085 19.753C163.901 19.753 165.238 19.9863 166.096 20.453V23.3851C165.68 23.1833 165.112 23.0067 164.393 22.8554C163.687 22.7041 162.993 22.6284 162.312 22.6284C160.686 22.6284 159.872 23.095 159.872 24.0283C159.872 24.5201 160.017 24.8795 160.307 25.1065C160.61 25.3209 161.14 25.4786 161.896 25.5794ZM176.925 22.7797H173.501V34.2056H170.474V22.7797H167.05V20.0179H176.925V22.7797ZM186.568 25.5227V28.2278H181.101V31.4437H187.117V34.2056H178.074V20.0179H187.117V22.7797H181.101V25.5227H186.568ZM191.686 28.8899V34.2056H188.66V20.0179H193.483C195.312 20.0179 196.611 20.4025 197.38 21.1718C198.162 21.9285 198.553 23.0257 198.553 24.4633C198.553 26.3676 197.891 27.6414 196.567 28.2846L199.083 34.2056H195.545L193.635 28.8899H191.686ZM191.686 22.7797V26.147H193.748C194.757 26.147 195.262 25.5857 195.262 24.4633C195.262 23.9589 195.161 23.5553 194.959 23.2527C194.757 22.9374 194.354 22.7797 193.748 22.7797H191.686ZM200.019 27.1117C200.031 24.4886 200.529 22.6095 201.513 21.4745C202.497 20.3268 204.042 19.753 206.148 19.753C207.232 19.753 208.216 19.9296 209.099 20.2827V23.1392C208.178 22.7734 207.295 22.5906 206.45 22.5906C205.24 22.5906 204.376 22.9122 203.859 23.5553C203.342 24.1859 203.083 25.3714 203.083 27.1117C203.083 28.8521 203.342 30.0438 203.859 30.687C204.376 31.3176 205.24 31.6329 206.45 31.6329C207.295 31.6329 208.178 31.45 209.099 31.0843V33.9407C208.216 34.2938 207.232 34.4704 206.148 34.4704C204.042 34.4704 202.497 33.9029 201.513 32.7679C200.529 31.6203 200.031 29.7349 200.019 27.1117ZM213.762 20.0179V31.4437H219.494V34.2056H210.735V20.0179H213.762ZM223.287 34.2056H220.072L224.006 19.9422H227.487L231.422 34.2056H228.206L227.544 31.2924H223.95L223.287 34.2056ZM225.747 23.5175L224.536 28.8899H226.957L225.747 23.5175ZM237.231 25.5794C237.925 25.6803 238.499 25.7875 238.953 25.901C239.407 26.0019 239.848 26.1533 240.277 26.355C240.718 26.5442 241.059 26.7838 241.299 27.0739C241.538 27.3513 241.727 27.7108 241.866 28.1521C242.017 28.5809 242.093 29.0917 242.093 29.6844C242.093 32.8751 240.239 34.4704 236.532 34.4704C234.564 34.4704 233.089 34.1803 232.105 33.6002V30.4978C233.379 31.2293 234.753 31.595 236.229 31.595C237.238 31.595 237.95 31.4563 238.366 31.1789C238.783 30.8888 238.991 30.4852 238.991 29.9682C238.991 29.4385 238.852 29.0602 238.575 28.8332C238.31 28.6062 237.812 28.4422 237.08 28.3413C235.264 28.1017 233.978 27.6666 233.221 27.036C232.477 26.4055 232.105 25.4029 232.105 24.0283C232.105 22.6915 232.54 21.6447 233.41 20.888C234.28 20.1314 235.617 19.753 237.421 19.753C239.237 19.753 240.573 19.9863 241.431 20.453V23.3851C241.015 23.1833 240.447 23.0067 239.729 22.8554C239.022 22.7041 238.329 22.6284 237.648 22.6284C236.021 22.6284 235.207 23.095 235.207 24.0283C235.207 24.5201 235.352 24.8795 235.642 25.1065C235.945 25.3209 236.475 25.4786 237.231 25.5794ZM248.482 25.5794C249.175 25.6803 249.749 25.7875 250.203 25.901C250.657 26.0019 251.099 26.1533 251.528 26.355C251.969 26.5442 252.309 26.7838 252.549 27.0739C252.789 27.3513 252.978 27.7108 253.117 28.1521C253.268 28.5809 253.344 29.0917 253.344 29.6844C253.344 32.8751 251.49 34.4704 247.782 34.4704C245.815 34.4704 244.339 34.1803 243.355 33.6002V30.4978C244.629 31.2293 246.004 31.595 247.479 31.595C248.488 31.595 249.201 31.4563 249.617 31.1789C250.033 30.8888 250.241 30.4852 250.241 29.9682C250.241 29.4385 250.102 29.0602 249.825 28.8332C249.56 28.6062 249.062 28.4422 248.331 28.3413C246.515 28.1017 245.228 27.6666 244.471 27.036C243.727 26.4055 243.355 25.4029 243.355 24.0283C243.355 22.6915 243.79 21.6447 244.661 20.888C245.531 20.1314 246.868 19.753 248.671 19.753C250.487 19.753 251.824 19.9863 252.681 20.453V23.3851C252.265 23.1833 251.698 23.0067 250.979 22.8554C250.273 22.7041 249.579 22.6284 248.898 22.6284C247.271 22.6284 246.458 23.095 246.458 24.0283C246.458 24.5201 246.603 24.8795 246.893 25.1065C247.196 25.3209 247.725 25.4786 248.482 25.5794Z" fill="white"/>
<path d="M134.815 67.376H129.949L135.903 45.7902H141.171L147.126 67.376H142.259L141.257 62.9672H135.817L134.815 67.376ZM138.537 51.201L136.705 59.3314H140.369L138.537 51.201ZM167.419 54.5219V58.6157H159.317V67.376H154.736V45.9047H168.277V50.0845H159.317V54.5219H167.419ZM182.681 66.9752C181.536 67.5096 180.143 67.7768 178.501 67.7768C176.86 67.7768 175.467 67.5096 174.322 66.9752C173.177 66.4408 172.289 65.6678 171.659 64.6563C171.049 63.6257 170.61 62.471 170.342 61.1923C170.075 59.8944 169.942 58.3771 169.942 56.6404C169.942 54.9036 170.075 53.3958 170.342 52.1171C170.61 50.8193 171.049 49.6646 171.659 48.6531C172.289 47.6224 173.177 46.8399 174.322 46.3055C175.467 45.7711 176.86 45.504 178.501 45.504C180.143 45.504 181.536 45.7711 182.681 46.3055C183.826 46.8399 184.704 47.6224 185.315 48.6531C185.945 49.6646 186.393 50.8193 186.661 52.1171C186.928 53.3958 187.061 54.9036 187.061 56.6404C187.061 58.3771 186.928 59.8944 186.661 61.1923C186.393 62.471 185.945 63.6257 185.315 64.6563C184.704 65.6678 183.826 66.4408 182.681 66.9752ZM181.507 51.2582C180.916 50.1895 179.914 49.6551 178.501 49.6551C177.089 49.6551 176.078 50.1895 175.467 51.2582C174.875 52.327 174.579 54.1211 174.579 56.6404C174.579 59.1597 174.875 60.9537 175.467 62.0225C176.078 63.0913 177.089 63.6257 178.501 63.6257C179.914 63.6257 180.916 63.0913 181.507 62.0225C182.118 60.9537 182.424 59.1597 182.424 56.6404C182.424 54.1211 182.118 52.327 181.507 51.2582ZM194.124 59.3314V67.376H189.543V45.9047H196.843C199.611 45.9047 201.576 46.4869 202.741 47.6511C203.924 48.7962 204.516 50.4566 204.516 52.6324C204.516 55.5143 203.514 57.442 201.51 58.4153L205.317 67.376H199.964L197.072 59.3314H194.124ZM194.124 50.0845V55.1803H197.244C198.771 55.1803 199.534 54.331 199.534 52.6324C199.534 51.869 199.382 51.2582 199.076 50.8002C198.771 50.323 198.16 50.0845 197.244 50.0845H194.124ZM218.7 71.5271C218.7 72.5577 218.357 73.3116 217.669 73.7887C217.001 74.2849 216.124 74.5331 215.036 74.5331C213.814 74.5331 212.86 74.3517 212.173 73.9891V71.3839C213.032 71.6702 213.862 71.8134 214.663 71.8134C215.389 71.8134 215.751 71.5939 215.751 71.1549C215.751 70.6205 215.074 70.2579 213.719 70.067L213.976 67.6336C211.495 67.3092 209.673 66.2786 208.508 64.5418C207.344 62.805 206.753 60.1712 206.733 56.6404C206.753 52.6706 207.506 49.8268 208.995 48.1091C210.484 46.3723 212.822 45.504 216.009 45.504C217.65 45.504 219.139 45.7711 220.475 46.3055V50.6284C219.082 50.0749 217.746 49.7982 216.467 49.7982C214.635 49.7982 213.328 50.2849 212.545 51.2582C211.762 52.2125 211.371 54.0066 211.371 56.6404C211.371 59.2742 211.762 61.0777 212.545 62.0511C213.328 63.0054 214.635 63.4825 216.467 63.4825C217.746 63.4825 219.082 63.2058 220.475 62.6523V66.9752C219.139 67.5096 217.66 67.7768 216.038 67.7768L216.124 69.0078C217.841 69.4086 218.7 70.2483 218.7 71.5271ZM226.739 67.376H221.872L227.827 45.7902H233.095L239.049 67.376H234.182L233.18 62.9672H227.741L226.739 67.376ZM230.461 51.201L228.629 59.3314H232.293L230.461 51.201ZM253.617 67.376H246.66V45.9047H253.617C255.372 45.9047 256.861 46.1719 258.083 46.7063C259.323 47.2407 260.268 48.0137 260.917 49.0252C261.585 50.0177 262.062 51.1342 262.348 52.3747C262.634 53.5962 262.778 55.0181 262.778 56.6404C262.778 58.2626 262.634 59.694 262.348 60.9346C262.062 62.1561 261.585 63.2726 260.917 64.2841C260.268 65.2766 259.323 66.04 258.083 66.5744C256.861 67.1088 255.372 67.376 253.617 67.376ZM251.24 50.0845V63.1962H253.702C255.306 63.1962 256.422 62.6523 257.052 61.5644C257.701 60.4766 258.025 58.8352 258.025 56.6404C258.025 54.4455 257.701 52.8042 257.052 51.7163C256.422 50.6284 255.306 50.0845 253.702 50.0845H251.24ZM268.368 67.376H263.501L269.455 45.7902H274.723L280.678 67.376H275.811L274.809 62.9672H269.369L268.368 67.376ZM272.089 51.201L270.257 59.3314H273.921L272.089 51.201ZM135.273 94.9326V102.376H130.693V80.9047H137.964C140.636 80.9047 142.583 81.5632 143.805 82.8801C145.045 84.197 145.665 85.8765 145.665 87.9187C145.665 89.9799 145.045 91.669 143.805 92.9859C142.583 94.2837 140.636 94.9326 137.964 94.9326H135.273ZM135.273 85.0845V90.8101H137.993C139.005 90.8101 139.711 90.5239 140.112 89.9513C140.512 89.3596 140.713 88.6916 140.713 87.9473C140.713 87.203 140.512 86.5445 140.112 85.972C139.711 85.3803 139.005 85.0845 137.993 85.0845H135.273ZM160.154 89.2356V93.3294H151.88V98.1962H160.984V102.376H147.3V80.9047H160.984V85.0845H151.88V89.2356H160.154ZM167.9 94.3314V102.376H163.319V80.9047H170.619C173.387 80.9047 175.353 81.4869 176.517 82.6511C177.7 83.7962 178.292 85.4566 178.292 87.6324C178.292 90.5143 177.29 92.442 175.286 93.4153L179.093 102.376H173.74L170.848 94.3314H167.9ZM167.9 85.0845V90.1803H171.02C172.547 90.1803 173.31 89.331 173.31 87.6324C173.31 86.869 173.158 86.2582 172.852 85.8002C172.547 85.323 171.936 85.0845 171.02 85.0845H167.9ZM188.125 89.3215C189.174 89.4742 190.043 89.6364 190.73 89.8082C191.417 89.9608 192.085 90.1899 192.734 90.4952C193.402 90.7815 193.917 91.1441 194.28 91.5831C194.642 92.003 194.929 92.5469 195.139 93.2149C195.368 93.8638 195.482 94.6368 195.482 95.5338C195.482 100.362 192.677 102.777 187.065 102.777C184.088 102.777 181.855 102.338 180.366 101.46V96.7648C182.294 97.8718 184.374 98.4253 186.607 98.4253C188.134 98.4253 189.212 98.2153 189.842 97.7954C190.472 97.3565 190.787 96.7457 190.787 95.9632C190.787 95.1616 190.577 94.5891 190.157 94.2455C189.756 93.902 189.003 93.6539 187.896 93.5012C185.147 93.1386 183.201 92.4801 182.055 91.5258C180.929 90.5716 180.366 89.0543 180.366 86.9739C180.366 84.9509 181.025 83.3668 182.342 82.2216C183.659 81.0765 185.682 80.504 188.411 80.504C191.159 80.504 193.182 80.857 194.48 81.5632V86.0006C193.85 85.6952 192.991 85.428 191.904 85.199C190.835 84.97 189.785 84.8555 188.754 84.8555C186.292 84.8555 185.061 85.5616 185.061 86.9739C185.061 87.7183 185.281 88.2622 185.72 88.6058C186.178 88.9302 186.979 89.1688 188.125 89.3215ZM210.275 101.975C209.13 102.51 207.737 102.777 206.095 102.777C204.454 102.777 203.061 102.51 201.916 101.975C200.77 101.441 199.883 100.668 199.253 99.6563C198.642 98.6257 198.203 97.471 197.936 96.1923C197.669 94.8944 197.535 93.3771 197.535 91.6404C197.535 89.9036 197.669 88.3958 197.936 87.1171C198.203 85.8193 198.642 84.6646 199.253 83.6531C199.883 82.6224 200.77 81.8399 201.916 81.3055C203.061 80.7711 204.454 80.504 206.095 80.504C207.737 80.504 209.13 80.7711 210.275 81.3055C211.42 81.8399 212.298 82.6224 212.909 83.6531C213.539 84.6646 213.987 85.8193 214.254 87.1171C214.522 88.3958 214.655 89.9036 214.655 91.6404C214.655 93.3771 214.522 94.8944 214.254 96.1923C213.987 97.471 213.539 98.6257 212.909 99.6563C212.298 100.668 211.42 101.441 210.275 101.975ZM209.101 86.2582C208.51 85.1895 207.508 84.6551 206.095 84.6551C204.683 84.6551 203.671 85.1895 203.061 86.2582C202.469 87.327 202.173 89.1211 202.173 91.6404C202.173 94.1597 202.469 95.9537 203.061 97.0225C203.671 98.0913 204.683 98.6257 206.095 98.6257C207.508 98.6257 208.51 98.0913 209.101 97.0225C209.712 95.9537 210.017 94.1597 210.017 91.6404C210.017 89.1211 209.712 87.327 209.101 86.2582ZM232.997 102.376H228.474L221.546 89.5505L221.66 102.376H217.137V80.9047H221.66L228.588 93.7302L228.474 80.9047H232.997V102.376ZM239.767 102.376H234.9L240.855 80.7902H246.123L252.077 102.376H247.211L246.209 97.9672H240.769L239.767 102.376ZM243.489 86.201L241.657 94.3314H245.321L243.489 86.201ZM258.537 80.9047V98.1962H267.212V102.376H253.957V80.9047H258.537ZM273.725 102.376H269.145V80.9047H273.725V102.376ZM283.643 102.376H276.686V80.9047H283.643C285.399 80.9047 286.887 81.1719 288.109 81.7063C289.349 82.2407 290.294 83.0137 290.943 84.0252C291.611 85.0177 292.088 86.1342 292.374 87.3747C292.661 88.5962 292.804 90.0181 292.804 91.6404C292.804 93.2626 292.661 94.694 292.374 95.9346C292.088 97.1561 291.611 98.2726 290.943 99.2841C290.294 100.277 289.349 101.04 288.109 101.574C286.887 102.109 285.399 102.376 283.643 102.376ZM281.267 85.0845V98.1962H283.729C285.332 98.1962 286.448 97.6523 287.078 96.5644C287.727 95.4766 288.051 93.8352 288.051 91.6404C288.051 89.4455 287.727 87.8042 287.078 86.7163C286.448 85.6284 285.332 85.0845 283.729 85.0845H281.267ZM298.394 102.376H293.527L299.482 80.7902H304.749L310.704 102.376H305.837L304.835 97.9672H299.396L298.394 102.376ZM302.115 86.201L300.283 94.3314H303.948L302.115 86.201ZM319.54 102.376H312.583V80.9047H319.54C321.296 80.9047 322.784 81.1719 324.006 81.7063C325.247 82.2407 326.191 83.0137 326.84 84.0252C327.508 85.0177 327.985 86.1342 328.272 87.3747C328.558 88.5962 328.701 90.0181 328.701 91.6404C328.701 93.2626 328.558 94.694 328.272 95.9346C327.985 97.1561 327.508 98.2726 326.84 99.2841C326.191 100.277 325.247 101.04 324.006 101.574C322.784 102.109 321.296 102.376 319.54 102.376ZM317.164 85.0845V98.1962H319.626C321.229 98.1962 322.346 97.6523 322.975 96.5644C323.624 95.4766 323.949 93.8352 323.949 91.6404C323.949 89.4455 323.624 87.8042 322.975 86.7163C322.346 85.6284 321.229 85.0845 319.626 85.0845H317.164ZM343.889 89.2356V93.3294H335.616V98.1962H344.719V102.376H331.035V80.9047H344.719V85.0845H335.616V89.2356H343.889Z" fill="white"/>
<path d="M29.3742 53.7708C29.994 54.5679 29.8514 55.716 29.0543 56.3357C27.6741 57.4106 25.8935 58.0029 24.0453 58.0029C22.1934 58.0029 20.4146 57.4106 19.0344 56.3357C18.2373 55.7141 18.0947 54.5661 18.7163 53.769C19.3378 52.9719 20.4895 52.8312 21.283 53.4509C22.7637 54.6045 25.3249 54.6063 26.8094 53.4509C27.6064 52.8312 28.7527 52.9738 29.3742 53.7708ZM110.892 66.8895C110.517 68.1929 109.598 69.2697 108.368 69.8419L104.483 71.6481L102.9 80.6644C102.033 85.5912 97.7754 89.167 92.7736 89.167H85.2509C84.4849 89.167 83.8158 89.7118 83.6586 90.4613L82.4447 96.304C82.2692 97.1522 81.5215 97.7592 80.655 97.7592H36.3449C35.4783 97.7592 34.7306 97.1504 34.5551 96.304L33.3413 90.4613C33.1859 89.7099 32.515 89.167 31.749 89.167H24.2262C19.2245 89.167 14.9668 85.5912 14.1003 80.6662L12.5171 71.6481L8.63233 69.8419C7.402 69.2697 6.48245 68.1929 6.10769 66.8895C5.73292 65.5842 5.94316 64.1838 6.68355 63.0449L12.3233 54.3778V50.4382C12.3233 33.2355 26.3194 19.2412 43.5221 19.2412H45.5349C50.1198 19.2412 54.5238 20.2412 58.52 22.0401C62.6096 20.2046 66.9514 19.2412 71.4632 19.2412H73.4759C90.6786 19.2412 104.675 33.2373 104.675 50.4382V54.3778L110.314 63.0449C111.057 64.182 111.265 65.5842 110.892 66.8895ZM63.8454 74.818L69.4979 65.5275C73.4595 59.0157 74.6021 51.0579 72.6332 43.696C70.5546 35.9302 65.3079 29.6579 58.5182 26.1022C51.553 29.7365 46.4087 36.0856 44.3722 43.696C42.4015 51.0579 43.544 59.0157 47.5074 65.5275L53.16 74.818C55.4561 78.5931 56.2257 83.0537 55.3281 87.3791L53.9296 94.1048H63.0757L61.6772 87.3791C60.7796 83.0537 61.5492 78.5931 63.8454 74.818ZM37.833 94.1048H50.1966L51.7487 86.635C52.458 83.2201 51.851 79.6991 50.0357 76.7193L44.3831 67.4288C39.9042 60.0687 38.6136 51.0744 40.8402 42.7509C42.8877 35.0947 47.714 28.561 54.2971 24.3161C51.5201 23.4002 48.5732 22.8956 45.5349 22.8956H43.5221C28.334 22.8956 15.9796 35.2501 15.9796 50.4363V54.9189C15.9796 55.2736 15.8772 55.6191 15.6834 55.9152L9.74749 65.0376C9.52445 65.3794 9.57381 65.7121 9.62135 65.8785C9.66888 66.0449 9.80599 66.3538 10.1734 66.5257L14.9211 68.734C15.4622 68.9863 15.8461 69.4872 15.9503 70.0759L17.6998 80.0318C18.2574 83.2055 21.0033 85.5107 24.2244 85.5107H31.7471C34.237 85.5107 36.4125 87.2804 36.9189 89.7173L37.833 94.1048ZM107.251 65.0394L101.315 55.9171C101.123 55.6209 101.018 55.2736 101.018 54.9207V50.4382C101.018 35.2519 88.664 22.8975 73.4759 22.8975H71.4632C68.4522 22.8975 65.5291 23.3892 62.7192 24.3161C69.1707 28.4824 74.0792 34.9558 76.1651 42.7546C78.3918 51.0762 77.1011 60.0706 72.6222 67.4324L66.9696 76.7229C65.1561 79.7028 64.5474 83.2237 65.2567 86.6387L66.8088 94.1084H79.1651L80.0773 89.7209C80.5837 87.284 82.7592 85.5144 85.2491 85.5144H92.7718C95.9948 85.5144 98.7388 83.211 99.2964 80.0355L101.046 70.0814C101.15 69.4927 101.534 68.9918 102.075 68.7395L106.823 66.5311C107.192 66.3593 107.327 66.0522 107.375 65.884C107.422 65.7158 107.474 65.3794 107.251 65.0394ZM95.7169 53.4509C94.2343 54.6045 91.6749 54.6063 90.1905 53.4509C89.3934 52.8312 88.2454 52.9719 87.6256 53.7708C87.0059 54.5679 87.1485 55.716 87.9455 56.3357C89.3258 57.4106 91.1064 58.0029 92.9546 58.0029C94.8065 58.0029 96.5853 57.4106 97.9655 56.3357C98.7626 55.7141 98.9052 54.5661 98.2836 53.769C97.6602 52.9719 96.5121 52.8312 95.7169 53.4509Z" fill="white"/>
</svg>
