<svg width="367" height="87" viewBox="0 0 367 87" fill="none" xmlns="http://www.w3.org/2000/svg">
<path d="M43.4189 -3.05176e-05C52.8821 1.29504e-05 61.9038 2.98418 69.4463 8.62497C76.7515 14.0594 82.2527 21.8308 84.9141 30.456L80.833 31.6972C75.7452 15.273 60.7216 4.22564 43.4189 4.22556C21.8285 4.22556 4.25977 21.6831 4.25977 43.1572C4.25977 64.6313 21.8285 82.0879 43.4189 82.0879C60.0117 82.0878 74.8571 71.6612 80.3604 56.125L84.3818 57.542C78.259 74.7924 61.8161 86.371 43.4189 86.3711C19.4615 86.3711 0 66.9934 0 43.1855C8.789e-05 19.3777 19.4924 -3.05176e-05 43.4189 -3.05176e-05ZM54.8047 20.9443H45.4893V46.6425L64.7715 18.0195V17.4287H69.0312V69.3867H64.7715V25.6103L45.4893 54.2636V65.8418H54.8047V70.0966H32.0918V65.8418H41.2295V54.3232L22.833 25.8476V69.3867H18.5732V17.4287H22.833V18.0195L41.2295 46.4951V20.9443H32.0918V16.7207H54.8047V20.9443Z" fill="url(#paint0_linear_127_373)"/>
<path d="M103.928 47.9037V6.19703H118.887C123.854 6.19703 127.339 7.23507 129.341 9.31113C131.343 11.3501 132.344 14.2418 132.344 17.9861C132.344 19.7285 131.936 21.3041 131.121 22.7129C130.305 24.0846 129.211 25.1411 127.84 25.8826C129.508 26.4387 130.88 27.5138 131.955 29.1079C133.03 30.702 133.568 32.7225 133.568 35.1693C133.568 39.136 132.455 42.2501 130.231 44.5115C128.044 46.773 124.336 47.9037 119.109 47.9037H103.928ZM112.825 29.942V40.3409H118.998C122.409 40.3409 124.114 38.5985 124.114 35.1136C124.114 31.6659 122.409 29.942 118.998 29.942H112.825ZM122.891 18.2642C122.891 15.2613 121.445 13.7598 118.553 13.7598H112.825V22.7129H118.553C121.445 22.7129 122.891 21.23 122.891 18.2642ZM146.223 6.19703V39.7848H163.073V47.9037H137.326V6.19703H146.223ZM175.892 47.9037H166.439L178.006 5.9746H188.238L199.804 47.9037H190.351L188.404 39.3399H177.839L175.892 47.9037ZM183.122 16.4847L179.563 32.2776H186.68L183.122 16.4847ZM199.866 27.0504C199.903 19.3393 201.368 13.8154 204.259 10.4789C207.151 7.10531 211.692 5.41851 217.884 5.41851C221.072 5.41851 223.963 5.93752 226.559 6.97556V15.3725C223.852 14.2974 221.257 13.7598 218.773 13.7598C215.214 13.7598 212.675 14.7052 211.155 16.5959C209.635 18.4495 208.875 21.9343 208.875 27.0504C208.875 32.1664 209.635 35.6697 211.155 37.5604C212.675 39.4141 215.214 40.3409 218.773 40.3409C221.257 40.3409 223.852 39.8033 226.559 38.7282V47.1252C223.963 48.1632 221.072 48.6822 217.884 48.6822C211.692 48.6822 207.151 47.0139 204.259 43.6774C201.368 40.3038 199.903 34.7615 199.866 27.0504ZM253.224 47.9037L243.215 31.4991L240.156 35.3917V47.9037H231.37V6.19703H240.156V23.9919L252.557 6.19703H263.29L248.831 24.4367L264.29 47.9037H253.224ZM278.066 27.0504C278.103 19.3393 279.568 13.8154 282.459 10.4789C285.351 7.10531 289.892 5.41851 296.084 5.41851C299.272 5.41851 302.163 5.93752 304.759 6.97556V15.3725C302.052 14.2974 299.457 13.7598 296.973 13.7598C293.414 13.7598 290.875 14.7052 289.355 16.5959C287.835 18.4495 287.075 21.9343 287.075 27.0504C287.075 32.1664 287.835 35.6697 289.355 37.5604C290.875 39.4141 293.414 40.3409 296.973 40.3409C299.457 40.3409 302.052 39.8033 304.759 38.7282V47.1252C302.163 48.1632 299.272 48.6822 296.084 48.6822C289.892 48.6822 285.351 47.0139 282.459 43.6774C279.568 40.3038 278.103 34.7615 278.066 27.0504ZM319.079 47.9037H310.182V6.19703H319.079V47.9037ZM355.248 22.3792L348.797 42.8433H339.789L333.338 22.3792L333.616 47.9037H324.83V6.19703H336.007L344.293 32.1664L352.579 6.19703H363.756V47.9037H354.97L355.248 22.3792Z" fill="white"/>
<path d="M115.12 78.3864L113.677 73.4064H107.146L105.704 78.3864H102.384L108.861 57.7318H111.963L118.44 78.3864H115.12ZM113.024 70.9028L110.412 61.8681L107.799 70.9028H113.024ZM144.337 78.3864H141.561L132.689 63.8819L132.771 78.3864H129.75V57.9767H132.526L141.398 72.4812L141.316 57.9767H144.337V78.3864ZM169.378 60.7796H164.071V78.3864H161.024V60.7796H155.717V57.9767H169.378V60.7796ZM192.282 66.4127V69.2156H183.792V75.5834H193.153V78.3864H180.744V57.9767H193.153V60.7796H183.792V66.4127H192.282ZM206.825 76.046C205.501 74.2681 204.839 71.6466 204.839 68.1815C204.839 64.7164 205.501 62.0949 206.825 60.317C208.168 58.5391 210.309 57.6502 213.248 57.6502C215.044 57.6502 216.64 57.9404 218.037 58.521V61.4327C216.513 60.8159 214.98 60.5075 213.438 60.5075C211.533 60.5075 210.145 61.1425 209.275 62.4124C208.404 63.6823 207.968 65.6054 207.968 68.1815C207.968 70.7577 208.404 72.6807 209.275 73.9507C210.145 75.2206 211.533 75.8556 213.438 75.8556C214.98 75.8556 216.513 75.5471 218.037 74.9303V77.8421C216.64 78.4226 215.044 78.7129 213.248 78.7129C210.309 78.7129 208.168 77.824 206.825 76.046ZM233.546 78.3864H230.498V57.9767H233.546V78.3864ZM249.319 70.7395V78.3864H246.271V57.9767H252.83C255.279 57.9767 257.066 58.5845 258.191 59.8C259.334 60.9973 259.905 62.5213 259.905 64.3717C259.905 66.2222 259.334 67.7461 258.191 68.9435C257.066 70.1409 255.279 70.7395 252.83 70.7395H249.319ZM249.319 60.7796V67.9638H252.966C254.326 67.9638 255.27 67.6101 255.796 66.9025C256.322 66.195 256.585 65.3514 256.585 64.3717C256.585 63.3921 256.322 62.5485 255.796 61.8409C255.27 61.1334 254.326 60.7796 252.966 60.7796H249.319ZM280.747 78.3864L279.305 73.4064H272.774L271.331 78.3864H268.011L274.488 57.7318H277.59L284.067 78.3864H280.747ZM278.652 70.9028L276.039 61.8681L273.427 70.9028H278.652ZM301.446 78.3864H295.378V57.9767H301.446C303.097 57.9767 304.494 58.2307 305.637 58.7387C306.798 59.2466 307.696 59.9814 308.331 60.9429C308.966 61.8863 309.42 62.9476 309.692 64.1268C309.964 65.2879 310.1 66.6395 310.1 68.1815C310.1 69.7236 309.964 71.0842 309.692 72.2635C309.42 73.4245 308.966 74.4858 308.331 75.4474C307.696 76.3907 306.798 77.1164 305.637 77.6244C304.494 78.1324 303.097 78.3864 301.446 78.3864ZM298.426 60.7796V75.5834H301.528C303.469 75.5834 304.848 74.9485 305.664 73.6785C306.499 72.3905 306.916 70.5581 306.916 68.1815C306.916 65.8049 306.499 63.9817 305.664 62.7117C304.848 61.4237 303.469 60.7796 301.528 60.7796H298.426ZM332.989 78.3864L331.547 73.4064H325.016L323.574 78.3864H320.254L326.73 57.7318H329.833L336.309 78.3864H332.989ZM330.894 70.9028L328.281 61.8681L325.669 70.9028H330.894Z" fill="white"/>
<defs>
<linearGradient id="paint0_linear_127_373" x1="5.16714" y1="25.1422" x2="77.4102" y2="84.5756" gradientUnits="userSpaceOnUse">
<stop stop-color="#B8883C"/>
<stop offset="0.202901" stop-color="#FFF8A8"/>
<stop offset="0.509874" stop-color="#DEB05A"/>
<stop offset="1" stop-color="#996221"/>
</linearGradient>
</defs>
</svg>
