<svg width="77" height="78" viewBox="0 0 77 78" fill="none" xmlns="http://www.w3.org/2000/svg">
<path d="M39.1572 0C47.6915 7.27392e-05 55.8277 2.69119 62.6299 7.77832C69.218 12.6792 74.1789 19.6873 76.5791 27.4658L72.8984 28.5859C68.3101 13.7739 54.7614 3.81167 39.1572 3.81152C19.6861 3.81152 3.84185 19.5547 3.8418 38.9209C3.8418 58.2871 19.6861 74.0303 39.1572 74.0303C54.1212 74.0301 67.5096 64.6265 72.4727 50.6152L76.0996 51.8936C70.5778 67.4507 55.7485 77.8934 39.1572 77.8936C17.5514 77.8936 0 60.4172 0 38.9463C0.000217497 17.4755 17.5794 0 39.1572 0ZM49.4258 18.8887H41.0234V42.0645L58.4141 16.251V15.7178H62.2549V62.5762H58.4141V23.0957L41.0234 48.9375V59.3789H49.4258V63.2158H28.9414V59.3789H37.1826V48.9902L20.5918 23.3105V62.5762H16.75V15.7178H20.5918V16.251L37.1826 41.9316V18.8887H28.9414V15.0801H49.4258V18.8887Z" fill="url(#paint0_linear_134_1909)"/>
<defs>
<linearGradient id="paint0_linear_134_1909" x1="11.562" y1="11.3457" x2="66.7705" y2="66.5565" gradientUnits="userSpaceOnUse">
<stop stop-color="#DEB05A"/>
<stop offset="0.535564" stop-color="#B8883C"/>
<stop offset="1" stop-color="#996221"/>
</linearGradient>
</defs>
</svg>
